<svg
   xmlns="http://www.w3.org/2000/svg"
   version="1.0"
   viewBox="0 0 1135 535"
>
  	<g
     	transform="translate(254.92059,753.31563)"
	>
		<g
			transform="translate(35.433079,35.482001)"
			style="fill:#ff0000"
		>
			<path
				d="M 729.89411,-484.54287 C 707.12269,-478.42433 735.1544,-530.10309 735.1544,-530.10309 L 773.70671,-610.67873 L 691.37643,-606.29747 C 589.77008,-605.41845 552.11759,-550.25133 552.11759,-550.25133 C 512.66548,-502.93997 487.26389,-498.57602 487.26389,-498.57602 C 463.62727,-495.06688 479.40808,-517.82793 479.40808,-517.82793 L 524.05123,-598.42439 C 531.94164,-611.55775 521.42107,-608.92763 521.42107,-608.92763 L 475.87818,-600.17549 C 464.52706,-598.42439 471.51768,-604.54292 471.51768,-604.54292 L 517.06057,-661.48191 C 528.44633,-676.36991 509.17017,-668.49679 509.17017,-668.49679 L 425.07496,-643.96383 L 404.06846,-608.04861 C 383.02737,-581.78184 409.32875,-590.53049 409.32875,-590.53049 C 305.4729,-475.32698 303.63873,-506.64985 303.63873,-506.64985 C 282.87447,-514.19767 347.07062,-608.64037 347.07062,-608.64037 L 273.56517,-596.66979 C 233.90547,-511.68867 187.73962,-523.08821 187.73962,-523.08821 C 152.68265,-527.47292 207.88097,-606.29747 207.88097,-606.29747 L 143.02727,-597.54537 C 101.4988,-555.98225 19.549233,-516.07338 19.549233,-516.07338 L 75.093582,-610.51608 L -5.8523988,-593.16065 L -48.765173,-529.22751 C -69.806266,-497.67624 -82.956954,-480.17888 -82.956954,-480.17888 C -90.812759,-474.03962 -124.96994,-444.26366 -124.96994,-444.26366 C -160.8921,-414.47043 -251.11274,-301.4887 -251.11274,-301.4887 C -269.52371,-276.95574 -215.19059,-297.97956 -215.19059,-297.97956 L -150.37153,-315.49764 C -125.86973,-321.63694 -108.32394,-340.03408 -108.32394,-340.03408 L -12.877615,-459.15162 C 5.5333565,-464.4154 107.13976,-523.96378 107.13976,-523.96378 C 79.108004,-439.00338 139.56656,-444.26366 139.56656,-444.26366 C 183.34452,-444.26366 235.01289,-475.79417 235.01289,-475.79417 C 240.27317,-435.49769 273.56517,-445.14268 273.56517,-445.14268 C 338.38427,-447.75208 440.85581,-584.41196 440.85581,-584.41196 L 453.10671,-586.14578 L 418.94953,-530.10309 C 365.51619,-439.8824 425.07496,-443.38813 425.07496,-443.38813 C 474.1478,-444.26366 537.20192,-488.05201 537.20192,-488.05201 C 540.69723,-438.12785 581.01448,-444.26366 581.01448,-444.26366 C 620.43195,-444.26366 666.84003,-478.42433 666.84003,-478.42433 C 669.47015,-446.01825 701.8624,-445.14268 701.8624,-445.14268 C 736.01958,-445.14268 757.06068,-491.5577 757.06068,-491.5577 L 751.80043,-494.19131 C 740.41468,-485.43917 729.89411,-484.54287 729.89411,-484.54287 z M 672.9655,-547.62116 C 660.71456,-523.96378 628.28775,-508.20025 628.28775,-508.20025 C 569.62873,-496.82143 609.01159,-544.11547 609.01159,-544.11547 C 624.79245,-559.879 646.69873,-567.75213 646.69873,-567.75213 C 696.60212,-581.78184 672.9655,-547.62116 672.9655,-547.62116"
			/>
			<path
				d="M 65.092128,-740.30301 L 126.41587,-752.58162 C 126.41587,-752.58162 141.29694,-757.82113 130.77637,-740.30301 C 130.77637,-740.30301 108.0049,-685.13934 65.092128,-678.12446 C 65.092128,-678.12446 23.909729,-666.7422 34.430255,-697.39369 C 34.430255,-697.39369 48.446131,-734.18448 65.092128,-740.30301"
			/>
		</g>
  	</g>
</svg>
