<?xml version="1.0" encoding="UTF-8" standalone="no"?>
<!-- Created with Inkscape (http://www.inkscape.org/) -->
<svg
   xmlns:svg="http://www.w3.org/2000/svg"
   xmlns="http://www.w3.org/2000/svg"
   version="1.0"
   width="153.11"
   height="50.759998"
   id="svg2">
  <defs
     id="defs4" />
  <g
     transform="translate(-587.143,-206.77389)"
     id="layer1">
    <g
       transform="translate(1.0015003,1.0002492)"
       id="g3205">
      <path
         d="M 587.143,255.53339 L 595.446,255.53339 L 595.446,237.49768 L 604.643,247.67625 L 616.25,247.67625 L 602.67857,232.85482 L 614.64286,219.28339 L 603.21429,219.28339 L 595.446,228.03339 L 595.446,218.56911 L 587.143,218.56911 L 587.143,255.53339 z"
         id="path2396"
         style="fill:#000000;fill-opacity:1;fill-rule:evenodd;stroke:none;stroke-width:1px;stroke-linecap:butt;stroke-linejoin:miter;stroke-opacity:1" />
      <path
         d="M 627.89068,218.66942 C 619.88299,218.66942 613.40626,225.14616 613.40625,233.15385 C 613.40625,241.16153 619.88298,247.66942 627.89068,247.66942 C 635.89836,247.66942 642.40622,241.16154 642.40625,233.15385 C 642.40625,225.14616 635.89835,218.66941 627.89068,218.66942 z M 627.89068,228.6372 C 630.39614,228.6372 632.43847,230.64837 632.43847,233.15385 C 632.4385,235.65932 630.39615,237.70164 627.89068,237.70164 C 625.38518,237.70164 623.37403,235.65932 623.37403,233.15385 C 623.37403,230.64837 625.3852,228.6372 627.89068,228.6372 z"
         id="path2398"
         style="fill:#000000;fill-opacity:1;stroke:none;stroke-width:1;stroke-miterlimit:4;stroke-dasharray:none;stroke-opacity:1" />
      <path
         d="M 660.09375,218.79442 C 652.08284,218.79442 645.59373,225.28349 645.59375,233.29442 C 645.59375,241.30533 652.08282,247.79442 660.09375,247.79442 C 668.10467,247.79442 674.59375,241.30533 674.59375,233.29442 C 674.59375,225.2835 668.10466,218.79441 660.09375,218.79442 z M 660.09375,226.90939 C 663.61167,226.90939 666.47878,229.77649 666.47878,233.29442 C 666.47877,236.81236 663.61168,239.67945 660.09375,239.67945 C 656.57582,239.67944 653.70872,236.81235 653.70872,233.29442 C 653.70872,229.7765 656.57583,226.90939 660.09375,226.90939 z"
         id="path3175"
         style="fill:#000000;fill-opacity:1;stroke:none;stroke-width:1;stroke-miterlimit:4;stroke-opacity:1" />
      <path
         d="M 699.8125,206.77389 L 699.8125,222.05514 C 697.53525,220.46307 694.76866,218.89889 691.78125,218.89889 C 684.90984,218.89889 677.40625,223.68079 677.40625,233.55514 C 677.40625,241.30816 684.0282,247.61764 691.78125,247.61764 C 700.28519,247.61764 706.5,240.07072 706.5,233.55514 L 706.5,206.77389 L 699.8125,206.77389 z M 691.5625,225.43014 C 695.93186,225.43015 699.46875,228.9983 699.46875,233.36764 C 699.46877,237.73698 695.93184,241.27389 691.5625,241.27389 C 687.19318,241.27389 683.625,237.73698 683.625,233.36764 C 683.62501,228.9983 687.19316,225.43014 691.5625,225.43014 z"
         id="path3183"
         style="opacity:1;fill:#000000;fill-opacity:1;stroke:none;stroke-width:1.12362635;stroke-miterlimit:4;stroke-dasharray:none;stroke-opacity:1" />
      <path
         d="M 723.73426,218.74264 C 715.72774,218.74264 709.24998,225.2448 709.25,233.24264 C 709.25,241.24048 715.72772,247.74263 723.73426,247.74264 C 731.74078,247.74264 738.24999,241.24047 738.25,233.24264 C 738.25,225.2448 731.74076,218.74264 723.73426,218.74264 z M 723.73426,223.14611 C 729.31968,223.14612 733.87324,227.66327 733.87324,233.24264 C 733.87326,238.82201 729.31969,243.33917 723.73426,243.33917 C 718.14881,243.33918 713.62676,238.82201 713.62676,233.24264 C 713.62677,227.66326 718.14882,223.14611 723.73426,223.14611 z"
         id="path3188"
         style="fill:#000000;fill-opacity:1;stroke:none;stroke-width:1;stroke-miterlimit:4;stroke-opacity:1" />
    </g>
  </g>
</svg>
