<svg 
	xmlns="http://www.w3.org/2000/svg" 
	xmlns:xlink="http://www.w3.org/1999/xlink" 
	width="816.62"
	height="243.67"
	viewBox="13.67 154 816.62 253.67"
>
	<defs>
		<style>
			.cls-1{fill:none;}
			.cls-2{clip-path:url(#clip-path);}
			.cls-3{fill:#000;}
			.cls-4{fill:#a6ce39;}
			.cls-5{clip-path:url(#clip-path-2);}
			.cls-6{fill:none;stroke:#555;stroke-linejoin:round;stroke-width:8.12px;}
			.cls-7{fill:#fff;}
			.cls-8{fill:#ff0;}
		</style>
		<clipPath id="clip-path">
			<rect class="cls-1" x="13.67" y="152.02" width="816.62" height="252.9"/>
		</clipPath>
		<clipPath id="clip-path-2">
			<rect class="cls-1" x="295.67" y="237.13" width="654.02" height="186.62"/>
		</clipPath>
	</defs>
	<title>Lectric Ave logo</title>
	<g class="cls-2">
		<path class="cls-3" d="M38.33,152.06h720s15.72-1.9,21.9,23.07,50,201.91,50,205.86.12,9.11-4.79,14.89-10.86,9.05-17.17,9.05H84.23A20.43,20.43,0,0,1,70,396.05c-5.61-8.23-6.84-14.54-10-27.68S13.74,177.23,13.74,177.23a26.8,26.8,0,0,1,1.81-11.74c2.45-6.13,6.83-8.68,12.44-11.06a29.4,29.4,0,0,1,10.34-2.37"/>
		<path class="cls-8" d="M91.25,307l531.24,8.32-519.76,7a27.4,27.4,0,0,1-8.42-7.67c-3.07-4.68-3.07-8-3.06-7.66"/>
		<path class="cls-8" d="M111.54,334.63l565.75,7.65L123,350a27.35,27.35,0,0,1-8.41-7.66c-3.07-4.69-3.07-8-3.07-7.67"/>
		<path class="cls-8" d="M132.71,362.25,743,369.9l-598.8,7.68a27.35,27.35,0,0,1-8.41-7.66c-3.07-4.69-3.07-8-3.07-7.67"/>
	</g>
	<path class="cls-4" d="M78.26,186.21V261.3h38.17c3,0,5.38.83,7,2.47a8.43,8.43,0,0,1,2.45,6.19,8.26,8.26,0,0,1-2.41,6.16q-2.41,2.36-7,2.36H71q-6.15,0-8.84-3t-2.7-9.78V186.21q0-6.33,2.57-9.5a8.26,8.26,0,0,1,6.75-3.16,8.54,8.54,0,0,1,6.88,3.13Q78.26,179.82,78.26,186.21Z"/>
	<path class="cls-4" d="M185.35,245.89H151.49a27.66,27.66,0,0,0,2.38,11.54A17.43,17.43,0,0,0,160,265a15,15,0,0,0,8.46,2.54,18.88,18.88,0,0,0,5.68-.81,17.57,17.57,0,0,0,5-2.53,38.53,38.53,0,0,0,4.44-3.7c1.35-1.31,3.11-3.1,5.26-5.35a5.34,5.34,0,0,1,3.81-1.26,5.89,5.89,0,0,1,4.31,1.61A6.13,6.13,0,0,1,198.6,260a13.6,13.6,0,0,1-1.84,6.09,23.51,23.51,0,0,1-5.55,6.68,30.32,30.32,0,0,1-9.32,5.31,36.42,36.42,0,0,1-12.9,2.12q-16.68,0-25.93-10.56T133.8,241a52.6,52.6,0,0,1,2.28-15.8,35.67,35.67,0,0,1,6.66-12.49,28.79,28.79,0,0,1,10.78-8,35.34,35.34,0,0,1,14.2-2.78q10.14,0,17.4,4.75A30,30,0,0,1,196,219a35.08,35.08,0,0,1,3.61,15.34q0,7.25-3.74,9.4T185.35,245.89ZM151.49,235h31.38q-.63-9.84-4.78-14.74a13.66,13.66,0,0,0-10.94-4.89,13.23,13.23,0,0,0-10.62,5Q152.38,225.28,151.49,235Z"/>
	<path class="cls-4" d="M276.26,256.45a18,18,0,0,1-1.93,7.67,25.91,25.91,0,0,1-5.9,7.78,29.7,29.7,0,0,1-10,5.94,38.58,38.58,0,0,1-13.57,2.26q-16,0-25-10.39t-9-27.83A50.2,50.2,0,0,1,215,221a31.79,31.79,0,0,1,11.92-14q7.8-5,18.64-5a33.89,33.89,0,0,1,12.34,2.18,31.23,31.23,0,0,1,9.51,5.63,26.43,26.43,0,0,1,6,7.35,15.83,15.83,0,0,1,2.06,7.29,8.11,8.11,0,0,1-2.32,5.84,7.52,7.52,0,0,1-5.61,2.39,5.28,5.28,0,0,1-3.58-1.23,18.89,18.89,0,0,1-3.2-4,28.2,28.2,0,0,0-6.63-8,13.93,13.93,0,0,0-8.78-2.67,14.44,14.44,0,0,0-12.36,6.65q-4.69,6.65-4.69,18.19a39,39,0,0,0,1.2,10,23.65,23.65,0,0,0,3.49,7.74,15,15,0,0,0,12.61,6.51,14.77,14.77,0,0,0,8.91-2.68A22.59,22.59,0,0,0,261,255a18.71,18.71,0,0,1,3.43-5.07,6.12,6.12,0,0,1,4.5-1.83,6.43,6.43,0,0,1,5.26,2.68A9,9,0,0,1,276.26,256.45Z"/>
	<path class="cls-4" d="M292.3,203.81h1.91V192.27q0-4.65.22-7.29a11.62,11.62,0,0,1,1.24-4.54,8.21,8.21,0,0,1,2.91-3.2,7.68,7.68,0,0,1,4.25-1.23,8.13,8.13,0,0,1,6,2.74,8.45,8.45,0,0,1,2.25,4.47,44.61,44.61,0,0,1,.48,7.5v13.09h6.34a7.6,7.6,0,0,1,5.61,1.93,6.72,6.72,0,0,1,1.93,5c0,2.59-.92,4.39-2.76,5.42s-4.47,1.55-7.89,1.55h-3.23V253a63.91,63.91,0,0,0,.28,6.93,7.46,7.46,0,0,0,1.52,3.94,4.92,4.92,0,0,0,4,1.52,19.46,19.46,0,0,0,4.12-.6,19.26,19.26,0,0,1,4.06-.6,5,5,0,0,1,3.77,1.87,6.61,6.61,0,0,1,1.68,4.61q0,4.63-4.57,7.1t-13.12,2.47q-8.12,0-12.3-3a14,14,0,0,1-5.48-8.38,62.51,62.51,0,0,1-1.3-14.28V217.67h-2.29a7.68,7.68,0,0,1-5.7-2,6.78,6.78,0,0,1-2-5,6.52,6.52,0,0,1,2.06-5A8.44,8.44,0,0,1,292.3,203.81Z"/>
	<path class="cls-4" d="M354.5,252.51v16q0,5.85-2.47,8.77a7.89,7.89,0,0,1-6.28,2.92,7.6,7.6,0,0,1-6.15-3c-1.6-2-2.41-4.88-2.41-8.73V215.07q0-12.94,8.44-12.95,4.31,0,6.21,3c1.27,2,2,5,2.09,8.93a33.23,33.23,0,0,1,6.37-8.93,12.31,12.31,0,0,1,8.72-3,20.61,20.61,0,0,1,10.59,3q5.13,3,5.13,8a8.08,8.08,0,0,1-2.18,5.8,6.48,6.48,0,0,1-4.73,2.29,19.87,19.87,0,0,1-4.59-1.3,19.45,19.45,0,0,0-6.44-1.3,8.84,8.84,0,0,0-6.21,2.21,14.44,14.44,0,0,0-3.74,6.58A50.39,50.39,0,0,0,355,237.83Q354.5,243.86,354.5,252.51Z"/>
	<path class="cls-4" d="M402.94,193.18a8.61,8.61,0,0,1-6.18-2.46,10.31,10.31,0,0,1,.06-13.69,8.38,8.38,0,0,1,6.12-2.64,8.56,8.56,0,0,1,6,2.39q2.6,2.4,2.6,7a9.27,9.27,0,0,1-2.54,6.93A8.27,8.27,0,0,1,402.94,193.18ZM411.5,213v55.52c0,3.85-.83,6.76-2.47,8.73a7.84,7.84,0,0,1-6.28,3,7.48,7.48,0,0,1-6.18-3c-1.59-2-2.38-4.9-2.38-8.66v-55q0-5.7,2.38-8.59a7.62,7.62,0,0,1,6.18-2.88A7.92,7.92,0,0,1,409,205C410.67,206.93,411.5,209.6,411.5,213Z"/>
	<path class="cls-4" d="M491.45,256.45a18,18,0,0,1-1.94,7.67,26,26,0,0,1-5.89,7.78,29.65,29.65,0,0,1-10,5.94,38.54,38.54,0,0,1-13.57,2.26q-16,0-25-10.39t-9-27.83a50,50,0,0,1,4.12-20.9,31.72,31.72,0,0,1,11.92-14q7.8-5,18.64-5A33.84,33.84,0,0,1,473,204.16a31.23,31.23,0,0,1,9.51,5.63,26.25,26.25,0,0,1,6,7.35,15.83,15.83,0,0,1,2.06,7.29,8.1,8.1,0,0,1-2.31,5.84,7.55,7.55,0,0,1-5.61,2.39,5.3,5.3,0,0,1-3.59-1.23,18.89,18.89,0,0,1-3.2-4,28.18,28.18,0,0,0-6.62-8,14,14,0,0,0-8.78-2.67q-7.68,0-12.37,6.65t-4.69,18.19a39,39,0,0,0,1.2,10,23.86,23.86,0,0,0,3.49,7.74,15,15,0,0,0,12.62,6.51,14.81,14.81,0,0,0,8.91-2.68,22.69,22.69,0,0,0,6.56-8.16,18.7,18.7,0,0,1,3.42-5.07,6.15,6.15,0,0,1,4.5-1.83,6.45,6.45,0,0,1,5.27,2.68A9.11,9.11,0,0,1,491.45,256.45Z"/>
	<path class="cls-4" d="M599.67,266.79l-4.43-12.94H557.45L553,267.08q-2.6,7.74-4.44,10.45c-1.22,1.8-3.23,2.71-6,2.71a8.43,8.43,0,0,1-6.28-2.89,9.29,9.29,0,0,1-2.72-6.54,16.19,16.19,0,0,1,.63-4.37q.63-2.25,2.09-6.26l23.78-67c.67-1.92,1.49-4.23,2.44-6.93a37,37,0,0,1,3-6.72,13,13,0,0,1,4.25-4.33,13.75,13.75,0,0,1,13.06,0,13.2,13.2,0,0,1,4.25,4.26,30.82,30.82,0,0,1,2.73,5.59c.73,2,1.68,4.66,2.82,8l24.28,66.58q2.85,7.59,2.85,11.05a9.66,9.66,0,0,1-2.69,6.58,8.45,8.45,0,0,1-6.5,3,7.76,7.76,0,0,1-3.8-.88,8.06,8.06,0,0,1-2.67-2.4,22.18,22.18,0,0,1-2.31-4.64C601,270.23,600.27,268.39,599.67,266.79Zm-37.28-28.64h27.77l-14-42.58Z"/>
	<path class="cls-4" d="M641.51,214.08l14,43.64,15.09-45.54a28.08,28.08,0,0,1,3.49-7.77,6.06,6.06,0,0,1,5.2-2.29,7.41,7.41,0,0,1,5.61,2.46,8.11,8.11,0,0,1,2.31,5.7,13,13,0,0,1-.41,3,29.56,29.56,0,0,1-.95,3.17c-.36,1-.77,2.11-1.24,3.37L668,265.53c-.46,1.31-1.07,3-1.8,5a27.52,27.52,0,0,1-2.48,5.18,10.2,10.2,0,0,1-3.36,3.34,9.25,9.25,0,0,1-4.85,1.2,8.75,8.75,0,0,1-5.86-1.87,12.27,12.27,0,0,1-3.24-4.08c-.69-1.48-1.87-4.4-3.51-8.76l-16.49-45.25c-.38-1.13-.77-2.26-1.17-3.38a34.15,34.15,0,0,1-1-3.45,13.81,13.81,0,0,1-.41-3,7.93,7.93,0,0,1,1.08-3.9,8.87,8.87,0,0,1,3-3.17,7.44,7.44,0,0,1,4.12-1.23q4.31,0,5.93,2.74A46.29,46.29,0,0,1,641.51,214.08Z"/>
	<path class="cls-4" d="M746.27,245.89H712.42a27.82,27.82,0,0,0,2.37,11.54,17.57,17.57,0,0,0,6.15,7.53,15,15,0,0,0,8.47,2.54,18.76,18.76,0,0,0,5.67-.81,17.75,17.75,0,0,0,5-2.53,39.4,39.4,0,0,0,4.44-3.7c1.35-1.31,3.1-3.1,5.26-5.35a5.33,5.33,0,0,1,3.8-1.26,5.9,5.9,0,0,1,4.32,1.61,6.17,6.17,0,0,1,1.64,4.58,13.57,13.57,0,0,1-1.83,6.09,23.51,23.51,0,0,1-5.55,6.68,30.32,30.32,0,0,1-9.32,5.31,36.42,36.42,0,0,1-12.9,2.12q-16.68,0-25.94-10.56T694.73,241a52.6,52.6,0,0,1,2.28-15.8,35.67,35.67,0,0,1,6.66-12.49,28.71,28.71,0,0,1,10.78-8,35.31,35.31,0,0,1,14.2-2.78q10.14,0,17.4,4.75A29.93,29.93,0,0,1,756.92,219a35.1,35.1,0,0,1,3.62,15.34q0,7.25-3.74,9.4T746.27,245.89ZM712.42,235H743.8q-.63-9.84-4.79-14.74a13.63,13.63,0,0,0-10.93-4.89,13.22,13.22,0,0,0-10.62,5Q713.31,225.28,712.42,235Z"/>
	<g class="cls-5">
		<path class="cls-6" d="M410.92,286.87l-.21-5.81c-1.65-4.57-12-4.15-15.48-4.15-36.23,0-52.15,21.16-52.15,34.71,0,7.75,5.16,14.94,30.08,15.91V328c-32.27,10.09-42,27.8-42,37.06,0,5.54,3,14,7.68,15.63a50.77,50.77,0,0,0,15,3.05c22.51.55,36.78-11.76,40.51-15.77,6.37-6.64,6.91-12.17,6.37-22.13-7.25,5.12-14.17,11.62-22.07,14.66-11.09,4.29-19.87,5.26-25.91,4.84s-9.22-1.94-9.22-4.43c0-5,11.64-20.6,39.74-26.41,2.2-.42,8.78-1.8,10.43-3.6,1.54-1.52,4.06-6.5,4.06-9,0-3.18-6.26-3-7.35-3-35.24,1-34.58-3.05-34.91-5.26-.66-4.84,14.38-18.26,40.4-18-2.09,2.07-7.58,7.88-7.58,9.82,0,.83.77,1.52,1.21,1.38,1.87-.41,8.23-5.94,15.37-9C411,295.3,411.25,294.75,410.92,286.87Z"/>
		<path class="cls-6" d="M439.25,347.45c-4.39,5-12.85,13.83-18.89,13.83-3,0-4.5-2.77-5.48-5.95a19.27,19.27,0,0,1,.76-9.54c23.83-29.05,26.68-41.22,27.45-54.36.11-1.8-.33-5.12-2.2-5.12-3.51,0-13.94,12.87-23.6,27.94a80.14,80.14,0,0,0-12.07,41.22c0,8.16,1.75,18,9.77,18,9.44,0,19.75-14,25.79-21.85Zm-21.41-14.66c5.16-14.25,11.42-26.7,16.8-30-2,7.89-8.79,21.16-16.58,30.29Z"/>
		<path class="cls-6" d="M449.78,345.24c3-9.13,9.33-15.77,14.82-17.57.77-.28,1.32.55,1.32,1.52C466,331.54,459.44,341.09,449.78,345.24Zm28.76,1c-5.81,5.81-15,15.91-22.83,15.91-3.51,0-7.13-1.8-6.81-7.05l.22-3.05c21.08-8.71,26.46-18.95,26.46-25.72,0-5.54-4.39-6.64-7.9-6.64-14.27-.14-30.19,18.39-29.75,36.51.22,9.13,3.95,18.12,12,18.12,10.87,0,22.95-13,29.64-22.82Z"/>
		<path class="cls-6" d="M499.29,337.35c.11,2.63,1.21,6.09,3.73,6.09,3,0,11.64-10.65,11.64-18.26,0-4.15-1.54-6.36-4.94-6.36-6.15,0-16.69,7.47-21.63,12.17-7.13,6.78-10.43,11.06-10.43,22.68,0,10.24,4.07,20.2,12.52,20.2,10.43,0,22.72-13.7,29.42-22.69l-1.32-5.39c-6.37,6.22-15.92,15.9-24.26,15.9-5.71,0-8.34-4.28-8.34-7.46,0-3.88,2-6,4.39-8.17Z"/>
		<path class="cls-6" d="M548.69,313.7c1.1-1.94,4.28-6.5,4.28-9,0-2.21-2.09-2.63-3.51-2.63-6.37,0-8.79,6.5-12.08,12.17-11.74.56-12.62,2.77-18.55,14.94l-1.21,2.49c5.82-1.11,3.73-.55,10.43-.55-4.06,8.71-10.1,15.76-16.69,22.13l1.21,5.25,5.6-5.67.22.28c-1.43,4-2.85,9.27-2.85,13.83,0,5.53,2.63,9.27,6.91,9.27,9.33,0,21.19-14.8,27.66-22.27l-.54-6.09c-11.42,10.24-15.37,14.39-18.89,14.39-2.52,0-3.29-1.8-3.29-4.84,0-8.3,6.26-19.64,10-25.73,12.08,1,13-4.15,18.11-17.29Z"/>
		<path class="cls-6" d="M568.56,338.87l.22.28c-4.4,6.64-10.1,14-10.1,23.37,0,5.26,2.85,10.65,7.46,10.65,6.26,0,18.88-15.35,23.05-21.3l-.77-5.11c-3.62,3.45-10.53,12.44-15.25,12.44a3.77,3.77,0,0,1-3.41-3.87c0-5.53,5.38-12.31,8.57-15.77,2.52-2.62,4.61-4.7,4.61-9a15.78,15.78,0,0,0-2.64-7.33c-1.1-1.66-7.13,0-17.45,1.8a11.4,11.4,0,0,0,.77-3.87,2.22,2.22,0,0,0-2-2.35c-2.63,0-13.83,10-13.83,19.91,0,2.91.66,4,3,4.29a46.6,46.6,0,0,1-7.24,10.1l.44,6.08c4.72-5.94,9.33-9.54,13.17-17.15Z"/>
		<path class="cls-6" d="M611.15,334.72c.44.28-4.72,9-4.72,16.19a18.34,18.34,0,0,0,1.31,6.36c-2.52,2.9-4.83,5.53-8.45,5.53-2.74,0-4.83-1.24-4.83-5.26a23.09,23.09,0,0,1,4.5-12.72C602.26,340.81,607.42,337.49,611.15,334.72Zm20.2,10.79c-3.41,3.18-6.48,8.44-11.31,7.33,2.09-5.39,4.28-10.23,4.28-16.32,0-4.15-.66-7-4-8.16,1.21-.83,2.52-1.66,2.52-3.73,0-3.74-3.62-5.12-6-5-6.7.41-14.6,4.15-20.53,10.23-6.15,5.95-10.21,12.86-10,23.24.44,12.59,5.71,19.78,11.42,19.78,6.91,0,12.29-4.43,16.9-10.38,8,0,12.84-3.32,17.78-11.2Z"/>
		<path class="cls-6" d="M675.91,351.6c-2,2.07-6.8,6.91-9.44,6.91-1.09,0-2-1.24-2-2.49,0-9.54,13.5-20,13.5-25.45a39,39,0,0,0-1.65-7.47c-.66-1.93-1.31-2.62-1.75-2.62-3.19,0-23.39,17-32.17,31.12-.44.69-1.42,1.93-2.19,1.93A1.4,1.4,0,0,1,639,352c0-3.32,13.83-17.29,13.83-22.68,0-.83.55-2.77-6-3-1.86,0-2.85.13-4.28,1.66-6.36,6.77-13.28,20.74-12.95,30.29.11,4.7,1.32,13.41,6.15,13.41,3,0,7-6.77,8.67-9.4a101.94,101.94,0,0,1,16.9-21.16l.22.27c-3.51,6.36-9.44,15.49-9.44,23.79,0,4.7,2,9.13,6.15,9.13,8,0,19.32-17,25.14-23.51l-.88-6.09Z"/>
		<path class="cls-6" d="M706.43,321.58c4.72,0,8.78-6.77,8.78-12.31,0-2.49-1.65-4.29-3.62-4.29-4.28,0-9.55,5-9.55,10.66C702,319,703.8,321.58,706.43,321.58Zm5.16,27.25c-4.39,4-10.1,11.34-15.92,11.34-5,0-6.69-3-5.82-8.71,4.61-4,15.48-16.32,15.48-23.24,0-3-3-3.87-4.83-3.87-6.58,0-20.31,16.46-20.31,33.33,0,7.06,3,16.46,9.44,16.46,8.35,0,18-12.45,23-20.05Z"/>
		<path class="cls-6" d="M733.43,337.35c.11,2.63,1.21,6.09,3.74,6.09,3,0,11.63-10.65,11.63-18.26,0-4.15-1.53-6.36-4.94-6.36-6.14,0-16.68,7.47-21.62,12.17-7.14,6.78-10.43,11.06-10.43,22.68,0,10.24,4.06,20.2,12.51,20.2,10.43,0,22.73-13.7,29.42-22.69l-1.31-5.39c-6.37,6.22-15.92,15.9-24.27,15.9-5.7,0-8.34-4.28-8.34-7.46,0-3.88,2-6,4.39-8.17Z"/>
		<path class="cls-6" d="M783.16,354.64c-5.38,5.12-9.66,9.27-16.68,7.75,7-5.4,14.27-13.84,14.27-25.18,0-6.08-1.65-10.79-2.09-16-.33-3.87-1-5.12-4.28-5.12-4,0-6,4.43-6.26,9L744.3,352.57c-.88,1.1-2.63,3-2.63,4.84,0,1.24.76,2.62,1.86,2.62s1.76-1,2.42-1.79A19,19,0,0,0,763.4,374c8.78.56,20.75-12,27.44-20.47l-1.09-5.25Zm-14.93-22.13c.66,4.7,1.1,8.44,1.43,11.34-.33,8-2.09,10.38-8.67,15.49-2.09-3.59-4.5-7.88-8.57-8.16Z"/>
	</g>
	<path class="cls-7" d="M404.89,297.79c-7.14,3-13.51,8.58-15.37,9-.44.14-1.21-.55-1.21-1.38,0-1.94,5.49-7.75,7.57-9.82-26-.28-41.05,13.14-40.39,18,.33,2.21-.33,6.22,34.91,5.25,1.09,0,7.35-.13,7.35,3.05,0,2.49-2.52,7.47-4.06,9-1.65,1.8-8.23,3.18-10.43,3.59-28.1,5.81-39.74,21.44-39.74,26.42,0,2.49,3.3,4.15,9.22,4.43s14.82-.55,25.91-4.84c7.9-3,14.82-9.55,22.06-14.66.55,10,0,15.49-6.36,22.13-3.73,4-18,16.32-40.51,15.77a50.77,50.77,0,0,1-15-3.05c-4.72-1.66-7.68-10.09-7.68-15.63,0-9.26,9.77-27,42-37.07v-.41c-24.92-1-30.08-8.16-30.08-15.91,0-13.55,15.92-34.72,52.15-34.72,3.51,0,13.83-.41,15.47,4.15l.22,5.81C411.25,294.75,411,295.3,404.89,297.79Z"/>
	<path class="cls-7" d="M440.78,351.6c-6,7.88-16.35,21.85-25.79,21.85-8,0-9.77-9.82-9.77-18a80.11,80.11,0,0,1,12.07-41.22c9.66-15.08,20.09-27.94,23.6-27.94,1.87,0,2.31,3.32,2.2,5.12-.77,13.14-3.63,25.31-27.45,54.36a19.27,19.27,0,0,0-.76,9.54c1,3.18,2.52,5.95,5.48,5.95,6,0,14.49-8.85,18.89-13.83Zm-22.72-18.54c7.79-9.13,14.6-22.41,16.57-30.29-5.37,3.32-11.63,15.77-16.79,30Z"/>
	<path class="cls-7" d="M479.53,351.46c-6.7,9.82-18.77,22.82-29.64,22.82-8,0-11.74-9-12-18.12-.44-18.12,15.48-36.65,29.75-36.52,3.51,0,7.9,1.11,7.9,6.64,0,6.78-5.38,17-26.46,25.73l-.22,3c-.32,5.26,3.3,7.06,6.81,7.06,7.79,0,17-10.1,22.83-15.91Zm-13.61-22.27c0-1-.55-1.8-1.32-1.52-5.49,1.79-11.85,8.43-14.82,17.56C459.44,341.08,466,331.54,465.92,329.19Z"/>
	<path class="cls-7" d="M490.07,346.06c-2.42,2.22-4.39,4.29-4.39,8.16,0,3.19,2.63,7.47,8.34,7.47,8.34,0,17.89-9.68,24.26-15.9l1.32,5.39c-6.7,9-19,22.69-29.42,22.69-8.45,0-12.51-10-12.51-20.2,0-11.62,3.29-15.91,10.42-22.68,4.94-4.71,15.48-12.18,21.63-12.18,3.4,0,4.94,2.22,4.94,6.37,0,7.6-8.67,18.25-11.64,18.25-2.52,0-3.62-3.45-3.73-6.08Z"/>
	<path class="cls-7" d="M555.49,314.39c-5.16,13.14-6,18.26-18.11,17.29-3.73,6.08-10,17.43-10,25.73,0,3,.77,4.84,3.29,4.84,3.52,0,7.47-4.15,18.89-14.39l.54,6.09c-6.47,7.47-18.33,22.27-27.66,22.27-4.28,0-6.91-3.74-6.91-9.27,0-4.57,1.42-9.82,2.85-13.83l-.22-.28-5.6,5.67-1.2-5.25c6.58-6.37,12.62-13.42,16.68-22.14-6.7,0-4.61-.55-10.43.56l1.21-2.49c5.93-12.17,6.8-14.39,18.55-14.94,3.29-5.67,5.71-12.17,12.08-12.17,1.42,0,3.51.41,3.51,2.63,0,2.49-3.18,7.05-4.28,9Z"/>
	<path class="cls-7" d="M557.14,342.05c-3.84,7.61-8.45,11.21-13.17,17.15l-.44-6.08a46.84,46.84,0,0,0,7.24-10.1c-2.3-.28-3-1.38-3-4.29,0-10,11.19-19.92,13.83-19.92a2.23,2.23,0,0,1,2,2.36,11.44,11.44,0,0,1-.77,3.87c10.32-1.8,16.35-3.46,17.45-1.8a15.78,15.78,0,0,1,2.64,7.33c0,4.29-2.09,6.36-4.61,9-3.19,3.46-8.57,10.24-8.57,15.77a3.78,3.78,0,0,0,3.41,3.87c4.72,0,11.63-9,15.25-12.45l.77,5.12c-4.17,5.95-16.79,21.3-23.05,21.3-4.61,0-7.46-5.39-7.46-10.65,0-9.4,5.7-16.73,10.1-23.37l-.22-.28Z"/>
	<path class="cls-7" d="M632.44,351.32c-4.94,7.88-9.77,11.2-17.78,11.2-4.61,6-10,10.38-16.91,10.38-5.7,0-11-7.19-11.41-19.78-.22-10.38,3.84-17.29,10-23.24,5.93-6.09,13.83-9.82,20.53-10.24,2.41-.13,6,1.25,6,5,0,2.08-1.31,2.91-2.52,3.74,3.29,1.1,4,4,4,8.16,0,6.09-2.19,10.93-4.28,16.32,4.83,1.11,7.9-4.15,11.31-7.33ZM599,344.82a23.09,23.09,0,0,0-4.5,12.72c0,4,2.09,5.26,4.83,5.26,3.62,0,5.93-2.63,8.45-5.53a18.39,18.39,0,0,1-1.31-6.37c0-7.19,5.16-15.9,4.72-16.18C607.42,337.49,602.26,340.81,599,344.82Z"/>
	<path class="cls-7" d="M682.5,344.68l.88,6.09c-5.82,6.5-17.13,23.51-25.14,23.51-4.17,0-6.15-4.43-6.15-9.13,0-8.3,5.93-17.43,9.44-23.79l-.22-.28a102,102,0,0,0-16.9,21.17c-1.65,2.63-5.71,9.4-8.67,9.4-4.83,0-6-8.71-6.15-13.41-.33-9.55,6.59-23.52,12.95-30.3,1.43-1.52,2.42-1.66,4.28-1.66,6.59.28,6,2.22,6,3.05,0,5.39-13.83,19.36-13.83,22.68a1.4,1.4,0,0,0,1.21,1.52c.77,0,1.75-1.24,2.19-1.93,8.78-14.11,29-31.13,32.17-31.13.44,0,1.09.7,1.75,2.63a39,39,0,0,1,1.65,7.47c0,5.4-13.5,15.91-13.5,25.45,0,1.25.88,2.49,2,2.49,2.64,0,7.47-4.84,9.44-6.91Z"/>
	<path class="cls-7" d="M712.58,354.09c-4.94,7.6-14.6,20.05-23,20.05-6.47,0-9.44-9.4-9.44-16.46,0-16.87,13.73-33.33,20.31-33.33,1.87,0,4.83.83,4.83,3.87,0,6.92-10.87,19.23-15.48,23.24-.87,5.67.77,8.71,5.82,8.71,5.82,0,11.53-7.33,15.92-11.34ZM702,315.63c0-5.67,5.27-10.65,9.55-10.65,2,0,3.62,1.8,3.62,4.29,0,5.53-4.06,12.31-8.78,12.31C703.79,321.58,702,319,702,315.63Z"/>
	<path class="cls-7" d="M724.21,346.06c-2.41,2.22-4.39,4.29-4.39,8.16,0,3.19,2.64,7.47,8.34,7.47,8.35,0,17.9-9.68,24.26-15.9l1.32,5.39c-6.7,9-19,22.69-29.42,22.69-8.45,0-12.51-10-12.51-20.2,0-11.62,3.29-15.91,10.43-22.68,4.94-4.71,15.47-12.18,21.62-12.18,3.4,0,4.94,2.22,4.94,6.37,0,7.6-8.67,18.25-11.63,18.25-2.53,0-3.63-3.45-3.74-6.08Z"/>
	<path class="cls-7" d="M789.75,348.28l1.09,5.25c-6.69,8.44-18.66,21-27.44,20.47A19,19,0,0,1,746,358.24c-.66.83-1.43,1.79-2.42,1.79s-1.86-1.38-1.86-2.62c0-1.8,1.75-3.74,2.63-4.85L768.12,325c.22-4.57,2.31-9,6.26-9,3.29,0,4,1.24,4.28,5.12.44,5.25,2.09,9.95,2.09,16,0,11.34-7.25,19.78-14.28,25.17,7,1.53,11.31-2.62,16.69-7.74Zm-37.33,2.9c4.07.28,6.48,4.57,8.57,8.16,6.58-5.12,8.34-7.47,8.67-15.49-.33-2.9-.77-6.64-1.43-11.34Z"/>
</svg>