<?xml version="1.0" encoding="utf-8"?>
<!-- Generator: Adobe Illustrator 24.1.1, SVG Export Plug-In . SVG Version: 6.00 Build 0)  -->
<svg version="1.1" id="Layer_1" xmlns="http://www.w3.org/2000/svg" xmlns:xlink="http://www.w3.org/1999/xlink" x="0px" y="0px"
	 viewBox="0 0 816.6 243.7" style="enable-background:new 0 0 816.6 243.7;" xml:space="preserve">
<style type="text/css">
	.st0{clip-path:url(#SVGID_2_);}
	.st1{fill:#FFFF00;}
	.st2{fill:#49AF0E;}
	.st3{clip-path:url(#SVGID_4_);}
	.st4{fill:none;stroke:#555555;stroke-width:7.7999;stroke-linejoin:round;stroke-miterlimit:3.8423;}
	.st5{fill:#FFFFFF;}
</style>
<g>
	<defs>
		<rect id="SVGID_1_" x="16.1" y="-1.9" width="784.4" height="242.9"/>
	</defs>
	<clipPath id="SVGID_2_">
		<use xlink:href="#SVGID_1_"  style="overflow:visible;"/>
	</clipPath>
	<g class="st0">
		<path d="M39.8-1.9h691.6c0,0,15.1-1.8,21,22.2c5.9,24,48,194,48,197.7c0,3.8,0.1,8.8-4.6,14.3c-4.7,5.6-10.4,8.7-16.5,8.7H83.9
			c-5.6-0.8-10.5-3.9-13.7-8.5c-5.4-7.9-6.6-14-9.6-26.6c-3-12.6-44.4-183.6-44.4-183.6c-0.3-3.8,0.3-7.7,1.7-11.3
			c2.4-5.9,6.6-8.3,11.9-10.6C33-0.9,36.4-1.7,39.8-1.9"/>
		<path class="st1" d="M90.6,147l510.3,8l-499.3,6.7c-3.2-1.9-5.9-4.4-8.1-7.4C90.6,149.8,90.6,146.6,90.6,147"/>
		<path class="st1" d="M110.1,173.5l543.4,7.3l-532.4,7.4c-3.2-1.9-5.9-4.4-8.1-7.4C110.1,176.4,110.1,173.2,110.1,173.5"/>
		<path class="st1" d="M130.4,200l586.2,7.3l-575.2,7.4c-3.2-1.9-5.9-4.4-8.1-7.4C130.5,202.9,130.5,199.7,130.4,200"/>
	</g>
</g>
<path class="st2" d="M78.1,30.9v72.1h36.7c2.9,0,5.2,0.8,6.7,2.4c1.6,1.6,2.4,3.7,2.4,5.9c0.1,2.2-0.8,4.4-2.3,5.9
	c-1.5,1.5-3.8,2.3-6.7,2.3H71.2c-3.9,0-6.8-1-8.5-2.9c-1.7-1.9-2.6-5.1-2.6-9.4V30.9c0-4.1,0.8-7.1,2.5-9.1c1.6-2,4-3.1,6.5-3
	c2.6-0.1,5,1,6.6,3C77.3,23.8,78.1,26.8,78.1,30.9z"/>
<path class="st2" d="M181,88.3h-32.5c0,3.8,0.7,7.6,2.3,11.1c1.2,2.9,3.3,5.5,5.9,7.3c2.4,1.6,5.2,2.5,8.1,2.4
	c1.8,0,3.7-0.2,5.5-0.8c1.7-0.5,3.3-1.4,4.8-2.4c1.5-1.1,2.9-2.3,4.3-3.6c1.3-1.3,3-3,5.1-5.1c1-0.9,2.3-1.3,3.7-1.2
	c1.5-0.1,3,0.5,4.1,1.5c1.1,1.2,1.7,2.7,1.6,4.3c-0.1,2.1-0.7,4.1-1.8,5.8c-1.4,2.5-3.2,4.6-5.3,6.4c-2.7,2.2-5.7,3.9-9,5.1
	c-4,1.4-8.2,2.1-12.4,2c-10.7,0-19-3.4-24.9-10.1c-5.9-6.8-8.9-15.9-8.9-27.5c0-5.1,0.7-10.3,2.2-15.2c1.3-4.4,3.5-8.5,6.4-12
	c2.8-3.3,6.3-6,10.4-7.7c4.3-1.8,9-2.7,13.6-2.7c6.5,0,12.1,1.5,16.7,4.6c4.5,2.9,8.1,7,10.5,11.8c2.3,4.6,3.4,9.6,3.5,14.7
	c0,4.6-1.2,7.7-3.6,9C188.7,87.6,185.4,88.3,181,88.3z M148.5,77.8h30.1c-0.4-6.3-1.9-11-4.6-14.2c-2.6-3.1-6.5-4.8-10.5-4.7
	c-4-0.1-7.7,1.7-10.2,4.8C150.7,66.9,149.1,71.6,148.5,77.8z"/>
<path class="st2" d="M268.3,98.4c-0.1,2.6-0.7,5.1-1.9,7.4c-1.4,2.8-3.3,5.4-5.7,7.5c-2.8,2.5-6.1,4.5-9.6,5.7
	c-4.2,1.5-8.6,2.2-13,2.2c-10.2,0-18.3-3.3-24-10c-5.8-6.7-8.6-15.6-8.6-26.7c-0.1-6.9,1.2-13.7,4-20.1c2.4-5.5,6.4-10.2,11.5-13.4
	c5-3.2,11-4.8,17.9-4.8c4,0,8.1,0.7,11.9,2.1c3.3,1.2,6.4,3.1,9.1,5.4c2.3,2,4.3,4.4,5.8,7.1c1.2,2.1,1.9,4.5,2,7
	c0,2.1-0.8,4.1-2.2,5.6c-1.4,1.5-3.3,2.3-5.4,2.3c-1.3,0-2.5-0.4-3.4-1.2c-1.2-1.1-2.2-2.4-3.1-3.8c-1.6-2.9-3.8-5.5-6.4-7.7
	c-2.4-1.8-5.4-2.7-8.4-2.6c-4.8-0.1-9.3,2.3-11.9,6.4c-3,4.3-4.5,10.1-4.5,17.5c0,3.2,0.4,6.5,1.2,9.6c0.7,2.7,1.8,5.2,3.4,7.4
	c2.7,4,7.3,6.3,12.1,6.3c3.1,0.1,6.1-0.8,8.6-2.6c2.7-2.1,4.8-4.8,6.2-7.9c0.8-1.8,1.9-3.4,3.3-4.9c1.1-1.2,2.7-1.8,4.3-1.8
	c2,0,3.9,0.9,5.1,2.6C267.6,94.5,268.3,96.4,268.3,98.4z"/>
<path class="st2" d="M283.7,47.8h1.8V36.8c0-3,0.1-5.3,0.2-7c0.1-1.5,0.5-3,1.2-4.4c0.6-1.3,1.6-2.3,2.8-3.1
	c1.2-0.8,2.6-1.2,4.1-1.2c2.2,0,4.3,1,5.8,2.6c1.1,1.2,1.9,2.7,2.2,4.3c0.4,2.4,0.5,4.8,0.5,7.2v12.6h6.1c2-0.1,3.9,0.5,5.4,1.9
	c1.3,1.3,1.9,3,1.9,4.8c0,2.5-0.9,4.2-2.7,5.2c-1.8,1-4.3,1.5-7.6,1.5h-3.1v33.9c0,2.2,0.1,4.4,0.3,6.7c0.1,1.4,0.6,2.7,1.5,3.8
	c1,1,2.4,1.6,3.8,1.5c1.3-0.1,2.7-0.2,4-0.6c1.3-0.3,2.6-0.5,3.9-0.6c1.4,0,2.7,0.7,3.6,1.8c1.1,1.2,1.7,2.8,1.6,4.4
	c0,3-1.5,5.2-4.4,6.8s-7.1,2.4-12.6,2.4c-5.2,0-9.1-1-11.8-2.9c-2.7-1.9-4.6-4.8-5.3-8c-0.9-4.5-1.4-9.1-1.2-13.7V61.2h-2.2
	c-2,0.1-4-0.6-5.5-1.9c-1.3-1.3-2-3-1.9-4.8c-0.1-1.8,0.7-3.6,2-4.8C279.6,48.3,281.7,47.7,283.7,47.8z"/>
<path class="st2" d="M343.5,94.6V110c0,3.7-0.8,6.6-2.4,8.4c-1.5,1.8-3.7,2.8-6,2.8c-2.3,0-4.5-1-5.9-2.9c-1.5-1.9-2.3-4.7-2.3-8.4
	V58.7c0-8.3,2.7-12.4,8.1-12.4c2.8,0,4.7,1,6,2.9c1.2,1.9,1.9,4.8,2,8.6c1.6-3.2,3.6-6.1,6.1-8.6c2.3-2,5.3-3,8.4-2.9
	c3.6,0,7.1,1,10.2,2.9c3.3,1.9,4.9,4.5,4.9,7.7c0.1,2.1-0.7,4.1-2.1,5.6c-1.1,1.3-2.8,2.1-4.5,2.2c-1.5-0.2-3-0.7-4.4-1.2
	c-2-0.8-4.1-1.2-6.2-1.2c-2.2-0.1-4.3,0.7-6,2.1c-1.7,1.7-3,3.9-3.6,6.3c-0.9,3.3-1.5,6.6-1.8,10C343.7,84.4,343.5,89.1,343.5,94.6z
	"/>
<path class="st2" d="M390,37.6c-2.2,0-4.4-0.8-5.9-2.4c-3.3-3.8-3.3-9.4,0.1-13.2c1.5-1.6,3.7-2.5,5.9-2.5c2.1,0,4.2,0.8,5.8,2.3
	c1.7,1.5,2.5,3.8,2.5,6.7c0.1,2.5-0.7,4.9-2.4,6.7C394.3,36.8,392.2,37.7,390,37.6z M398.2,56.7V110c0,3.7-0.8,6.5-2.4,8.4
	c-1.5,1.8-3.7,2.9-6,2.9c-2.3,0.1-4.5-1-5.9-2.9c-1.5-1.9-2.3-4.7-2.3-8.3V57.2c0-3.7,0.8-6.4,2.3-8.3c1.4-1.8,3.6-2.8,5.9-2.8
	c2.3,0,4.5,1,6,2.8C397.4,50.8,398.2,53.4,398.2,56.7z"/>
<path class="st2" d="M475,98.4c-0.1,2.6-0.7,5.1-1.9,7.4c-1.4,2.8-3.3,5.4-5.7,7.5c-2.8,2.5-6.1,4.5-9.6,5.7
	c-4.2,1.5-8.6,2.2-13,2.2c-10.2,0-18.3-3.3-24-10c-5.8-6.7-8.6-15.6-8.6-26.7c-0.1-6.9,1.2-13.7,4-20.1c2.4-5.5,6.4-10.2,11.5-13.4
	c5-3.2,11-4.8,17.9-4.8c4,0,8,0.7,11.8,2.1c3.3,1.2,6.4,3.1,9.1,5.4c2.3,2,4.3,4.4,5.8,7.1c1.2,2.1,1.9,4.5,2,7
	c0,2.1-0.8,4.1-2.2,5.6c-1.4,1.5-3.3,2.3-5.4,2.3c-1.3,0-2.5-0.4-3.4-1.2c-1.2-1.1-2.2-2.4-3.1-3.8c-1.6-2.9-3.8-5.5-6.4-7.7
	c-2.4-1.8-5.4-2.7-8.4-2.6c-4.9,0-8.9,2.1-11.9,6.4c-3,4.3-4.5,10.1-4.5,17.5c0,3.2,0.4,6.5,1.2,9.6c0.7,2.7,1.8,5.2,3.4,7.4
	c2.7,4,7.3,6.3,12.1,6.3c3.1,0.1,6.1-0.8,8.6-2.6c2.7-2.1,4.8-4.8,6.3-7.8c0.8-1.8,1.9-3.4,3.3-4.9c1.1-1.2,2.7-1.8,4.3-1.8
	c2,0,3.9,0.9,5.1,2.6C474.3,94.5,475,96.4,475,98.4z"/>
<path class="st2" d="M579,108.3l-4.3-12.4h-36.3l-4.3,12.7c-1.7,5-3.1,8.3-4.3,10c-1.2,1.7-3.1,2.6-5.8,2.6c-2.3,0-4.5-1-6-2.8
	c-1.7-1.7-2.6-3.9-2.6-6.3c0-1.4,0.2-2.8,0.6-4.2c0.4-1.4,1.1-3.4,2-6l22.8-64.4c0.6-1.8,1.4-4.1,2.3-6.7c0.7-2.2,1.7-4.4,2.9-6.5
	c1-1.7,2.4-3.1,4.1-4.2c3.9-2.1,8.6-2.1,12.5,0c1.7,1,3.1,2.4,4.1,4.1c1.1,1.7,1.9,3.5,2.6,5.4c0.7,1.9,1.6,4.5,2.7,7.7l23.3,64
	c1.8,4.9,2.7,8.4,2.7,10.6c0,2.4-1,4.6-2.6,6.3c-1.6,1.8-3.8,2.9-6.2,2.9c-1.3,0-2.5-0.3-3.7-0.8c-1-0.6-1.9-1.4-2.6-2.3
	c-0.9-1.4-1.7-2.9-2.2-4.5C580.3,111.6,579.6,109.9,579,108.3z M543.2,80.8h26.7l-13.4-40.9L543.2,80.8z"/>
<path class="st2" d="M619.2,57.7l13.4,41.9l14.5-43.7c0.7-2.6,1.9-5.2,3.4-7.5c1.2-1.5,3.1-2.3,5-2.2c2.1,0,4,0.8,5.4,2.4
	c1.4,1.5,2.2,3.4,2.2,5.5c0,1-0.2,1.9-0.4,2.9c-0.2,1-0.6,2-0.9,3c-0.3,1-0.7,2-1.2,3.2l-16,43.9c-0.4,1.3-1,2.9-1.7,4.8
	c-0.6,1.7-1.4,3.4-2.4,5c-0.8,1.3-1.9,2.4-3.2,3.2c-1.4,0.8-3,1.2-4.7,1.2c-2,0.1-4-0.5-5.6-1.8c-1.3-1.1-2.4-2.4-3.1-3.9
	c-0.7-1.4-1.8-4.2-3.4-8.4l-15.8-43.5c-0.4-1.1-0.7-2.2-1.1-3.2c-0.4-1.1-0.7-2.2-1-3.3c-0.2-0.9-0.4-1.9-0.4-2.9
	c0-1.3,0.4-2.6,1-3.7c0.7-1.2,1.7-2.3,2.9-3c1.2-0.8,2.6-1.2,4-1.2c2.8,0,4.7,0.9,5.7,2.6C617.2,51.7,618.4,54.7,619.2,57.7z"/>
<path class="st2" d="M719.8,88.3h-32.5c0,3.8,0.7,7.6,2.3,11.1c1.2,2.9,3.3,5.4,5.9,7.2c2.4,1.6,5.2,2.5,8.1,2.4
	c1.8,0,3.7-0.2,5.4-0.8c1.7-0.6,3.3-1.4,4.8-2.4c1.5-1.1,2.9-2.3,4.3-3.6c1.3-1.3,3-3,5.1-5.1c1-0.9,2.3-1.3,3.7-1.2
	c1.5-0.1,3,0.5,4.1,1.5c1.1,1.2,1.7,2.8,1.6,4.4c-0.1,2.1-0.7,4.1-1.8,5.8c-1.4,2.5-3.2,4.6-5.3,6.4c-2.7,2.2-5.7,3.9-9,5.1
	c-4,1.4-8.2,2.1-12.4,2c-10.7,0-19-3.4-24.9-10.1c-5.9-6.8-8.9-15.9-8.9-27.5c0-5.1,0.7-10.3,2.2-15.2c1.3-4.4,3.5-8.5,6.4-12
	c2.8-3.3,6.3-6,10.4-7.7c4.3-1.8,9-2.7,13.6-2.7c6.5,0,12.1,1.5,16.7,4.6c4.5,2.9,8.1,7,10.4,11.8c2.3,4.6,3.5,9.6,3.5,14.7
	c0,4.6-1.2,7.7-3.6,9C727.5,87.6,724.2,88.3,719.8,88.3z M687.3,77.8h30.1c-0.4-6.3-1.9-11-4.6-14.2c-2.6-3.1-6.5-4.8-10.5-4.7
	c-4-0.1-7.7,1.7-10.2,4.8C689.5,66.9,687.9,71.6,687.3,77.8z"/>
<g>
	<defs>
		<rect id="SVGID_3_" x="287" y="79.9" width="628.2" height="179.3"/>
	</defs>
	<clipPath id="SVGID_4_">
		<use xlink:href="#SVGID_3_"  style="overflow:visible;"/>
	</clipPath>
	<g class="st3">
		<path class="st4" d="M397.7,127.6l-0.2-5.6c-1.6-4.4-11.5-4-14.9-4c-34.8,0-50.1,20.3-50.1,33.3c0,7.4,5,14.4,28.9,15.3v0.5
			c-31,9.7-40.3,26.7-40.3,35.6c0,5.3,2.9,13.4,7.4,15c4.6,1.7,9.5,2.7,14.4,2.9c21.6,0.5,35.3-11.3,38.9-15.1
			c6.1-6.4,6.6-11.7,6.1-21.3c-7,4.9-13.6,11.2-21.2,14.1c-10.7,4.1-19.1,5.1-24.9,4.6c-5.8-0.4-8.9-1.9-8.9-4.3
			c0-4.8,11.2-19.8,38.2-25.4c2.1-0.4,8.4-1.7,10-3.5c1.5-1.5,3.9-6.2,3.9-8.6c0-3.1-6-2.9-7.1-2.9c-33.9,1-33.2-2.9-33.5-5.1
			c-0.6-4.6,13.8-17.5,38.8-17.3c-2,2-7.3,7.6-7.3,9.4c0,0.8,0.7,1.5,1.2,1.3c1.8-0.4,7.9-5.7,14.8-8.6
			C397.8,135.7,398,135.2,397.7,127.6z"/>
		<path class="st4" d="M424.9,185.8c-4.2,4.8-12.3,13.3-18.1,13.3c-2.9,0-4.3-2.7-5.3-5.7c-0.5-3.1-0.3-6.2,0.7-9.2
			c22.9-27.9,25.6-39.6,26.4-52.2c0.1-1.7-0.3-4.9-2.1-4.9c-3.4,0-13.4,12.4-22.7,26.8c-7.4,11.9-11.4,25.6-11.6,39.6
			c0,7.8,1.7,17.3,9.4,17.3c9.1,0,19-13.4,24.8-21L424.9,185.8z M404.3,171.7c5-13.7,11-25.6,16.1-28.8c-1.9,7.6-8.4,20.3-15.9,29.1
			L404.3,171.7z"/>
		<path class="st4" d="M435,183.7c2.9-8.8,9-15.1,14.2-16.9c0.7-0.3,1.3,0.5,1.3,1.5C450.6,170.5,444.3,179.7,435,183.7z
			 M462.6,184.7c-5.6,5.6-14.4,15.3-21.9,15.3c-3.4,0-6.8-1.7-6.5-6.8l0.2-2.9c20.2-8.4,25.4-18.2,25.4-24.7c0-5.3-4.2-6.4-7.6-6.4
			c-13.7-0.1-29,17.7-28.6,35.1c0.2,8.8,3.8,17.4,11.5,17.4c10.4,0,22-12.5,28.5-21.9L462.6,184.7z"/>
		<path class="st4" d="M482.6,176.1c0.1,2.5,1.2,5.8,3.6,5.8c2.9,0,11.2-10.2,11.2-17.5c0-4-1.5-6.1-4.7-6.1
			c-5.9,0-16,7.2-20.8,11.7c-6.8,6.5-10,10.6-10,21.8c0,9.8,3.9,19.4,12,19.4c10,0,21.8-13.2,28.3-21.8l-1.3-5.2
			c-6.1,6-15.3,15.3-23.3,15.3c-5.5,0-8-4.1-8-7.2c0-3.7,1.9-5.8,4.2-7.8L482.6,176.1z"/>
		<path class="st4" d="M530,153.4c1.1-1.9,4.1-6.2,4.1-8.6c0-2.1-2-2.5-3.4-2.5c-6.1,0-8.4,6.2-11.6,11.7
			c-11.3,0.5-12.1,2.7-17.8,14.4l-1.2,2.4c5.6-1.1,3.6-0.5,10-0.5c-3.9,8.4-9.7,15.1-16,21.3l1.2,5l5.4-5.4l0.2,0.3
			c-1.4,3.8-2.7,8.9-2.7,13.3c0,5.3,2.5,8.9,6.6,8.9c9,0,20.4-14.2,26.6-21.4l-0.5-5.8c-11,9.8-14.8,13.8-18.1,13.8
			c-2.4,0-3.2-1.7-3.2-4.6c0-8,6-18.9,9.6-24.7c11.6,1,12.5-4,17.4-16.6L530,153.4z"/>
		<path class="st4" d="M549.1,177.6l0.2,0.3c-4.2,6.4-9.7,13.4-9.7,22.4c0,5.1,2.7,10.2,7.2,10.2c6,0,18.1-14.7,22.1-20.5l-0.7-4.9
			c-3.5,3.3-10.1,11.9-14.6,11.9c-1.9-0.2-3.3-1.8-3.3-3.7c0-5.3,5.2-11.8,8.2-15.1c2.4-2.5,4.4-4.5,4.4-8.6c-0.2-2.5-1.1-4.9-2.5-7
			c-1.1-1.6-6.8,0-16.8,1.7c0.5-1.2,0.7-2.4,0.7-3.7c0.1-1.1-0.8-2.1-1.9-2.3c-2.5,0-13.3,9.6-13.3,19.1c0,2.8,0.6,3.8,2.9,4.1
			c-1.9,3.5-4.2,6.8-7,9.7l0.4,5.8c4.5-5.7,9-9.2,12.7-16.5L549.1,177.6z"/>
		<path class="st4" d="M590,173.6c0.4,0.3-4.5,8.6-4.5,15.6c0.1,2.1,0.5,4.2,1.3,6.1c-2.4,2.8-4.6,5.3-8.1,5.3
			c-2.6,0-4.6-1.2-4.6-5.1c0.2-4.4,1.7-8.7,4.3-12.2C581.5,179.4,586.4,176.3,590,173.6z M609.4,184c-3.3,3.1-6.2,8.1-10.9,7
			c2-5.2,4.1-9.8,4.1-15.7c0-4-0.6-6.7-3.8-7.8c1.2-0.8,2.4-1.6,2.4-3.6c0-3.6-3.5-4.9-5.8-4.8c-6.4,0.4-14,4-19.7,9.8
			c-5.9,5.7-9.8,12.4-9.6,22.3c0.4,12.1,5.5,19,11,19c6.6,0,11.8-4.3,16.2-10c7.7,0,12.3-3.2,17.1-10.8L609.4,184z"/>
		<path class="st4" d="M652.2,189.8c-1.9,2-6.5,6.6-9.1,6.6c-1,0-1.9-1.2-1.9-2.4c0-9.2,13-19.2,13-24.4c-0.3-2.4-0.8-4.8-1.6-7.2
			c-0.6-1.9-1.3-2.5-1.7-2.5c-3.1,0-22.5,16.3-30.9,29.9c-0.4,0.7-1.4,1.9-2.1,1.9c-0.7-0.1-1.2-0.7-1.2-1.5
			c0-3.2,13.3-16.6,13.3-21.8c0-0.8,0.5-2.7-5.8-2.9c-1.8,0-2.7,0.1-4.1,1.6c-6.1,6.5-12.8,19.9-12.4,29.1
			c0.1,4.5,1.3,12.9,5.9,12.9c2.9,0,6.7-6.5,8.3-9c4.5-7.5,9.9-14.3,16.2-20.3l0.2,0.3c-3.4,6.1-9.1,14.9-9.1,22.9
			c0,4.5,1.9,8.8,5.9,8.8c7.7,0,18.6-16.3,24.1-22.6l-0.8-5.8L652.2,189.8z"/>
		<path class="st4" d="M681.5,161c4.5,0,8.4-6.5,8.4-11.8c0-2.4-1.6-4.1-3.5-4.1c-4.1,0-9.2,4.8-9.2,10.2
			C677.3,158.5,679,161,681.5,161z M686.5,187.1c-4.2,3.8-9.7,10.9-15.3,10.9c-4.8,0-6.4-2.9-5.6-8.4c4.4-3.8,14.9-15.7,14.9-22.3
			c0-2.9-2.9-3.7-4.6-3.7c-6.3,0-19.5,15.8-19.5,32c0,6.8,2.9,15.8,9.1,15.8c8,0,17.3-12,22.1-19.3L686.5,187.1z"/>
		<path class="st4" d="M707.5,176.1c0.1,2.5,1.2,5.8,3.6,5.8c2.9,0,11.2-10.2,11.2-17.5c0-4-1.5-6.1-4.7-6.1
			c-5.9,0-16,7.2-20.8,11.7c-6.9,6.5-10,10.6-10,21.8c0,9.8,3.9,19.4,12,19.4c10,0,21.8-13.2,28.3-21.8l-1.3-5.2
			c-6.1,6-15.3,15.3-23.3,15.3c-5.5,0-8-4.1-8-7.2c0-3.7,1.9-5.8,4.2-7.8L707.5,176.1z"/>
		<path class="st4" d="M755.3,192.7c-5.2,4.9-9.3,8.9-16,7.4c6.7-5.2,13.7-13.3,13.7-24.2c0-5.8-1.6-10.4-2-15.4
			c-0.3-3.7-1-4.9-4.1-4.9c-3.8,0-5.8,4.3-6,8.6l-22.9,26.4c-0.8,1.1-2.5,2.9-2.5,4.6c0,1.2,0.7,2.5,1.8,2.5c1.1,0,1.7-1,2.3-1.7
			c1.4,8.3,8.3,14.6,16.8,15.1c8.4,0.5,19.9-11.5,26.4-19.7l-1-5L755.3,192.7z M740.9,171.5c0.6,4.5,1.1,8.1,1.4,10.9
			c-0.3,7.7-2,10-8.3,14.9c-2-3.4-4.3-7.6-8.2-7.8L740.9,171.5z"/>
	</g>
</g>
<path class="st5" d="M391.9,138.1c-6.9,2.9-13,8.2-14.8,8.6c-0.4,0.1-1.2-0.5-1.2-1.3c0-1.9,5.3-7.4,7.3-9.4
	c-25-0.3-39.4,12.6-38.8,17.3c0.3,2.1-0.3,6,33.5,5c1,0,7.1-0.1,7.1,2.9c0,2.4-2.4,7.2-3.9,8.6c-1.6,1.7-7.9,3.1-10,3.4
	c-27,5.6-38.2,20.6-38.2,25.4c0,2.4,3.2,4,8.9,4.3c5.7,0.3,14.2-0.5,24.9-4.6c7.6-2.9,14.2-9.2,21.2-14.1c0.5,9.6,0,14.9-6.1,21.3
	c-3.6,3.8-17.3,15.7-38.9,15.1c-4.9-0.2-9.8-1.2-14.4-2.9c-4.5-1.6-7.4-9.7-7.4-15c0-8.9,9.4-25.9,40.3-35.6v-0.4
	c-23.9-1-28.9-7.8-28.9-15.3c0-13,15.3-33.4,50.1-33.4c3.4,0,13.3-0.4,14.9,4l0.2,5.6C398,135.2,397.8,135.7,391.9,138.1z"/>
<path class="st5" d="M426.4,189.8c-5.8,7.6-15.7,21-24.8,21c-7.7,0-9.4-9.4-9.4-17.3c0.2-14,4.2-27.7,11.6-39.6
	c9.3-14.5,19.3-26.8,22.7-26.8c1.8,0,2.2,3.2,2.1,4.9c-0.7,12.6-3.5,24.3-26.4,52.2c-1,2.9-1.3,6.1-0.7,9.2c1,3.1,2.4,5.7,5.3,5.7
	c5.8,0,13.9-8.5,18.1-13.3L426.4,189.8z M404.5,172c7.5-8.8,14-21.5,15.9-29.1c-5.2,3.2-11.2,15.1-16.1,28.8L404.5,172z"/>
<path class="st5" d="M463.6,189.7c-6.4,9.4-18,21.9-28.5,21.9c-7.7,0-11.3-8.6-11.5-17.4c-0.4-17.4,14.9-35.2,28.6-35.1
	c3.4,0,7.6,1.1,7.6,6.4c0,6.5-5.2,16.3-25.4,24.7l-0.2,2.9c-0.3,5.1,3.2,6.8,6.5,6.8c7.5,0,16.3-9.7,21.9-15.3L463.6,189.7z
	 M450.5,168.3c0-1-0.5-1.7-1.3-1.5c-5.3,1.7-11.4,8.1-14.2,16.9C444.3,179.7,450.6,170.5,450.5,168.3z"/>
<path class="st5" d="M473.7,184.5c-2.3,2.1-4.2,4.1-4.2,7.8c0,3.1,2.5,7.2,8,7.2c8,0,17.2-9.3,23.3-15.3l1.3,5.2
	c-6.4,8.6-18.3,21.8-28.3,21.8c-8.1,0-12-9.6-12-19.4c0-11.2,3.2-15.3,10-21.8c4.7-4.5,14.9-11.7,20.8-11.7c3.3,0,4.7,2.1,4.7,6.1
	c0,7.3-8.3,17.5-11.2,17.5c-2.4,0-3.5-3.3-3.6-5.8L473.7,184.5z"/>
<path class="st5" d="M536.6,154.1c-5,12.6-5.8,17.5-17.4,16.6c-3.6,5.8-9.6,16.7-9.6,24.7c0,2.9,0.7,4.6,3.2,4.6
	c3.4,0,7.2-4,18.1-13.8l0.5,5.8c-6.2,7.2-17.6,21.4-26.6,21.4c-4.1,0-6.6-3.6-6.6-8.9c0-4.4,1.4-9.4,2.7-13.3l-0.2-0.3l-5.4,5.4
	l-1.2-5c6.3-6.1,12.1-12.9,16-21.3c-6.4,0-4.4-0.5-10,0.5l1.2-2.4c5.7-11.7,6.5-13.8,17.8-14.4c3.2-5.4,5.5-11.7,11.6-11.7
	c1.4,0,3.4,0.4,3.4,2.5c0,2.4-3.1,6.8-4.1,8.6L536.6,154.1z"/>
<path class="st5" d="M538.1,180.6c-3.7,7.3-8.1,10.8-12.7,16.5l-0.4-5.8c2.7-2.9,5.1-6.2,7-9.7c-2.2-0.3-2.9-1.3-2.9-4.1
	c0-9.6,10.7-19.1,13.3-19.1c1.1,0.1,2,1.1,1.9,2.3c0,1.3-0.3,2.5-0.7,3.7c9.9-1.7,15.7-3.3,16.8-1.7c1.4,2.1,2.3,4.5,2.5,7
	c0,4.1-2,6.1-4.4,8.6c-3.1,3.3-8.2,9.8-8.2,15.1c-0.1,1.9,1.4,3.5,3.3,3.7c4.5,0,11.2-8.6,14.6-12l0.7,4.9
	c-4,5.7-16.1,20.5-22.1,20.5c-4.4,0-7.2-5.2-7.2-10.2c0-9,5.5-16.1,9.7-22.4l-0.2-0.3L538.1,180.6z"/>
<path class="st5" d="M610.5,189.5c-4.7,7.6-9.4,10.8-17.1,10.8c-4.4,5.8-9.6,10-16.2,10c-5.5,0-10.6-6.9-11-19
	c-0.2-10,3.7-16.6,9.6-22.3c5.7-5.8,13.3-9.4,19.7-9.8c2.3-0.1,5.8,1.2,5.8,4.8c0,2-1.3,2.8-2.4,3.6c3.2,1.1,3.8,3.8,3.8,7.8
	c0,5.8-2.1,10.5-4.1,15.7c4.6,1.1,7.6-4,10.9-7L610.5,189.5z M578.4,183.3c-2.6,3.6-4.1,7.8-4.3,12.2c0,3.8,2,5.1,4.6,5.1
	c3.5,0,5.7-2.5,8.1-5.3c-0.8-1.9-1.2-4-1.3-6.1c0-6.9,5-15.3,4.5-15.5C586.4,176.3,581.5,179.4,578.4,183.3z"/>
<path class="st5" d="M658.6,183.2l0.8,5.8c-5.6,6.2-16.5,22.6-24.1,22.6c-4,0-5.9-4.3-5.9-8.8c0-8,5.7-16.7,9.1-22.9l-0.2-0.3
	c-6.3,6-11.8,12.9-16.2,20.3c-1.6,2.5-5.5,9-8.3,9c-4.6,0-5.8-8.4-5.9-12.9c-0.3-9.2,6.3-22.6,12.4-29.1c1.4-1.5,2.3-1.6,4.1-1.6
	c6.3,0.3,5.8,2.1,5.8,2.9c0,5.2-13.3,18.6-13.3,21.8c-0.1,0.7,0.4,1.4,1.2,1.5c0.7,0,1.7-1.2,2.1-1.9c8.4-13.6,27.9-29.9,30.9-29.9
	c0.4,0,1,0.7,1.7,2.5c0.8,2.3,1.3,4.7,1.6,7.2c0,5.2-13,15.3-13,24.4c0,1.2,0.8,2.4,1.9,2.4c2.5,0,7.2-4.6,9.1-6.6L658.6,183.2z"/>
<path class="st5" d="M687.5,192.2c-4.7,7.3-14,19.3-22.1,19.3c-6.2,0-9.1-9-9.1-15.8c0-16.2,13.2-32,19.5-32c1.8,0,4.6,0.8,4.6,3.7
	c0,6.6-10.4,18.5-14.9,22.3c-0.8,5.4,0.7,8.4,5.6,8.4c5.6,0,11.1-7,15.3-10.9L687.5,192.2z M677.3,155.3c0-5.4,5.1-10.2,9.2-10.2
	c1.9,0,3.5,1.7,3.5,4.1c0,5.3-3.9,11.8-8.4,11.8C679,161,677.3,158.5,677.3,155.3z"/>
<path class="st5" d="M698.6,184.5c-2.3,2.1-4.2,4.1-4.2,7.8c0,3.1,2.5,7.2,8,7.2c8,0,17.2-9.3,23.3-15.3l1.3,5.2
	c-6.4,8.6-18.3,21.8-28.3,21.8c-8.1,0-12-9.6-12-19.4c0-11.2,3.2-15.3,10-21.8c4.7-4.5,14.9-11.7,20.8-11.7c3.3,0,4.7,2.1,4.7,6.1
	c0,7.3-8.3,17.5-11.2,17.5c-2.4,0-3.5-3.3-3.6-5.8L698.6,184.5z"/>
<path class="st5" d="M761.6,186.6l1,5c-6.4,8.1-17.9,20.2-26.4,19.7c-8.4-0.6-15.3-6.8-16.7-15.1c-0.6,0.8-1.4,1.7-2.3,1.7
	c-1,0-1.8-1.3-1.8-2.5c0-1.7,1.7-3.6,2.5-4.7l22.8-26.5c0.2-4.4,2.2-8.6,6-8.6c3.2,0,3.8,1.2,4.1,4.9c0.4,5,2,9.6,2,15.4
	c0,10.9-7,19-13.7,24.2c6.7,1.5,10.9-2.5,16-7.4L761.6,186.6z M725.7,189.4c3.9,0.3,6.2,4.4,8.2,7.8c6.3-4.9,8-7.2,8.3-14.9
	c-0.3-2.8-0.7-6.4-1.4-10.9L725.7,189.4z"/>
</svg>
