<svg class="navbar__logo-icon" xmlns="http://www.w3.org/2000/svg" viewBox="0 0 199.3 19.5">
	<path d="M132.8,0a3.6,3.6,0,0,0-3.6,3.6V19.5h17a3.6,3.6,0,0,0,3.6-3.6V0h-17Zm13.1,14.3a1.3,1.3,0,0,1-1.4,1.4H133.1V5.2a1.3,1.3,0,0,1,1.4-1.4h11.4Z"></path>
	<path d="M158.2,0a3.6,3.6,0,0,0-3.6,3.6V19.5h17a3.6,3.6,0,0,0,3.6-3.6V0h-17Zm13.1,14.3a1.3,1.3,0,0,1-1.4,1.4H158.6V5.2A1.3,1.3,0,0,1,160,3.8h11.4Z"></path>
	<polygon points="22.6 15.7 22.6 19.5 26.6 19.5 26.6 0 22.6 0 22.6 15.7"></polygon>
	<path d="M35.7,0a3.6,3.6,0,0,0-3.6,3.6V19.5H36V11.7H47.4V7.9H36V5.2a1.3,1.3,0,0,1,1.4-1.4H51.5V0H35.7Z"></path>
	<path d="M185.3,3.8h14.1V0H183.5a3.6,3.6,0,0,0-3.6,3.6V19.5h3.9V11.7h11.4V7.9H183.9V5.2A1.3,1.3,0,0,1,185.3,3.8Z"></path>
	<path d="M54.4,3.6V15.9A3.6,3.6,0,0,0,58,19.5H73.9V15.7H59.7a1.3,1.3,0,0,1-1.4-1.4V11.7H69.6V7.9H58.3V5.2a1.3,1.3,0,0,1,1.4-1.4H73.9V0H58A3.6,3.6,0,0,0,54.4,3.6Z"></path>
	<path d="M3.9,14.3V0H0V15.9a3.6,3.6,0,0,0,3.6,3.6H18.3V15.7H5.3A1.3,1.3,0,0,1,3.9,14.3Z"></path>
	<path d="M96.2,0H82.8a3.6,3.6,0,0,0-3.6,3.6V19.5h3.9V13.8H96.2a3.6,3.6,0,0,0,3.6-3.6V3.6A3.6,3.6,0,0,0,96.2,0Zm-.3,5.5V8.6a1.3,1.3,0,0,1-1.4,1.4H83.1V5.2a1.3,1.3,0,0,1,1.4-1.4h9.9a1.3,1.3,0,0,1,1.4,1.4Z"></path>
	<path d="M124.4,10.2V3.6A3.6,3.6,0,0,0,120.8,0H107.4a3.6,3.6,0,0,0-3.6,3.6V19.5h3.9V13.8h9.1l3.5,5.7h4.4l-3.5-5.7A3.6,3.6,0,0,0,124.4,10.2Zm-3.9-4.7V8.6a1.3,1.3,0,0,1-1.4,1.4H107.7V5.2a1.3,1.3,0,0,1,1.4-1.4h10a1.3,1.3,0,0,1,1.4,1.4Z"></path>
</svg>