<svg 
    class="navbar__svg navbar__svg--badge" 
    xmlns="http://www.w3.org/2000/svg" 
    viewBox="0 0 560.79 353.58" 
    aria-hidden="true" 
    focusable="false"
>
    <path fill="#fed100" d="M552.06 66.6s-5.09-31.86-40.35-42C405.45-5.85 159.54-10.48 49 24.62 13.16 36 8.65 66.6 8.65 66.6 0 105.68 0 174.28 0 176.25s0 70.57 8.65 109.65c0 0 8 32.1 40.35 42 107.06 32.68 346.78 35.85 462.71 0 35.48-11 40.35-42 40.35-42 8.68-39.08 8.65-107.69 8.65-109.65s1.48-69.25-8.65-109.65z"></path>
    <path fill="#fff" d="M82.8 158.84l8.78-3.71 3.71-.06 1.23-.68 7.67-1.32 4-1.26s2.4 0 5.24-.08c4.55-.18 10.49-1 11.19-.4l8 .46 7.16 2.45 5.85 2.82 10.87 7.84-2.83 3.89.43 2.41 1.9 3.8 2.31 6.86s2.45 9.79.49 15.24a10 10 0 0 1 3.25 1.38 33.53 33.53 0 0 1 2.65 2.39c.34.44 4.92-7.47 4.92-7.47l-.25-1.1a8.67 8.67 0 0 1 .28-2.53l1.27-2.19 5.4-5.54 5.08-.2s-.23-2.1 1.62-1.37a25.6 25.6 0 0 1 13.86 11.36l3.7 1 8.64 7.49 6 5.14 6.93-1.59s6.18-2.1 19-3.89c4.46-.63 9.77-.84 15.85-1.43l10.44 1.62s8.73 1 29.11 8.56l4.34 1.38 11.41-1.66s9.66.88 20.2 8.42l.76.14.9-.14 11.27-2.5s9.2-4.75 16.72-4.7c0 0 12-.1 17.75 2.4 0 0 12.8 9.45 19 13.65l4.34 1.23a11.59 11.59 0 0 1 3.11-1.38c1.84-.57 4.52-.89 8-2.92 7.4-4.36 16.27-9.35 18.21-9.94s13-8.61 13-8.61l6.7 1 17.05-4.2 2.5 2.84 9.51-.54 1.57 9-8.27 8.27-2.77 6.46-4.63 9.5-2.66.38-2-1.21-5.93 3.87-5.17-.29-3.73 3.07-2.93 4-18 4.4a17.66 17.66 0 0 1-3.05.51h-1.74c-.23.76-1.24.53-1.8.83-.2.13-.43.48-.71.62s-.68.08-1.11.19c-1 .28-1.68 1.51-2.58 2.06-2.52 1.54-5.8.6-8.5.27-3.78-.48-7.59-.42-11.37-.85s-7.38-1.07-11.09-1.48l-8.22 2.84-27.54-8-31 3.71-73.37-2.74-87.14.59-49.81-5.39L77 230.12l-8.41-33.2.19-11.16-2.27-2.86s-.56-1.78-.34-2.06 1.24-1.36 1.24-1.36l2.18-.81 5.23-9.82 5.78-8.54s-.15-.91 2.2-1.47z"></path>
    <path d="M123.39 182.58c-1.33-1.12-2.08-2.44-3.08-2.53-2.39-.2-3.53-3.56-6.27-3.13-3.87 2.47-5.35 8-9.16 10.86-.14 1.78.62 2.58 1.19 3.74a2 2 0 0 0-1.19 2c.08.73-1 .48-.4 1.14a2 2 0 0 0 1.08-.72c-.4-1.51 2-.79 1.09-2.36.34-1.5.91.49 1.64 0 2-.72 2.91.73 4.62 1 1.13-1 1 1.45 2.5.61.4 1.2 1.59.36 2.16 1.26-.11 1.76.75 3 .8 4.65 0 0 0 .18.13.18s.16-.18.16-.18c0-2.06-1.32-4-.4-5.91-.92-.91.68-.91 1-1.45 1-.91 2.39-.73 1.64.84a4.13 4.13 0 0 0 3 1.33c.57-1-1-1.15-.52-1.87.86-.49 1.09.78 1.88.54 0-.72-.85-1.14-.91-1.87a.88.88 0 0 0-1.14 1.33c-1 .12-1.14-1.45-2.16-.9.57-.49.63-1.54 1.48-1.27s.45-1.23 2.12-.93 1-2.51 2.83-3c.4-2.87-2.76-2.24-4.09-3.36zm-9.23 3.75c-1.42.6-4.34 1.48-4.5 1.14s3.38-1.59 3.93-2.47 1.33-2 1.53-2.29 2.5 1.64 3.82 2.72c.88.71-3.36.57-4.78.9zM82.45 174.86c0 1.45-1.54 1.45-1.2 3 .08.28.57.36.69-.12.51-1.15 1.19.18 1.48.6a3.87 3.87 0 0 0 1.76-1.75c.51 1.46 1 3.44 2.73 3.93-.11 1.62 2.68.24 1.65 1.68-1.7-.3-4-.66-5.57.3.79.91 3-.41 4.21 0 .85.73 2.62.55 3.7.19.51-.72 2.16-.85 1.65-2.05 1.94.24-.11-2.42 1.88-2.59-.57-1-1.48.72-1.65-.31 0-.78.79-.66 1.25-.84a5.44 5.44 0 0 0-1.25-2.17 8.81 8.81 0 0 0-7.78-1.19c-.52-.72-1.66-.37-2.34-.24-.34 1 .8-.31 1.08.54 0 .42.12.91-.11 1.15-.76.6-1.44-.43-2.18-.13zm1 1.57c-.18.22-.26.25-.47.06-.71-.8 1.17-.95.44-.06zm9.68 2.9c-.17-.42.39-.36.57-.54a4.49 4.49 0 0 1-1.09 2.29c-.45.73-1.37.61-1.94.61a5 5 0 0 0 2.43-2.36zm-4.13-2.9c1.46-.18.53 1-.33 1.09s-.02-1.09.33-1.09zM137.39 164.85c-.53.34-4 3.92-4.11 6.4.86.12.8 1.09 1.37 1.57.29.3 1.08 0 .8.72 1.37.18.06 1.81 1.25 2.17 1.54 1 .46-1.26.57-1.56.23 0 .34.3.51.41a3.45 3.45 0 0 0 3.31-.72 24.34 24.34 0 0 0 .68-3.44c-.68-1.2-.51-3.19-2.05-3.62.45-.72 1 .19 1.48-.48a8.7 8.7 0 0 1 1.37 4.1c1.76.06 1-1.75 2.21-2.65a58.94 58.94 0 0 0-5.46-3.14 1.92 1.92 0 0 0-1.93.24zm0 5c-.43.63-.65.81-1 .6a.78.78 0 0 1-.41-.9c.02-.55 1.93-.55 1.41.25zM162.15 258.83c2.58-.79 8.42.1 8.42-1.32-.85-.91-6.67-.81-7.75-.84-4.42-.14-8.84.36-13.25.66-1.93.12-3.79 0-5.7 0s-4.63-.73-6.52-.41c-2.83.49-6-1.43-9-.58.26 1.09 6.4 1 7.38 1.59 1.55.93 1.27 2.51 3.54 2.52a49 49 0 0 0 6.32-.08 39.65 39.65 0 0 1 6.89 0c0 1.1 2.83 1.26 3.31.6.95.91 3.73 0 4.79-.31 1.55-.4-.33-1.25 1.57-1.83zM148.31 264.63c-.45-.07-1.59.45-2.36.36a60.74 60.74 0 0 1-6.72-.83c-4.23-1-6.8-2.1-11.29-1.83-.83 1.13 3.41.6 4.1 1.23 1 .86 3.51 1.08 4.25 1.39 1.42.59 2.5.63 3.37 2.08.64 1.05 3.3 1.9 4.16.79.54.55 2.31-1.05 2.55-1.14 1.13-.46 3.2.63 4.54.7 1.63.09 10 .06 10.5-1.72.1.15 6.93.18 7.11-.62-6.68-1.4-13.46-.29-20.21-.41zM169.09 264.93c-.11 1.2 1.48.55 2 .73a2.27 2.27 0 0 0-2-.73zM162.09 271.27c-.91.84-13.3-1.32-14.86-.25-4.32 3-11.51-4.13-13.39-1.55-.27.38 2.77 1.31 3.27 1.3 2 0 2.51.92 4.06 1.73.92.48 6.5 2 6.81.9.46-1.65 4.43.66 5.61.63 1.69 0 3-1.4 4.62-1.85.49-.14 3.94-.3 4.17.11.66-1.81 2.31 1.09 3.3-.3-1.27.01-2.28-1.09-3.59-.72zM479.52 241.89c-1-.84-2.5-.16-3.7-.55-.52 1 3.73 1.6 4.13 1.71 1.64.43 3.26 1.62 4.74 1.61-.06 0 3.16.12 2.74-.65s-6.86-2.54-7.91-2.12zM454.93 257c1.25.66 5.55-.65 8.64-1.16 1.55-.26 7.48 1 8.42-.72.74-1.38 3.25-1.45 3.15-4.1a27.32 27.32 0 0 0-7.33-3.19c-1.68-.47-4.84 0-6.24-.8-2.63-1.56-6-1.87-9.37-1.62 0 1.06 9.92 3 11.05 2.72.21.57 4 1.68 1.63 2.2s1.11 2.5 1.21 3.17a49.87 49.87 0 0 0-5.29 2.5c-1.71.43-3.11-.84-4.79-.61-3.77 1-7.83.7-11.49 1.75 1.35 1.69 3.94-.59 5.35 0 1.8 1.22 3.49-.33 5.06-.14zM419.29 256.44c.6 0 1.35.41 2-.62.3-.47 1 1.35 3.72.33.76-.28 2.16.45 3.51.21.22-.63-11-2.83-11.33 0 .68.97 1.51.08 2.1.08zM348.76 257c-3.41-2-7.83 1-11.76 1.43-4.39.5-8.93-1.27-13.42-.86-5.17.47-10.65.1-15.92.27-5 .18-10.26.47-15.2-.54-1.91-.78-4 .09-6-.23a47.85 47.85 0 0 0-7-.49c-5.7-.14-11.39-.59-17.09-.61-5.36 0-10.6.45-15.93.89-5 .42-11.25-.17-16 1.4 1.91.86 9.69.78 11.39-.23s6.35 0 8.12.11a36.61 36.61 0 0 0 5.5-.4c2.28-.23 4.41.45 6.63.21 3.53-.38 8.06-1.86 11.43-.64 2.62 1 6.2.24 8.6.8a16.46 16.46 0 0 0 4.46.32c1.55-.17 4.87.86 6 .14 1.51 1.06 3.61.67 5 1.32a3.13 3.13 0 0 0 1.69-.05c1.36-.18 1.4 1.25 2.17 2 2.31 1.24 3.37.48 5.5.64 1.16.09 3-.53 3.94.81 0-1.19 2.4-1 3-.7 1.94 1 4.72-.84 5.88-2.31 2 .73 4.18-.51 5.94-.31a26.35 26.35 0 0 0 6.15-.2c2.87-.43 10.15 1 11.9-.19.17-.12 2.68-1.08 3.19-1.26 1.71-.57 3.41-.06 5.05.51-.38-1.41-2.36-.9-3.22-1.83zM368.57 261.61c.63 1.15 4.95 2.81 6.8 2.65a15.34 15.34 0 0 0 2.33-.27c.54-.44 2.51.86 3.45.94 1.17.53 6.13-.52 7.08-1.17 1.45-1 2.46.78 4.08.05 2.1-.95-4.1-1.16-4.57-1.19a105.28 105.28 0 0 1-10.64-.62c-2.59-.39-18.09-4.37-18.66-2.72 1.97.82 7.88 3.2 10.13 2.33zM436.89 259.56c-.86.79-2.24 0-2.51.7-.58-1-6.5-1-7.87-.84-2.5.2-7.33-1.62-9.41.79-.6.7-.86 1.62-1.56 2.24-1.17 1-4 1.25-5.39 1.92-1.12.51-8.66-.13-8.5 1 1.82.49 3.49-.32 5.29.06 1.44.3 3.17.58 4.48.79 3.39.58 4.51-1.89 7.06-3.37 1.72-1 2.62-.76 4.25-.31s2.85-.94 4.31-1.08c2.14-.91 10.59 0 11.6-1.28.41-1.09-1.38-.5-1.75-.62zM407.91 260.59a1.07 1.07 0 0 0 .11-1c-3 .44-6.38.62-8.88 2.6.52.47 4.25.17 5.35.6 0-.62 2.62-2.27 3.42-2.2zM293.14 266.37c1 1.16 4.15 1.17 5.43 1.46s5.26 3.4 6.19 3c2.36 2.5 4.47-.2 7.11-.31 2.31 1.5 3.24 1.62 5.86 1.62a2.68 2.68 0 0 0 1.38-1.52c.71-1.33 2.12-1.19 3.39-1.81 2.73-1.31 1.8-2.18 5.13-2 2.17.09 10.38-1.44 10.88-.11.61-1.93 2.23.05 3.41-.18-.38-1.45-15.92-2.76-18-1.75-1.53-.29-2.67.47-3.8 1.37-1.5 1.17-2.86.73-4.69.84-3.51.2-7 .74-10.53.26-2.26 1.27-3.32-1.12-5-2.12-1.95-1.18-5.72-.88-8-1-3.8-.15-7.6-.1-11.4.1-1.81.1-6.89-.36-8.27 1.25 1.29.58 3.21-.68 4.12.08s4.11.23 5.11.45c3.72.83 7.98-1 11.68.37zM435.12 264c-1.42.19-6.94 1.71-10.69 1.78a10.63 10.63 0 0 0-4.51.81c-1.26.57-3.61.23-4.47.88 0 0 4.74.53 5.77.6 2.58.18 5.43.68 7.83-1a28.52 28.52 0 0 1 3.38-1.38c.09-.21 6.6-.11 6.21-1.15-1.13-.61-2.54.52-3.52-.54zM446.17 264.63c-2.05-.36-7.17-.09-7.12.3a2.83 2.83 0 0 0 2.33.55c.58-.55 2.34-.07 2.87 0 .85.12 6.13-.49 6.13-1.15-1.38.38-2.82.02-4.21.3zM374.15 271.15c1.26 1 4.06 0 6.07.09 1.7.08 4 1.46 5.15 0 1.5-2.67 3.12-2 5.85-2.15 1.33-.06 2.14-.83 3.52-.7s2.72.66 4-.05c-.37-1.06-7.08-1.08-8.23-1-3.42.29-5.72 1.18-9.11 1.84-1.47.29-2.13-.16-3.51-.26a19.74 19.74 0 0 1-5.57-.86 30.73 30.73 0 0 0-5.28-1.73c-1.53-.34-2.57.22-4.22.12-.12.27 5.9 1.76 6.38 2.1.8.63 4.15 3.45 4.95 2.6z"></path>
    <path d="M333.33 272c-.16-.13-4.92-2.43-9 .71-1.34 1-2.8 1-4.2 1.56-2.85 1.21-3.85 2.26-7.17 1.26-4.29-1.3-8.54.13-12.85-1-2.29-.59-3.09-1.77-5.46-1.77-1.2 0-6.12.66-7-.16-.31.84 6.49 1.94 7.41 1.44.39.77 3.28.95 4 1.21a23.88 23.88 0 0 0 4.44 1.26c4.77.5 10.12 2 15.61 1.88a11.84 11.84 0 0 0 4.6-1.21c1-.5 2.37 0 4-.33a1.18 1.18 0 0 1 1.72.22c.69-.09.48-1.33 1.47-1a10.34 10.34 0 0 0 1.64-1.73 3.19 3.19 0 0 0 2.57-.74c1.91.8 4.94-.59 6.75-.91a36.85 36.85 0 0 1 5.15 0c1.55 0 2.33 1.63 4.5.49-5.22-1.94-12.51-1.72-18.18-1.18zM394.14 271.31c-3.43-.14-2.73 1.68-5.24 2.86-1.09.51-2.35 0-3.45-.12-1.56-.22-1.22.67-3 .59-2.36-.1-4.94-.63-7.19-.29.29 2.1 5.76 1.31 6.8 1.65a9.11 9.11 0 0 0 6.35-.09c1.47-1.56 4.22-2.36 6.58-3.18.76-.27 7.05.21 7.18-.6l-.37-.57c-1.97.3-5.15-.16-7.66-.25zM354.63 273a4.93 4.93 0 0 0-.8-.41c-.45.48.51.79.8.41zM352.46 272.89c-.69.06.05.66.22.3s0-.36-.22-.3zM373.74 274.16c.35.3.46.3.81 0 .11-.48-2.05-.91-.81 0zM39.8 225.54a20.6 20.6 0 0 1 5.58-3.71c.94-.4 4.25-.37 4.28-1.24 1.87.94 2.84-.1 4.06-1 .93-.67 2.05.82 2.94-.31 2.2.43 4.1-1.08 6.26-1.14.61.13 1.58.48 2 .19s.7-.74.89-.5 2.39.3 2.52-1a38.71 38.71 0 0 1-10.61 1 13.08 13.08 0 0 0-4.09.25c-.44.12-2.82.7-3.26.45-3.15 1.42-7 .6-9.84 2.9-.34 1.06-1.77 1.18-1.77 2.47-1.35.71-.53 2.37-1.48 3.32.92-.22 1.34-2.09 2.52-1.68zM57.63 240.67c-2.54-1.3-5.64-.56-7.56-2.66-.59-.64-11.49-4.42-11.07-4.95-1.25 1.6 4.68 4.34 5.76 4.78 3.62-2.31 4.72 3.58 7.63 3.91a43.14 43.14 0 0 1 8.19 1.52c.52.18 5.24 2.82 5.19 2.42a2.53 2.53 0 0 0-1.73-1 44.06 44.06 0 0 0-6.41-4.02zM86.27 243.51c-.35-.72-3.48-2.68-3.53-1.44 1.59 1.39 4.63 4 6.84 4.32.55.07 6.24.15 6.25.14a13.81 13.81 0 0 0-3.6-1.81c-1.93-.72-4.1-.32-5.96-1.21zM96.68 247.13c.23-.06.51.06.68-.18.12-1.02-2.1-.54-.68.18zM82.62 258.41c.57.91 3.94 3.76 4.61 2 3-.34 4.58-1.56 7.58-.92a22.82 22.82 0 0 0 6.25.07c.57.39 5.44 1.06 5.87.73-.29-1.85-4.5-1.22-6.09-1.72-3.54-1.11-7.42-.92-11-1.78-1.37-.92-1.61 0-3.23.11a7.43 7.43 0 0 1-4.92-1.9 43.14 43.14 0 0 0-5.67-3.7c-.41-.64-4-2-3.67-1.42.66 1.46 3.82 2 5 3.41.84 1.06 2.8 7.46 5.27 5.12zM64.44 228.07c.67-.12 1.81-1.22 2.4-1.54 1.46-.78 2.9-.64 4.19-1.83-1.63.66-5.08.07-6.18 1.26-3.41-.3-6.73 2.18-10.06 3.79-2.33 1.13 1.61 2.16 2 2.34 1.36.55 2.79-.68 4-.27 4.09 1.44 7.77 1.69 11.79 4.27 2.11 1.35 4.31 2.85 6.85 3.2.1.46 2.8 2.06 2.93 2 1-.79-8.4-5.15-9.44-5.56-3.32-1.34-5.32-5-9.33-5.39-4.59-.52-1.15-1.88.85-2.27zM80 262.45c.28.12.46-.18.57-.29-.17-.61-1.14-.16-.57.29zM84.9 264.51c-1.26-1.33-2.71-1.1-3.93-2.06 0 3.79 6.47 3.48 8.59 3.75 1.24.26 2.47-1.2 3.76-1.29a23.27 23.27 0 0 1 4.84.57.55.55 0 0 0-.11.59c.72.09 5.74-.52 5.74-1.14-3.37-.84-7.39-1.5-10.8-2-2.87-.48-5.18 2.25-8.09 1.58zM111.31 259.68c-1.19-.06-3.12-.63-3.7.3 1 .43 6.1.78 7.12-.3a10.9 10.9 0 0 0-3.42 0zM104.59 264.75c.2 1 2.91 1.46 3.82.73-.67-1.41-2.71-.43-3.82-.73zM109 265.48c1 .84 2.62.18 3.81.59-.7-1.07-2.58-.41-3.81-.59zM66.23 246.23c-.06.42.68.61.9.42a.89.89 0 0 0-.9-.42zM86.59 217.12h-.16l-.22.1z"></path>
    <path d="M487.55 251.72c-.05-2.42-3.16-2.55-4.6-2.79-2.43-.41-4.4-2.51-6.41-3.9s-5.11-1.49-7.52-2.06c-1.95-.47-3.74.23-5.69-.28-.85-.21-3.5.6-3.62.52.16-1.6-2.13-.81-3-1-1.61-.36.45-2.46 1.17-2.18 1.12.3 3.54-2.27 3.58-3.33 3.75-1.1.17 4.38 1.89 4.17.06-1.09 2-4.24 3.42-3.32a19.15 19.15 0 0 0 3.83-6.17c.74-2 .34-3.14 1.62-4.84.45-.62 2.18-2.77 1.66-3.88.4-1.56 7.07-3.43 8.63-4.34 2.75-1.6 1.77-5.08.87-7.17-.74-1.71-.91-1.26.17-2.79s.39-3.38-.39-4.83c-2.39-2.15-4.57-2.09-7.5-1.11-1.17.39-3.18 1.46-4.22.25-.4-.47-.68-2.16-1.26-2.16-2.89-2.25-9.41.48-12.52 1.29-1.41.38-5.53 2.72-6.81 2.33-1.91-.59-.89-1.51-3.4-1.26a17 17 0 0 0-4.79 1.26c-1.46.61-23.69 14.46-24.95 15.25-3.86 2.4-8 5.94-12.75 7-5.06 1.13-11-4-14.37-7.33-8-7.88-20.14-11.49-31.11-10a63 63 0 0 0-8.63 1.69c-2.54.73-4.77 2.31-7 3-1.48.47-11.19 2.84-10.84 3.5a14.71 14.71 0 0 0-5.8-3.45c-1.67-2-4.76-3.06-7.17-3.79a34.79 34.79 0 0 0-14.66-1.12 45.08 45.08 0 0 0-14 3.86 66.34 66.34 0 0 1-7.29 2.83c-.23.08-4.75.72-2.46-.1-1.53-1.62-4.43-1.19-6.23-1.66-2.75-.73-6.07-.59-8.91-.93-.12.26 11.67 3.46 13 4.23-1 1.31-4.89-.19-6.74.23a46.92 46.92 0 0 1-9.79 1 7 7 0 0 1-4.08-1.2 30.36 30.36 0 0 0-7.55.52c-.81.14-9.21 1.79-8.16 2.79 5.56-1.51 11.81-2.95 16.84-.23 1.12.61 2.78 0 3.9-.12s2.44-.13 2.71-1.4c.53.29 5.23.35 5.07.72-1.69 2.07-4.16 2-6.58 2.25-2 .17-6 1.49-7.71.7-4.87-2.26-8.44.51-13.72 0 1.19 1.86 8.64 1 10.54.43 3.79 1.84 8.43-.75 11.88-.58 1.74.09-3.49 2.56-3.71 2.63-.47.13-5.15 1.44-4.48 2.05.82 1 17.18-4.49 16.79-5.55 4.75 1.21 12.1-2.67 15.74-4.89 1.64-1 3.76-2.46 5.47-3.27 1.9-.91 3.19-.22 4.92-1.33a13.33 13.33 0 0 1 6.6-1.49 16.12 16.12 0 0 0 3.48-.17 27.68 27.68 0 0 1 3.13-.68 1.25 1.25 0 0 0 1.35.94c1 0 4 .26 4.4 1.48 2-.22 3.69 2 5.08 2.07a6 6 0 0 1 3.58 2.27c1.68 2.15 5 2.62 6.49 4.82.61 1.89 3.26 1.9 3.42 4.05 1.57-.05 3.87 3.59 4.81 4.48 2 1.84 4.5 3.08 6.4 4.92.62.66 4.18 3.14 5.07 3-2.16 1-6.08-2.66-7.72-3.67-1.88-1.17-3.82-2.21-5.65-3.44-.09-.05-3.84-2.93-3.71-1.87 3.49.5 5.34 5.64 8.58 6.22.89.16 5.68 3.4 5.77 4.21-2.11 1.47-6.09-1.54-8.08-2.39-1.62-.69-9.45-4.13-10.94-2.35-.67.79 4.82.94 5.35 2.27.71 0 6.29 2.11 6.43 2.65-2.8.92-4.36-1.52-6.83-1.33 1.37 1.94 4 1.89 5.84 2.69 2.05.9 4.63 1.65 6.85 3.11a29.21 29.21 0 0 1-10.28-.63c-2.62-.52-6-.95-8.47-.3-3.4.9 1 1.94 2.23 2 1.59 0 6.35-1 7 1.26-2 .84-5.44-.3-7.53-.43a26.6 26.6 0 0 1-9-2.47 10.34 10.34 0 0 0-7.51-3.29 20.79 20.79 0 0 0-4.24.32c-.33.05-2.55-.46-2.62-.42a42 42 0 0 1-3.8 2.5c-2.06.9-3.61-.52-5.59.11-3.51 1.13-8.4 5-12.21 3.68 1.68-3 6-3.33 8.76-4.47.9-1 3.77-2.35 0-1.29-2.61.75-6.17 2.87-8.9 2.44.51-1.62 4.75-1.9 5.89-3.33.81-1 3.74-.42 4.93-1.61.74-.71-2.33.15-2.33.15-1.4.16-3.11.09-3.82 1.6-1.1.83-9.28 1.79-8.88 3.61.58 0 2.14-1 2.44 0-3.85.85-5.49 5-10 3.08.2-.23 2.5-2.61 2.7-2.71 1.22-.58 3.35-.26 4.25-1.82-3.79-.94-5 2-7.68 3.22-1.71.82-.81-1.74-2.58-1.41-1.3.24-2.58 1.75-4 1.4.53-3 9-2.21 8.76-4.37 0 0-16.26 3.81-18.15 4.23-.6-1.56 1.92-1 2.56-1.74-2.11-2.23 2.41-1.2 1.54-3-3.32.51-7.15.86-10.26 1.92-1 .34-7.17 3-7.67 2.24 1.72-1.66 4.51-2.32 5.77-2.93 1.76-.85-1.77-2.17 1.57-2a23.74 23.74 0 0 0 5.64-.44c-1-2.09-9.32-.59-11-.12-4.8 1.33-9 3.72-14.12 2.67-2.63-.54-5.14-1.69-7.86-1.73-.56 0-5.62.68-4.28 2.38l-3.31.89c-3.91 1.16-.34.67-1.76 1.28-.55.43-2.13 0-1.08-.85 1.18.07 2.12-.92 2.91-1.63-1.81-.53-3.83.73-5.76 1.33-.33-2.88-2.8.36-4-1.15a1.88 1.88 0 0 1 1.76-.6c-.74-1.59-4.53.45-5.52.68-3.23.72-5.92-.2-9-.15-1.91 0-2.75.5-4.59-.19a15.16 15.16 0 0 0-4.18-1.09c-1.43-.09-3 0-4.25-.81-1.59.5-1.72-1.57-3.19-1.45 2.65-2.05 7.3.12 10 1a31.86 31.86 0 0 0 3.7 1c1.55.28.78-.09 1.9-.26 1.76.63 3.61-.58 5.38-.52 1.22.05 2.52.66 3.77.34a5.15 5.15 0 0 0 2.35-1.57 3.23 3.23 0 0 0 2.27.4
    c1.54-.22 3-.9 4.39.14-.06.14-.9 1.22-.49 1.39.56.23 4.19-2 4.19-2.12a1.37 1.37 0 0 1 1 .49c.15-2.18 2 .84 2.05-1.33 1.54.95 3 .22 4.55-.3 1.76-.59 3.37.81 4.84.18-2.94-2.58-8.83-.92-12-.17a17.6 17.6 0 0 1-6.7.76 21.65 21.65 0 0 0-7.78-.16c-3.73-.07-7.38 2.53-11.06 1-1.58-.64-3.09-1.4-4.82-.73-2.06-.85-4.08-1.93-6.38-1.93.14-2.59 7 .42 7.75.59s3-.13 3.18.62c2.6.45 4.9-1.56 7.52-1.21.21-1.77-6-.1-7.52-1.44 1.35-.86 2.85-.55 4.33-.43.62-.18-.05-.84.57-1-.11-1.68 3.24-.9 4.16-2.06.24-.3-6.42-.13-7.13-.08-1.9.14-5 .91-6.31-1a13.25 13.25 0 0 1 3-.49 5.38 5.38 0 0 0 3.45-.41c1 1.14 1.07-1 2.16-.3.51-1.11-2.78 0-2.88 0a13.05 13.05 0 0 1-6.28-.78c1.65-1.85 8.54 1.46 9.16-.95-1 .09-10.3-.08-9.56-2.17a1.11 1.11 0 0 0 1.3-.29c.51-.34 1.53.5 2.26.56 3 .28 5.45-.4 8.5-.87 2.25-.35 4.12.18 6.26-.32.94-.22 3.61.59 4.11.19-.16-1.57-9.34-1.33-10.8-1.35-.9 0-10.23.54-9.79-.51.3-.73 7-1.46 7.6-1.6 2.22-.46 9.17 1 10.66-.76-4.1.39-7.91-.47-12-.32-2 .07-8.06-.9-4-2.19 1.2-.38 6.31-.79 7.08-2.14 2.22-.77 5.63.41 8.32-1.15-1.62-1-5-.51-6.69 0-3 .88-6.5 2-9.54.46 8.09-2.08 15.77-5.21 23.86-6.87 2.66-.56 5.18-2.5 8-1.94.57-1.35 4.44-.16 4.78-1.87a.82.82 0 0 0 .68.42c.22-1.5 6.88-1 8.58-1.63a47.17 47.17 0 0 1 5.08-1.57c1.4-.3 2.87.38 4.59 0 3.72-.82 8.13-.35 11.56-.58a43.32 43.32 0 0 1 12.19 1.47c2.59.58 8.71.77 10.62 2.76.53.54 10 3.15 9.49 3.77-1.75 2-8.5-3.54-11.29-.89s-9.26-2.64-12.45-1.88c.4 1.61 3.64.67 4.37 1.59 1.38 1.73 4.61 1.5 6.82 1.84 1.07.17 5.82 1.54 6.31 2.42.93 1.67-8.43-.28-9.42-.06.53.64 5.32 2.35 6 2 .2-.1 7.29 1.87 5.7-.71 1.45-.06 3.18-.11 4.1-1.45a7.28 7.28 0 0 1-2.85-1.45c.39-.34 2.54.18 2.89.43 1.64 1.19 1.51.48 2.92-.21 2.53-1.25 4.26.67 7.17 0-2.49-.58-4.78-2.33-7.11-3.35-2.78-1.22-5.72-2-8.45-3.27a33.79 33.79 0 0 0-12.16-3.4c-3.5-.07-6.78-1.86-10.13-1.41s-7.1-.65-10.65-.18c-3.84.52-7.61 1.43-11.44 2-8.3 1.32-16.45 3-24.63 4.82 1.85-.89-3.69-3.6-4.24-3.93-3.22-1.93-5.77-5.25-8.71-7.67-1.21-1-6.13-2.64-4.66-5.67 1.32-2.73-4.62-1.13-5.07-3.62-.74-4.16-2.92-2-5.18-2.28s-3.28-4.6-6.11-2.52c-2 1.49-1.5 3.76-3.34 1.19-1.13-1.59-4.1.51-5.16 1.56-1.37 1.34-3.79 7.74-3.46 7.9.76.35 1.42-.88 1.86-1.3 1-1 1.62.07 2.75 0 .87-.06 4.71-4.47 5.38-2.24a6.2 6.2 0 0 0-4.21 3.38c-2.06-.66-3.46-.72-5.14.78a13 13 0 0 0-3 4.61c-.77 1.78-3.14 4.37-3 6.31-.81 2-1.08 4.57-2.66 6s-3.34 2.12-5.11 3.21c-.53.33-4.56 3-4.68 1.14 0-.61 4.42-2.44 5.19-2.8 1.64-.77 3.56-1.61 4.56-3.29.39-.65-.34-6 1.24-5.87 3.09.19-1.94-2.8-2.38-3.49s.29-6 .83-6.36c.78-.54 1.84.75 2.22-.14s-2-.84-1.78-1.91c.13-.74 1.74-.72 1.38-1.67-.52-1.4-1.78-.86-1.93-2.81-.17-2.13-2-.81-2.29-2.38a32.14 32.14 0 0 0-1.53-5.59c.65-2.45-1.48-3.39-2.34-4.92-1.46-2.57 4.27-3.78 4.33-4.26.33-2.74-2.92-5-5.69-5.84a29.35 29.35 0 0 1-6.95-3.8 5.09 5.09 0 0 1-.52-1.46c-.39-1.14-1.4-.33-1.84-1-.6-1 .64-2-1.34-1.38-1.94-1.58-4.31.7-6.32-.61-1.74.42-3-1-4.52-1.61a2.38 2.38 0 0 0-1.76-.11c-1.73.61-1.59-.33-3.47-.47a4.59 4.59 0 0 0-2.66.63 2 2 0 0 0-2-.61 1.21 1.21 0 0 1-1.74-.82c-1-1.13-1.91 1.08-2.89 1.4-3.86 1.25-7.37-.24-10.7.74a15.58 15.58 0 0 0-1.55.51c-2.16 1-4.54-.09-6.76.47-.87 1.08-2.76 2.52-4.27 1.75-.82-.42-2.39 0-3.56.28-4.15.9 0 .57-2 1.75-1.44.83-2.31-.12-3.56 0s-1.6 1.34-3.16 1.32c-2 0-1.57.37-3.21 1.12s.75 2.25-.45 2.79c-2.17 1-1.33 1-2.69 2.84a8.93 8.93 0 0 0-1.24 1.79c-.45 1.08-1.74 1.42-2 2.45.36.52 0 3.6-.16 4.26-.79 3.8-6.16 4.19-5.82 8.78 1 0 1-1.5 2.18-1.45.7 0 4.09 0 2.72-1.75a5.64 5.64 0 0 1 2.47-2.9c1.68-.9 1.74-3.52 1.92-4.56.35-2.08-.37-2.33 1.53-3.56 1-.68.77-3.68 2.56-3.76 1.83-.62.39-3.73 3-4.05.49.76 3.93-.65 4.09-1.32.45 1.79 2.36-.83 3-.48 1.42.73 1.54-1.44 3.34-2 2.12-.63 3.25-.13 5.17-1 1.56-.7 7.22-.78 8-2 1.17 1.39 2-.11 3.87-.29a4.82 4.82 0 0 1 2.65.45c.67.2.68-1.05 1-1s5.6-.65 6.45.11c2.89-.78 5.07-.34 7.71.15.57.1 4.66.53 4.7.57.87-1 2.48 1.18 3.24 1.47 3.39 1.27 7.29 1 10.16 4.46 1 1.18 3.67 1.29 4.25 2.76 2.11 0 .8 2.91 2.55 3.62-2.12 1.5.06 1.87.55 3.4.75 2.38-.47 5 2.08 5.59-.06.21-1.32 1.47.14 2.3.34 1.16-.14 2.57.65 3.6.13.57 1.66.72 1 1.45-.32.75.16 2.07.14 2.79 0 1.4-.49 4.48.43 5.66-.41.56-2.36.15-1.43 1.37.55.71 2.61 2 1.26 2.49-.71.28-1.5-.6-2.28-.85 0 2.52-.38.5-2.22 1.33-.06.14 3.42 3.67.72 3.08-1.52-.33-1.87-3-3.73-2.36.16 2.31 6.55 6.46 5 8.68s-1.35 1.69-2.55.25c-2.75 1.09-3.31-3.19-4.67-3 .14 1.22 4.86 8.57 3.28 8.46-2.35-.18-2.23-5.52-4.36-4.83.84.29 1.77 3.74 2.73 4.64-.23.26-.36 2.4-1.25.85-1.35-.78-1.85.77-2.34 1.63-.44-.88-2.94-7.51-4.32-7.25-.11.06.13 1.71-.57 1.15-.53-.42-1.55-6.87-3.22-6.26-.23.08 1.56 3.7 1.74 4.1-.79.83-.71-.8-1.25-.91-1.63 2.95 3.86 7 4.74 9a1.24 1.24 0 0 1-1.44 1.69c-1.16-.36-.71-1.67-1.54-2.29-.32-.53-1.83-3.17-2.33-1.45-1.42-1.2-5.2-9.12-7.7-8-1 .42 2.21 3.5 2.41 3.8 2 .09 4.85 5.26 5.55 6.64s-.32 3.24-1.28 1.77c-.62-.93-.64-2.14-1.36-3-.1-.13-3.28-5.13-3.07-3.29.12 1.08 4.32 5.43 2.49 6.58-.58-.73-2.21-6.27-3.7-5.36-.25.51 1.26 3.55 1.48 3.92-1.21.75-8.72-9.92-3.63-5.74.26.22 3.31 1.74 2.08.24-.49-.6-.7-.63.35-1.14s-.65-.92-1.65-2.05c-.46-.33-1.72.47-2.16.43a8.43 8.43 0 0 1-3.91-1.43c-1.86-1.28-4-2.92-6.31-1.5-1.83 1.14-2.53 3.27-4.45 4.44s-6.54 1.87-7.36 4c-.5-.41.37-1.09.28-1.57-2.71 1.88-1.94 5.29-2.45 8.09a.62.62 0 0 1-.81-.53
    c-.67-1.05-.43.1-1.12.1.33-4.78 2.44-8.32 1.76-8.68-1.35.29-2.78 6.39-2.82 7.62-.05 1.66-1.14 7.79-2.47 7.16s1.85-5.53.4-7.12c-1 1.14-2.29 1.65-3.3 2.76-.17.19-2.08 2.66-1.86.35a4.31 4.31 0 0 1 .89-1.48c-.9-.44-.71-1.69-.67-2.46.12-2.23-1-2.05-1.65-.25-1.32 3.67-5.32 3.07-2.16-1.37a8 8 0 0 0 1.85-5.14c.06-.83 1.78-2 1.42-2.72-.66-1.6-7.5 10.32-8.4 10.4.68-1.83 2.69-5.05 2.82-7.09.06-.86 2.16-4.44 1.56-4.81-.91 1-1.91 1.66-2.87 2.52-1.28 1.13-1.49 3-2.48 4.3-1-1 1.11-5.9 2.05-6.39-2.6-.34-7 8.47-7.7 7.7-3.55-3.7 4.08-6.71 2.23-8.55.52-.71 1.05.37 1.54.42 1.14-.62.8-1.86.77-2.89-.1-3.58-.92.76-1.45.85a6.14 6.14 0 0 1-.86-1.57c-.25.11-2.67 7.86-3.92 6.09.48-1.87 2.44-3.95 1.48-6-1.52.84-1.71 3-2.85 4.22-1.52-1 1-2.85.12-4.07-1.76-2.4-3.89-.36-4.32-.79s1.78-9.53 3.78-9.47c-.16-2.38-2.81-.67-4.09-1.58.67-1.19-.18-5.42 1.58-5.43.55 0 .53.38.75.37s1.33-1.54 1.08-1.87c-.93-1.25-6.83 1.21-8.83 2.58-3.54 2.42-2.89 3.36.19 4.28 3.75 1.12 2.49 6.27.83 9.53a9.21 9.21 0 0 0-.94 1.92c0 .35 1.48 1.11 1.8 1.6a14.33 14.33 0 0 1 1.8 6.85c-2.48 3-7.31.9-10.81 2a9.93 9.93 0 0 0-2.5 1.28c-1.51 1-2.27.3-3.93.9-.8.29-5.17 2.06-3.43 3.37 1.83-1.72 5.93-2.67 8.41-2.51 1.49.1 4-1.62 4.57-1 .23-1.63 4.6-.77 6-.79 1.92 0 2.64.27 2.9 2.17.12.88 1.19 3.46-.62 3.56.3.79 1.33.26 1.65 1.16a12.6 12.6 0 0 0 .41 3.88c-1.74-1.09-6.38.23-8.37.48l-5.82.75c-2.56.34-4.36 1.86-6.78 2.76-1.67.62-3.38 1.12-5.06 1.72-.3.11-2.43 1.78-2 1.81-1.06 1.53 3.57 3.65 4.26 4.22 2.73 2.23 5.68 2.06 8.95 2.37 1.75.17 3.71 2.25 5.79 1.89s7.7 6.51 9.86 4.13c2.14-.36 5.33 1 7.23 1.89.88.39 2.12.76 1.91 1.84 0 .24 1.94 1.06 2.32 1.69 1.25 2.08 1.27 3.84 3.69 5a18.42 18.42 0 0 0 6.24 1.3 64.88 64.88 0 0 1 13.9 1.13 56.64 56.64 0 0 0 6.1 1.06c.64-.61 1.42.54 1.88-.48 1.47 1.35 3.11-.32 4.78-.12-.48-.69-5.38-1-6.15-.72-2.76-.95-5.37-.94-8.21-1.05-4.59-.18-8.4-2.76-12.51-3.23-2.05-.23-4.1 1.1-6.12.28-1.79-.73-2.66-2.65-3.82-4.11-3.35-4.22-8.4-4.26-13-5.91a6 6 0 0 1-4.12-4.09c-1.84-1.49-5-.57-7.12-1.51-3.81-1.65-12.28.45-9.5-6.14 1.82-2.4 7.06-4.15 10-4.85 1-.24 4.75-1.49 5.33-1 1 .8 5.44-.29 6.93-.83 1.13 1.21-.21 3.49.81 4.95 1.15 1.65 1.32 4.47 2.82 5.85a28.23 28.23 0 0 0 6.73 4.18c.41 1.15 6.89 2.81 8.32 3.17.68.17 3.45 1 3.58 1.9a42.37 42.37 0 0 1 4.47.87c1.28.95-1.06.55 1.39.91 1 .15 1.73.85 2.69 1 1.88.33 3.76 1.92 5.9 1.54 1.56 1.37 11.46 2.48 11.62 3.43 2 .41 6.78-.3 8 .49s6.55 1 8.3 1c4.27-1.07 9.54 1.53 14.24 0 .83 1.36 12-.61 14.31-.3s4.4-.7 6.41 0c2.34.85 5.91 0 8.37-.13.85-1.42 8 .12 9.93-.13 5-.66 10.07.2 15-.67 2.16-.38 4.55.55 6.68.49 2.31-.06 4.71-.19 6.94 0 5.35.4 10.85-.64 16.23.54 1.88.41 4.4 0 6.26.08 2.56.1 4.83-.34 7.39 0 1.18-1.17 3.51 1.28 4.79.11 2.84 1.14 6.34.06 9.3.3 8.33.69 16.66-2.07 24.73.85 1.91-.87 5.35 1.25 7.12-.41.45.89 5.93 1.4 7 1.14.55-.9 6-.17 7-.15a34.26 34.26 0 0 1 8.34 1.07c4.68 1.31 10.83.17 15.62.3 4.44.11 7.33-1.29 11.23-2.95 5.51-2.34 9.26-.63 14.29 2.11 4.48 2.45 9.7 1.73 14.18 3a19.93 19.93 0 0 0 7.5.32c1.41-.17 8.81 1.92 9.65.56 3.49 1.79 8.48-.41 12.22.19 1.8.29 12.74 1.92 13.06-.2.27-1.84 2.56-2.45 3.44-4 .4-.69-.06-4.11-.54-4.27.2-.49 4.33-1.58 4.61-1.46.48-.19.87-2.88.67-3.33-.51-1.16-1.91-1.65-2.32-2.88 1.06-1.09 4.28 3.74 6.48 1 1.05-1.3-.51-5.72.23-6.21 4 2.29 4.9-6.09 5.19-8-1.72-3.24-5.24-3.94-8.61-3.84-6.8.21-14.49 1.6-20.46 5.09-2.05 1.2-24.51 7.46-24.52 5.6 0-.5 1.39-.2 1.27-.77-.4-1.83-10.18-.21-11.58.48a11.12 11.12 0 0 1-5.8 1.22 23.08 23.08 0 0 0-3.11.18c-.27-.23-2-1.27-.6-1.69 2.46-.73 6.94.8 8.22-2.41.74-.45 7.91.4 7.8-.12a18.5 18.5 0 0 0-7.23-2.77 3.53 3.53 0 0 1-2 .71c-1.4.26-1.46 1.41-2.61 2-1.53.78-3.3-.15-4.84.51-1 .43-1 2.08-2.28 1.81-.91-.18-1.3-1.26-2.21-1.42 1.43-1.34 2.9-1.32 4-2.55.85-.94 2.36-.3 3.1-1.49-2.53-.24-4.11 1.53-6.72 1-1.66-.32-4.53-1.45-4.89.12-.25.48-6.52-4.68-7.09-5.29 1.4.85 1.4.71 2.8-.49a27.42 27.42 0 0 0 3-2.42c.68.2 7.24-1 7-1.93-2.09-.3-13.71 4.27-13.87 4a4.49 4.49 0 0 1-2.26-1.71c1.57.12 6.12-4.09 7.64-4.78 3.85-1.74 7.86-1.06 11.91-2.28-2.77-1-6.73-.27-9.48.38-2.48.59-7.45 5.23-9.93 2.94 6.37-3.49 13.88-7 21.26-7.81 2.77-.28 7.31.5 9.95 1 1.84.36 3.5.19 5.4.75.37.55 4.58 2.16 5.06 1.68-.21 2 2.63 0 2.16 2.06 2.05-1.12 8 5.26 2.78 2.55-1.54-.8-16-7.22-16-2.55 1.08.89 5.38 0 7 .34 2.59.49 4.47 2.71 7.16 2.85 1.77.09 9.34 2.06 10 4.05-2.52 1.53-4.57-.57-6.67-1.71-2.82-1.54-5.62-1.09-8.59-.59 1.08 1.2 2.47.09 3.74.53a61.06 61.06 0 0 1 5.65 2.37c1.36-.4 7.33 2.29 9.39 3.81.78.57 1.91 1.88 3.13 1.26 3.93-2 8.71-3.38 13-4.72 3.56-1.11 7.86-2.33 10.95-1.72 2.28.44 3.78 1.13 6.08 1.54 1.71.31 1.12 1.16 2.32 2.05 1 .73 1.74-1.26 2.75-1.07.6.13-1.33 3.59-1.42 4.87a35.15 35.15 0 0 1-.46 3.79c.36-.29 3.93-2.28 3.68-1.67-.4 1-2 .89-2.76 1.43-1.62 1.06-2.65 2.81-4.32 3.82a13.36 13.36 0 0 1-1.83.77c-.44.79.53 1.68-.2 2.49.76 3-1.56 3-3.07 4.08-1.08.79-1.14 2.33-2 3.29-1.19 1.31-3.05.56-2.26 3 1.82 1.7 7.69-.06 10.28.33a39.49 39.49 0 0 0 7.88.45 1.28 1.28 0 0 0 1.3-.64c.38-1.42.66-1.58 2.63-1.86s2.64.29 4.26.3c5.64 0-.59 4.51-4.1 3.6-2.37 1.1-5.07.7-7.58.56-.25 0-4.69-.13-3.75 1.07.29.06.26-.42.56-.4a12.79 12.79 0 0 0 3.89-.16c2.57-.34 5.14.79 7.68-.05 0 .07 5.51.25 6.14-.41.74 1.37 5.87-1.75 5.87-1a1.39 1.39 0 0 0 2.38-1.27c-.23-1.83-1.89-1.21-3.55-1.59a22.08 22.08 0 0 1-5-1.78 11.21 11.21 0 0 1-4.6-.54c1.06-1.06 7-1.8 7.11-2.35-1.36-.67-2.91.1-4.27-.56.45-.46.06-1.68 1-1.74a3.48 3.48 0 0 1 .4 1.33c.87-.54 4.19-6.24 5.35-3.8-.35 2.13-.3 2.63 1.43 2.16.22-.06 3.66.3 3.68.33.24.3-.82.82-.73 1a6.32 6.32 0 0 0 3.52-.3c.66 1.12 1.83.82 2.87.75 2.52-.17 5.74.52 8.05.86 5.33.8 10 5.65 7.76 10.92s-8.72 2-12.33 3.12c-1.69.55-14.91 1.55-14.65 2.32.88-.43 2.69 0 3.5.12 1.68.23 3.24-.82 4.92-.72.73.26 7.05.64 7.29-.42 1.24 3.18 9.57-.9 10.85-1.66a5.59 5.59 0 0 0 1.71-2.43c.68-1.23 2-1 2.47-1.88.62.9 3.83.58 3.15-.76-.49-.89-1.97-1.8.06-2.08zM80.69 215.1c-.36.59-.42.54-.7.25-.19-.65 1.2-2.88 2-2.84-.72.74-.79 1.74-1.3 2.59zm103.15-14.6a.73.73 0 0 1-.68.31c.05-.37.84-1.57.68-.31zm-.37-5.74c.2 0 .46-3 2-3.13a12.55 12.55 0 0 1-1 1.94c-.75 0-.47 1.05-1 1.19zm2 17.44c.45-.48.57-2 1.48-1a1.68 1.68 0 0 1-1.46 1zm1.36-9.53a2.66 2.66 0 0 0 1.37-.42c-.71 1-.74 2.72-2.22 3-.9-.96.66-1.75.87-2.58zm4.5 4.89a2.88 2.88 0 0 1-1.64.9c.3-.91 1.49-2.71 2.61-2.59a9.74 9.74 0 0 1-.95 1.69zm2.81.95l.33-.65c1-.18.06-1.46.85-1a1 1 0 0 0 .23 1.32c-.15.05-1.3.67-1.39.33zm1.58 2.12c-.12-.35.45-.59.68-.3a.73.73 0 0 1-.66.3zm-1-15.79c1.52.25 2.47 2.75 1.76 0-.52-2 4.49-1.13 5.35.44 2 3.74 6.88 5.75 9.47 9.11-3 0-3.17-.5-5.7-2
    a15.36 15.36 0 0 1-3.41-3.11 34.67 34.67 0 0 1-2.41-2.72q-1.25-.53-1.17.54c1 1.21 2.47 2.54 3.76 3.93.78.86.7 2 1.6 2.66.7.48 1.69.73 2.08 1.56-3.19 1.67-2.14-2.63-4.52-2.29-.4.06 1.78 2.75 1.39 3.31-3.74 1-4.55-10-8.09-10-.62.46.16.82-.23 1.45-.48-.55-1.36-3.14.17-2.88zm-3.3.17c-.06-2.17-.62-5-2.07-6q.06-.85.93-.45c.53.39 0 1.16.74 1.52-.51 1.61 1.27 3.47 1.2 5-.11 2.57.5 1.46 1.15 3.88.41 1.53 1.29 2 .22 3a1.16 1.16 0 0 0-.24 1.26c-1 1.07-.83-4.37-.78-4.09-.44-2.34-2.64-2.92-3.71-4.84.82-.44 1.52 1.27 2.61.71zm-3.93 15.75c-.85-.37.46-.55.68-.85 1.08.42-.36.31-.63.85zm.79-16.23c.12.48-.19.69-.51.91-.77-.11-.02-1.88.56-.91zm-2.28-7.48c0 1.45 1.54.12 1.94 1.15-2.15 1.05-3.78-1.77-5.75-2.06 1.19-.86 2.88.23 3.81.91zm-5 4.47c.2.35 3.49-2.51 3.93-2.78-.34 1.09-1.48 1.6-2.23 2.27-1.19 1.06-1.59 2.68-2.66 3.83-.56-1.43 1.68-2.08.96-3.32zm-.17 18c-.39-.36.4-.84.68-1 .34.31-.41.79-.69.97zm-.83-6.72c.85.72-1.67 4.5-2.34 4.94-.95-.74 1.69-4.43 2.34-4.94zm-1.09 8.87c-.45.84-.62-.37-.17-.49s.2.24.2.49zm.8-16.11c-.11.19-.74.3-.68-.12.25 0 .65-.12.71.12zm-3.39 7.44a4.86 4.86 0 0 1 1.37-3.08c.17.95-.85 2.15-1.37 3.08zm.57-12.62c.4-.05.23.55.12.73-1.2 1.55-.75-.32-.12-.75zm.4 3.45c.8-1.09-.29 3.47-.85 4.22-1.01-1.38.68-2.89.85-4.24zm-3.13 3.08c.28 1.68-1 3.05-1.65 4.46-.57-.37 1.17-4.37 1.65-4.48zm-.63-4.7c.26 0 .12.64.11.89-.69.37.09 1.64-1.42 1.45.21-.27 1.04-2.36 1.31-2.36zm-3.07 7c.51.54-.46.9-.57 1.14-.8-.57.28-.81.57-1.17zm-1.94-3.62a5.69 5.69 0 0 1 1-1.15c.18 1.06-.44 4.38-1.76 4.64-.03-1.2 1.69-2.36.76-3.52zm-1 7.66c.76 1-.38 2.57-.8 2.47.15-.39.04-1.9.84-2.5zm-1.88-2c2 .72.26 3.77-1 3.44.36-1.12 1.49-3.1 1.04-3.46zm-38.54 9.4c1.62 1.11 1.42 3.37 1.48 5.07-1.58-.92-1.47-4.14-1.44-5.09zm-2.62-3.92c.11.43 1.13 1.12 1.82 1.34-1.73.24-.31 2.44-.17 3.31-.88.52-2.5-3.93-1.61-4.67zm-15.26 3.5c1-.3 1.65.33 1.77 1.28 1 0 .44-2 .68-2.48.71.69-.29 2.11.68 2.66.3-.8.75-.72 1-2.36.92.78.5 2.17 1.2 3.08.56-1.38.12-2.84-.12-4.23.42-2.44 2.22 1.53 2.34 1.88 1.37-.46-.77-2.56 1-2.93.88-.18 1.08 1 1.52.75a5.93 5.93 0 0 0 .28-2.71c1.86 1 1 3.87 2.74 4.89.85-.41-1.22-2.82.11-3.2 1.35.47 2.68 6.72 1.75 7.18-.33.16-1.25-2.69-1.75-3.26-1.3-.57.52 2.74-.68 3.08-1.51 0-.85-1.76-1.4-2.49-.76-1 0 1-.39 1.72-1 1.78-1.63-1.79-2-2-1.16.26.64 2.31-.51 2.29s-.15-2.71-1.82-3c0 .75.24 1.76-.12 2.46-.5 1-1.54-.63-2-.6-2.37.13.85 4.84.79 6.1-.78-1.19-2.91-2.85-3-4.33-.12-3.21-.51 1.4-1.24 1.56-1.14-1.51-.72-3.65-.79-5.36zm-1.65 1.46c.89 1.09-.15 2.55 0 3.76.2 1.59 2.18 2.1 2.18 4.2-1.77.2-2.46-2.63-3-4-.13-.43-.36-5.48.86-3.98zm-3-.91c.46.18.49 2.65.4 3.31-1.48-.54-.1-2.21-.38-3.33zm-.39 6.94c0-2.15 1.36 1.12 1.4 1.26.74 2.15 1.4.64.07 2.66-1.65.71-1.45-3.71-1.45-3.94zm-1.09 2.05c0 .53-.39.24-.57.12-.66-.57.65-1.07.59-.14zm-10.41-3.2c-.12.11-.18.36-.4.3-.84-.68 1.27-1.41.42-.32zm-3.93 8.57c.51.17 1.54 1 .91 1.57-.32-.32-1.01-1.11-.89-1.59zm-2.56-7.86a.8.8 0 0 1 .22-.1c.16 0 .19-.06.16 0 1.34-.33 2.14.26 1.6 1.61-.98 2.46-4.99-.1-1.96-1.53zm2 6.53c-.75-.31-1.93-1.62-.8-2s.36.71.81 1.98zm-2.62 1c-.34-.24 0-1 .28-.31.07.26.01.38-.27.32zm7.7 8.26c-1.13-2.67-5.19-2.51-7.92-3.8 2.47-1.88 9.33 4.29 10 3.5.17 1.9 2.6 2.16 3.7 3.31-1.96-1.08-4.44.14-5.77-3zm24.18 9.71c-1.12-.45-.71-.27-.32-.12-1.28-.46-5.63-2-4.94-2.35 1.4-.67 2.56 2.34 3.61.84a8.13 8.13 0 0 0 2.85.91c.35.85-.65.94-1.19.73zm54.76-17.37c-4 .9-3.95 2-5.76 3.32-1.16.82-5.67 1.92-5.05 3.19 1.79-.89 4.63-.39 5.35-2.78 1.73.25 4.93-1.82 5.4-3 .34-.86 4 .08 4.05-1.3a2.21 2.21 0 0 0 1.08.42c0-1.51 1-.12 1.65-.12-1.53 1.13-8.6 3.21-9.16 5.36 1.34 1.32 2.42-1.61 3.3-1.28 1.2.44 1.7-.26 2.68.26a21 21 0 0 1-8.28 2.58c-.77.07-7 2.18-5.61 2.7.91.34 5.77-.22 6.37-.64a14.68 14.68 0 0 1 7.69-2.77c-1.68 1.83-7.83 1.95-8.49 4.46 1.87.48 3.62-.55 5.47-.42-.7 1.08-2.06 1.07-3.18 1a7.65 7.65 0 0 0-2.29.11c-.18-.35-.5-1-.68-1s-.61 1.27-1 1.88c-1-.07-3 .08-3 .41s5.07 2 5 2.26c-.49 1.27-9.51-.76-11.21-.31s3.59 1.78 3.7 1.83c1.43.65 2.45-.5 3.44.78 0-.07-7.13-1-7.72-.21-.05 1 1 .21 1.26.84 1.22-.76 1.71.6 2.44 1.21-3.42 1-8.67-2.61-12.29-2.9-1-1-8.07-.55-8-.29 1.48-.27 2.37 1.07 3.77 1.11s2.25-1.15 3.84-.3c2.52 1.34 5.29 1.57 7.42 3.35-1.89 1.27-9.56-3.57-10.23-1.91 0 0 3.45 1.55 3.62 2.08-.24 1.32-5-1.22-5.54-1.43-2.26-.81-5.59-.1-8 0-8 .2-14.87-4.2-22.68-4.49.47-1.43 7.8.15 8.37 1.2 2.14 1.24 4.84.67 7.07.16 1.61-.37 3.22-.78 4.83-1.18.38.91 2 .6 2.56.3-2.77-2.15-6-.6-9 0a6 6 0 0 1-4.36-.51c-2.6-1.56-5-1.16-8-1.13-1.67 0-3.1-.58-4.67 0 .42.45.21.62-.62.52s-1.15-1.19-2-1.43c-1.6-.45-2.17 1.53-.47 2.25 1.88.79 3.53-.27 4.88.88-1.15-.35-2.32.21-3.41.47-1.72.42-2.21-.68-3.46-1.46-1.78-1.11 1.88-2.33-2.12-2.17-1 0-1.31-1.66-.37-1.46 1.17.23 1.62.66 2.86.84a41 41 0 0 0 6 0c-.19-2.11-4.61-.46-5.52-.85-3.32-1.42-6.87-2.17-9.68-4.63 1.85.51 3.78.62 5.31 1.59s4 1.94 2.38-.44c-1.8-.64-4.45-2.77-6.22-2.84-1.51-.06-4.08-.47-5-1.93.3.32 3.75.06 4.44.13 1.4.13 4.08 2.3 5.48 3.1 2.47 1.4 5.37 1.36 7.93 2.34 1.75.68 3.65-.56 5.49.22-1.79 2.26 3.41.79 4.1.54 1.86 1.44 5 0 6.09.22 4.39 1 9.24-1.49 13.61-1.78-1.57-.75-3.29.19-4.84.43a14.45 14.45 0 0 1-5.53-.53c-4-1.37-7.91 2-11.78.93 1.84-1.38-3.76-.85-4.07-.91-1.64-.36-2.38-1.35-4.28-1.17a14.12 14.12 0 0 1-4.6-.62 25.8 25.8 0 0 1-6.75-3.2c-1.93-1.12-4.62 0-4.89-3.2.88 1.46 2.63 1.53 4.1 1.87-.39-.65-1.57-1.56-1.08-2.48 1.75 1.17 2.81 3.56 5.18 3.63.81 1.64 4.26.84 4.78 2.35 1.57.46 2.6.35 4.06.94 1 .39 2.91-.16 4 .63.47-.88-5.4-2.47-6.14-2.71-2.86-.93-4.88-.19-6.83-3.08 2.27-2.25 5.68.63 7.12 2.2.39.44 2-.11 2.48-.3a8.19 8.19 0 0 0 2.12.56 16.16 16.16 0 0 0 3.87-.86c1.08-.24 2.68.77 2.68-.57-1.12-1.65-3.73-.4-5.15-.19-2.57.39-6.34 0-8.17-1.86.46.46 4.11-.36 5-.56 1.79-.42 4 .29 5.85 1a14.89 14.89 0 0 0 4.4.88c.41-.05 4.65-1.38 4.93-.79-1.38-2.91-8.36 1.17-9.7-2.4.54-.65 1.67.41 1.88.61.63.63 3.78-.84 4.2-1a2.25 2.25 0 0 1 1.29.54c1 .52 2.82-.18 4-.09a11.11 11.11 0 0 0 7.06-1.55c4.84-2.83 9.59-2.17 16-4.15.65-1.92 3.11-1.44 4-2.11a14.19 14.19 0 0 1 3.73-1.74 14.59 14.59 0 0 0 2.87-1.82c.25-.39 4.67-2.56 5.47-1.86 2.19-2.53 1.9-.79 3.89.21 1.58.79 1.64-1.69 2.37-2.11 1.48-.87-.48 2.47-.49 2.49-.41.63-1.25 2.78-1.95 3.15.82 1.45 4.91-5.33 5.48-2.07.1.6-.44 4.56-.25 4.55.91 0 2.78-2.36 3-3.33.91.47-.33 4 2.31 1.19.22-.23 3-2.21 3.72-2.21.19 1.17-1.48 1.51-1.76 2.48-.31 1.34.33 2.73.31 4.08 0 2.3-4.55 2.27-3.33 4 2.21-2 5.27-.76 1.68.9-2.59 1.23-5.87.8-8.09 2.91zm25.85 19.79c-1.25-1-5.09-1.05-6.87-.85-1.11.13-.83-1.56-2.64-1.5s-3.87.51-5.29-.79c1.11-.91 2.68 1.61 3.3-.49 1.75 1 4 .44 5.75 1.63 1.57-.6 4.82.8 6.42 1.1a26 26 0 0 0 5.31-1.28c-.99 2.59-4.04 1.27-5.97 2.19zm7.06-2c.23-.6 1.14-.6 1.54-.6a1.47 1.47 0 0 1-1.53.61zm12.18 1.15c.5-.65 3.57-1.38 3.42-.42s-2.34.48-3.41.43zm20.61-.42c.34.06.8-.18 1 .3-.19.31-1.16.01-.99-.29zm5.35-.43a3.36 3.36 0 0 0-1.91 0c.79-1.23 9.69-5.3 10.11-3.79.01 1.39-6.99 2.4-8.19 3.8zm59.74 3.63c.79-1.3 12 0 12 .25-4.27-.31-8.08.75-12-.25zm12-1.33c-.63-.29-2.07.09-2.44-.84 1-.8 2.19-.14 3.24-.72.38.46-.8 1.09-.8 1.56zm10.82-.11c-3.53-1.87-5.68-.93-8.47-1.67-2.94-.77-4.27-2.2-6.38.08-1.26 1.37-15.92 3.27-16.54 2.14s7-1.68 7.31-2.6c2.47 1.44 9.26-.72 11.5-2.06.33 1.62 6.21 1.14 7.27 1 1.75-.16 3.58 2 5.71 1.74.52 1.06 2.93 1.23 3.7 1.87-1.4 1.16-2.64-.79-4.1-.5zm26.08-1.21c.16-.42 1-.3 1.36-.12.05 1.33-.8-.12-1.36.12zm71-16.17a22.36 22.36 0 0 0 3.41.55c-.86.59-4.55 1.39-5.18.42.04-1.14 1.48-.05 1.81-.97zm.39 8c.12.42 4.57 2.72.86 2.18-.95-1-2.6-.38-3.3-1.76.48-1.68 1.55.16 2.48-.46zm-3.69-4.1c-.41.74-2 0-2.28-.24a8.35 8.35 0 0 1 2.32.2zm-.52 8.69c-.22.43-.85-.06-.57-.24s.49.08.61.2zm-1.35-.24c.11.36-.24.24-.41.24-.48-.34.27-.64.45-.28zm.39 3c.33.3 1.85-.4 1.65 1.45-2.4 1.33-3.77-2.74-1.61-1.47zm-60 3.2c-.45-.43.52-.73.58-.19s-.38.33-.55.17zm1.65.41c-.45-.41.52-.65.58-.12-.09.23-.35.04-.55.1zm17 6.94c-4.15-.47-7.76-2.5-11.78-3.2-.21-1.19 6.62.16 7.34.32a19.23 19.23 0 0 1 4.18 1.26c.49.2 1.56 1.84.26 1.6zm-8.77-11.3c.22.12.11.48.16.73-.9.24-.95-.64-.16-.73zm.56.85c.68 0 1.65 0 1.89.6-.51-.42-1.77.24-1.88-.6zm2.45 3.8c1.14-.43 1.86.7 2.84.11.49 1.44-4.61-.27-5.18-.11.01-.96 2.06-.37 2.33 0zm5.35 1.44c-.34.37-1.19-.18-.86-.6a.93.93 0 0 1 .87.6zm-.28-3.79c.68.12 2.27-1 1.87.72a4 4 0 0 1-1.86-.72zm10 6.23c-1.9-.23-8.2-.36-9.25-2.14-.29-.49 4.7.5 5.15.54 1.58 1.26 4.26.91 5.86-.11a12.54 12.54 0 0 0 6.15-.3c-2.62 1.47-4.99 2.37-7.94 2.01zm1.78-6.4c.15-.58.66-.09.84.05-.03.42-1.02.5-.87-.09zm1.36-.25a4.32 4.32 0 0 1 2.21-.43c-.2.29-1.94 1.43-2.24.43zm3.28-.85c.43.12.53.36.3.71-.38.14-.55-.33-.33-.71zm2.06 3c-.23-.11-.23-.47 0-.72.59.78 2.13 0 2.85.39.28.21-2.7.39-2.88.39zm1-3c2.89-.43 7.49-2.66 11-1.64-3.56 1.12-7.3 2.6-11.05 1.64zm2.55 6.51c-.4-.61-1.18-.41-1.76-.61 2.17-1.08 7.58-2.07 9.58-1.12-1.23-.03-6.38 1.39-7.87 1.73zm15.14 2.55c-2.83.79-4.67.11-7 .14.63 0-4 .44-3.49-.09s5.29-1.59 6.2-1.8 4.55 0 4.29 1.75zm-2.72-8.39c.17.08 1.78-1.36 2.27 0a3.23 3.23 0 0 1-2.27.04zm-6-5.78A14 14 0 0 1 415 237c-.76 1.27-9 2.32-10.51 1.87zm1.94-9.41c.23-.9 6.9-1.76 8-1.45-3.15 2.43-9.7 2.79-13.5 3.62a12.58 12.58 0 0 1 5.46-2.13zm-6.6 2.17c.22 0 .86-.11.46.3-.28-.02-.91.11-.5-.26zm-1.6.54c.57-.24.35.49 0 .49-.9.16-.5-.26-.04-.45zm-5.68 6.87c.29.36 21.36-7.78 21.19-5.18-4-.18-7.57 1.52-11 3.24a47.49 47.49 0 0 1-5.31 2.37c-.52.19-6.55 1.44-6 .54.21-.52 1.17-.07 1.12-.97zm-3.13-2.3c.63-.42 1.87-.38 2.73-.6 0 1.13-4 1.6-4.89 1.75a4.15 4.15 0 0 1 2.16-1.16zm-1.25 5.2c.06.24-3.42.89-3.64.9a3 3 0 0 1 3.64-.91zm-9.68 3.8c1.49-.18 3.82-1.63 4.67.11a12 12 0 0 1-4.67-.12zm-9.45-9.9c1.48-.24 3.75-.45 4.46-.62a16.73 16.73 0 0 1 3.63.38c-.29.11-9.25 1.75-9.14 1a2 2 0 0 1 1.05-.77zm.86 3.38c3 1.21 4.87 0 7.34.14 2 .14 4.37-.81 5.75.4-5 3.26-11.38 1.15-16.79.31a19.3 19.3 0 0 1 3.7-.86zm-8.89 4.34c.12.07 4.64 1.08 4.27 2-.58 1.48-8.88-.7-8.36-2.73 1.74-.89 2.37 1.21 4.09.72zm-1.05-2.66c-.06.19-.18.85-.69.3q.11-.61.69-.3zm-1.14.19c-.57-.37-1.77.66-2-.31.62.12 1.46-.24 1.98.31zm-3.64 4.33c0 .42-.41.37-.69.31-.31-.36.38-.69.67-.31zm103-10.55c-.21 2.14-1.42 3.19-1.89.87-.47-2.14 2.07-3.15 1.85-.87zm1.93-14.48c.22-.66 4.27-1.63 4.11-2.17.19.42 5.11-1.64 6 0a40.85 40.85 0 0 1-10.15 2.17zm5.07 10.25c-.91-.23-2-4.8-1.93-5.1.43-1.43 3.44 3.95 1.89 5.1zm1.09 5.54c-.12.18-.29.12-.4.12-.21-.36.47-.85.36-.12zm4.11-11.66c-.69-.13-.82-1.34-1.67-1.24-.85-.42-1.49.07-2.45-1.21 1.48-2.6 5.09 2.63 4.08 2.45zm3.54-11.55a56.45 56.45 0 0 0-8.17 1.39c-6.43 1.23-12.52 4-16.85 5 1.13-.83 7-2.41 7.23-3.31.41.11 2.83-1.06 2.6-1.17 1.52.75 3.63-.45 5.25-1a27.72 27.72 0 0 1 8.83-1.38c.81-.58 3-.15 3.34-.18a8.48 8.48 0 0 1 4.06.48c-1.41 1.86-4.6.09-6.33.17zm-32.14 2.89c-.75-1.18 6-4.45 7.4-4.15-1.76 2.53-5.14 2.43-7.44 4.15zm6.44 3.93c-.23 0-.91.06-.57-.31.13.13 1.04-.23.53.31zm-4.1-1.46c-1.32 1.7-4.94 3.16-5.35 2.3 1.8-.59 3.29-2.23 5.31-2.3zm19.67-9.16c.8.36 1.31-.77 2-.76s-3.07 2-4.06 2.42-3.94 1-5.85 1.72c2.31-1.64 5.38-1.94 7.87-3.38zm-5.44-1c1.06-.47.74-1.19 1.5-1.37a10.1 10.1 0 0 1 3.4-.08 12 12 0 0 1-4.94 1.48zm13.34-2.13c.79-.43 7-2.47 7.7-1.16 1.26 2.48-8.79 3.42-9.64 2.18.06-.93 1.39-.71 1.94-1.02zm-2.42 3.77c.54-.16 1.11.86 1.33-.28 1 .61 4.29-.87 4.62.42a14.7 14.7 0 0 1-3 .53c.15-.01-4.62-.17-2.95-.67zm-1.56-2c.05.24-.29.12-.41.12-.17-.5.23-.5.41-.15zm-1.2-4.65c-.95 1.36-8.07 2.28-9.06 2.18 1.83-.95 7.97-3.3 9.06-2.21zm-9.85 2.6c-1.6.6-3.25 1.7-5.07 1.87a10.05 10.05 0 0 1 5.07-1.9zm-5.47 2.17c-.17.3-.46.3-.68.43-.63-.58.45-1.05.68-.46zm-2.34.8c-.23-.85.82-.36 1.09-.2-2.22.67-3.69 2.9-6.15 3 0-1.16 4.11-2.2 5.06-2.83zm-6.15-1.1c.24-.17 1.4-2.19 1.95-.85-1.07 1.32-2.87 1.66-4.28 2.48.73-.63 1.2-1.72 2.33-1.66zm-17.07 11.76c-.34.78-1.68.81-2.34.84 1-.29 1-2.22 2.05-2 1.75-.94 3-3.72 5.36-2.89-.74 1.2-3.34 4.26-5.07 4.02zm4.1.73c-.46-.61.51-.36.68-.73 1.55.22-.63.03-.68.7zm1.65-1.33c0-1.09 5.79-5.28 7.35-4.88-1.69 2.52-4.6 3.8-7.35 4.85zm4.21 20.45c-.74.43-1.68 1.51-2.44 1 .09-1.93 6.13-3.61 7.11-3.61-.3 1.95-3.47 1.41-4.67 2.58zm7.52 3.62c-1.25.9-2.65 3.44-4.38 2.72 0-.53 3.51-4.86 4.09-5.61 1.07.26.38 2.15.29 2.86zm-1.48-10.31c0-.37.85-.91.8-.31-.29.1-.47.6-.8.28zm1.48-.55c.45-.72 1.47-1.62 2.33-1.45a7.87 7.87 0 0 1-2.33 1.42zm3-1.74c-.69.35-.51-.79-.12-.73.14.21.65.45.14.7zm-4.9-3.08c-.69.43-3.87.34-3.43.06 1-.62 8.88-2.53 8.72-2a25.55 25.55 0 0 1-5.27 1.91zm8.42 8.68a4.6 4.6 0 0 1-1.59 2.78c-1-2.97 1.92-4.1 1.61-2.81zm3.42-3.31a9.14 9.14 0 0 1-1.84-1.89c-1.19-1.87-2.61-1.3-4.31-1 .06-1.06 3-1.71 3.59-1.14 1 .47 2.23 0 3.1.7s1.07 3.11-.52 3.3zm-.51-6.64c1.54-.6 5.18-2.2 5.18 0-1.7-.03-4.42.5-5.16-.03z"></path>
    <path d="M156.63 217c.44-.11 1.81-2.7 2.62-1.15-2.1 1.29-3.87 3.05-6 4.23-.34.19-5.4 2.34-4.75 2.6.81.32 3.13-.53 2.87-1.58.71.37.75.64 1-.3.37.36 6.7-2.26 6.95-3.07 2.77 1 8.16-4.88 8.88-6.19 0 .08 2-.55.79-1.18-1.69 1.15-3.16 3.4-5.29 3.74.16-.88 2.16-1.3 2.16-2.4a27.85 27.85 0 0 1-5.58 3.62c.47-1.75 3.58-2.59 4.39-4.23-.09-.12-8.49 5.27-10 5.48-1.19.16-10.91 4.24-10.77 4.93a1.21 1.21 0 0 0 1.07.45c.03-1.84 11.47-5.27 11.66-4.95zM176.61 216.55c3-2.71-1.76.06-2.22.73.91.72 1.19-.85 2.22-.73zM168.81 219c-1.78 1-2.13 2.67-4.21 3.18-.57.14-3.9 2.36-4.1 1a9 9 0 0 1 3.13-1.92c.27-1.68 2.21-.89 2.85-2.18-4.47.44-7 4.85-10.58 6.83-2.33 1.29-3.84 2.6-6.36 3.6-.58.23-5.48 1.15-5.32 1.88 2.61.38 9.39-.71 11-3 1.33-1.95 3.78-2.13 5.51-2.85 1.52-.62 3.22-.72 4.65-1.54s1.29-2.49 2.5-3.38c.86-.64 3.35-4.22 4.08-3.93.44-2.07-3.4 1.21-3.15 2.31zM167.33 216.43c.16-.21.32-.62-.29-.42s-.11.9.29.42zM180.71 216.25c-1.6-.36-2.23.91-3.08 1.58-1.1.85-2.22.51-3.42 1.14-.9.48-4.77 4.55-4.92 4.54 1.29.11 11.82-5.89 11.42-7.26zM174.16 218c.09-.16.24-.53-.28-.54a.66.66 0 0 0-.29 1c.19-.18.41-.26.57-.46z"></path>
    <path d="M163.06 217.88c-2.38 1.36-8.89 2-9.17 5.6 1.35-.16 4.48-3.1 5-3 .47.52 5.01-1.72 4.17-2.6zM134.37 223.07c.45-1.09 6.71-2.08 8.37-3.2-1.34-.9-4.48 0-5.92.29-1.7 2.12-4.65 2-6.95 2.91a13.08 13.08 0 0 0 4.5 0zM141.48 222.52c.12.06 2.07-.49 2-.36.27-.95-2.05-.97-2 .36zM151.33 227.29c1.51 1.46 6.73-4.48 6.79-4.42-.14-.65-.4-.45-.81-.22-2.29 1.29-7 3.93-9.39 6.21 1.45.14 2.99-.06 3.41-1.57zM134.65 226.14c1.65.31 7.89-.47 8.32-1.75-1.85.86-16.56 0-15.83 3.2 1.42.12 7.07-2.05 7.51-1.45zM140.69 230.48a13 13 0 0 0 3.15-2.36c1.27-1.18 5-1.18 5.27-3.18.53.93 1.32.24 1.14-.43-1.53-.75-6.64 2.49-7.81 3.38-2.4 1.84-5.59 2.11-8.47 2.59 1.92 1.38 4.59-.6 6.72 0zM160.21 229.89c.18-1 2.72-1.47 3.44-1.76.44-.18 5.61-2.51 5.44-3.19-3.47.06-6.5 1.82-9.08 4-1.09.06-.14.85.2.95zM118.83 229.28c-1.83-1.27-8.38-2-7.4 0a32.82 32.82 0 0 1 5.69.09c1.66.27 3.78 1.24 5.52-.09a24.4 24.4 0 0 0 3.93-.13c-2-1.71-5.52-.25-7.74.13zM153.61 231.87c.73-.52 2.69-1 3.47-2-.83-.61-5.73 1.94-5.63 2.12.39.65-5.5 2.42-6.67 3.24a17.54 17.54 0 0 0 3.13-.32c1.52-.45 2.25-.09 4-.27 2.3-.22 6.7-1.36 7.77-3.75a16 16 0 0 1-4.46 1.77c-.22 0-4.44.65-3-.85.38-.39.96.37 1.39.06zM136.6 235.07c-2.93 1-7.29.67-10.83.91.86.87 6.62 1.36 7.75 1.16 3.61-.67 7.13-2.59 10.81-3.33 0-.13-.47-1.13-7.73 1.26zM104 234.23a5.43 5.43 0 0 1 2 .6 4.25 4.25 0 0 0-2.85-1.33.79.79 0 0 1 .85.73zM158.17 235.37c-2.51.54-2.69 1.14-7.41 1.75.88-1.57-3.64-1.31-4.27-1.31a10.74 10.74 0 0 0-3.84 1c-1.15.47-4.18.22-4.87.7.4 2.77 7.63.13 8.4-.63.53-.54 1.7 1.07 1.45-.64.58.51 1.82.81 1.26 1.88 1.71-.59 3.55-.2 5.29-.61a9.38 9.38 0 0 0 2.93.54c1-.14 5.95-1.8 6.35-1.26.5-1.35 1.68.61 1.93-.73-2.45-.47-5.22 1.67-7.22-.69zM114.68 236.36c0 .32.69.3.69 0-.37-.27-.72-.31-.69 0zM116.09 236.39c-.56 1.18 8.68 1.69 7.23-.12a13.93 13.93 0 0 1-7.23.12zM150.25 239.17c-.68.67-2.87.37-2.33 1.45 1.49-.6 4.44 0 5.86.72.44.18 1.77.39 1.48-.6a8.9 8.9 0 0 0-5.01-1.57zM137.78 241.89c-.22-.16-6.32-1.11-9.28 0-.22 1.9 9.56.8 9.71.6s-.21-.49-.43-.6zM199.74 200.62c.19-.43-.94-.62-.59 0s.4.43.59 0zM152.3 181.08c.57-.54-.69-.84-.68-.42a.44.44 0 0 0 .68.42zM155 182.22c0-.66-1.19-1-1.82-1.44-1.34 1.57 1.4.54 1.82 1.44zM154.35 183.67a2.64 2.64 0 0 0-1.83-1c-.39 1.43 1.39.85 1.83 1zM151.45 185.43c-1.46 1.75 2 4.27 3.28 3.54.27-.16-3.2-2.4 1.1-3.25-1.74-1.49-4.28-.58-6-2.05-.51 1.64 2.28.96 1.62 1.76zM149.28 187.6a2.16 2.16 0 0 0-.28.72c0 .29 1.07 1.06 1.61 2.44.26.66 2.13 1.73 2.81 2.05.84.39-2.95-6.19-4.14-5.21zM147.63 197c-.11-1.63-2.41-.54-3-1.86-.33.34 2 4.17 2 3.08 0-.48-1.11-.94-.32-1.33s2 2.15 3.3 2.29a2.71 2.71 0 0 0-1.98-2.18zM85.57 199.39c.8-.11 1.72-2.6 1.26-3.23-2 1.17-.63 2.62-2.45 1-1.58.72-.37 2.66-1 3.86 1.52.27 1.19-1.49 2.19-1.63zM81.94 198.45c.11-.18.53-.71-.17-.71-.28.35-.23.59.17.71zM144.89 203.48c2.17 1.12-1.14-5.25-2.54-4.38.35.25 1.14 2.8.59 2.37-.37-.29-2.66-2.2-3.22-1.87.33 1.25 3.62 3.65 4.38 5.24.33-.7-1.37-2.48.79-1.36zM151.45 202.25c.69-.09-.62-2.67-1.37-2.05.83.47.68 2.15 1.37 2.05zM105.16 200.5c-.34.31-.1.62.4.55a.35.35 0 0 0-.4-.55zM87.23 201.05c-.28-.24-1.9 1.18-1.08 2 1.38-.05.49-1.3 1.08-2zM104 202.8c.39.18.62-.18.85-.43.03-1.69-1 .06-.85.43zM136.59 202.8c-.68 1.69 1 3.13 1.48 4.65.49-.45-.93-4.33-1.48-4.65zM103.34 204.67c.11-.06.82-.8.45-1.26a1 1 0 0 0-.45 1.26zM88.88 206.71c.17-1.08 2.11-1.44 1.37-2.89-.4.85-1.6 1.81-1.37 2.89zM96.79 206.29c0-.48.25-.83-.11-1.45-.37.58-4.13 5.48-3.33 6.2.23.2.86-.72 1.28-.41.56 1.13-.52 2.21-.17 3.32a3.41 3.41 0 0 0 2.26-3.45c-.36-1.66 2.52-3 2.12-4.81-.92 0-2.35 3.6-3.7 4.22-.76-.62.69-3.46 1.65-3.62zM100.21 208.77c.66-.55 1.24-3.29.68-3.62-.25.57-1.4 4.22-.68 3.62zM146.15 208.16a3.08 3.08 0 0 0-.68-1.87c-.89-.29-.07 1.62.68 1.87zM146.66 209.62c.23-.31.23-1.16-.39-.85-.27.36-.12.91.39.85zM97.65 212.93a2.85 2.85 0 0 1 .4 1.63c.55-.59 2.27-3.93 1.19-5.07-.06 1.81-3.3 3.78-1.59 3.44zM146.84 202.37c.19-.3-3.61-6.47-4.26-6.11-.48.28 3.72 6.94 4.26 6.11zM106.3 179.79a4.54 4.54 0 0 0 3.08.75.82.82 0 0 0-.29-.72c-.91-.25-4.09-.72-2.79-.03zM105.67 181.5c.63-.3 1.43 1.15 1.54 0 .06-.78-2.56-1.21-1.54 0zM104.2 184.27c.17.25 1.77.68 1.65-.11-.57.21-1.21-.53-1.65.11zM101.44 187c-.37.55 0 .73-.83 1.33-.06 1.27 1 .46 1.45.64 1.35.48-1.22 1.25-1.13 1.78 0 .11 2.39-.74 2.7-.67-.09-.26-.39-2.62-1.07-2.33.51-.5 1.65-2.45 2.15-1.71 1-1.1-2.78-1.53-3.53-.31.21.33 2.55.18 1.82 1-.36.43-1.26-.19-1.56.27zM129.3 190a1.88 1.88 0 0 0-2.27-.73c.79.07 1.53.86 2.27.73zM125.37 190.19a.69.69 0 0 0 .35 1 1.34 1.34 0 0 0 .84.16c.6-.35-.91-1.19-1.19-1.16zM107.21 194.11a2.58 2.58 0 0 0 1.77-1 1.68 1.68 0 0 0-1-.72c-.09.61-1.23.87-.77 1.72zM112.28 193.53c-1.83 0-.63 2.13.11.76.81.86-.85 1.6-.17 2.6-.11.07 1.37-2 1.37-2.18.41-1.32-.59-1.17-1.31-1.18zM92.7 168.47c-.8-.06-.47-1.58-1.65-1.26.2.53 1.65 3.21 1.65 1.26zM87.4 170.1c.76 3.34 5.48 2.09 4.9.55a3.32 3.32 0 0 1-2.3-1.09c-1.19-1.03-1.71 1.44-2.6.54zM83.8 181.23c-.88-.6-2 1.2-2 1.2s1.59-.37 2-1.2zM92 183.55c-.21-.3-6.37.26-3.81 2.17.64-1.72 3.26-.31 3.81-2.17zM86.55 184.16c-.77-1.82-2.1 1.4-2.17 1.44-.22.79 1.97.09 2.17-1.44zM84 185.72c-.12-.66-.63-.24-.68.13.21.54.38.05.68-.13zM132.6 161.54c-.11.42-.57.79-.39 1.32a1.8 1.8 0 0 1 1.19-.61 1 1 0 0 0-.8-.71zM135.22 162.14c-.71-.72-2.14 1.39-2.9 1.75-.27 1.76 1.51.49 2.05 1.68.45-1.28 2.3-1 2.9-2.17a4.43 4.43 0 0 0-2.73.31c-.6-.52 1.02-1.22.68-1.57zM144.5 172.57c-.95 0-.75 2.23-2.44 2.18-.55.91-3.26-.21-2.23 1.56 1.29-.91 5.19-1.17 6.41.32-.39-.79-1.78-1.14-1.78-2 0-.18 1.57.49 1.81-.16 0-.69-.29-.93-1-.75-1.49.03.19-1.11-.77-1.15zM219.74 208.12c-2.4.82-9.48 5-12 3.79 1 1.28-.93 1.5 1.92.62 1.67-.51 3.4-.81 5-1.47 3.77-.51 7.45-1.82 11.2-2.44 2.06-.35 3-.68 4.88-.85.5 0 6.15-1.49 4.87-2.38-2.13.9-10.61.92-15.87 2.73zM270.71 210.76c-1.25-1.14-3.32-.74-4.9-1-2.48-1.52-5.4-1.66-8.19-2.17-1.84.11-8.64-.19-9.45 2.06.47.87 7.54-.38 8.65-.31a37.16 37.16 0 0 0 5.14.92c2.66.18 5.88 1.81 8.75.5zM231.55 211.49c1 1.32 1.33-1.17 2.27 0 .24-2 11.46.23 11.22-2.6-1.41-.6-2.42.64-3.72.83-2.32.34-4.43-.85-6.94-.19s-4.67 1.72-7.12 2.19-4.88-.78-7.22.48c-.16.88 4.65 1.11 5.63 1.2 2.8.23 2.65.31 4.44-1.28.52-.47 1.29.74 1.44-.63zM313.64 211.91c-3.93.17-5.29 1.83-8 2.64-2.83.86-6.75.66-9.11 2.73 1.65.73 5.05-.86 6.5-1.43a7.51 7.51 0 0 1 4.7-.43c1.82.24 3.47-.76 5.2-1.07s13.83 2.86 14 2.53c.36-.88-11.99-4.54-13.29-4.97zM246 215.1c1 1 1.21-1.24 2.16-.3.77-1.31 3.65-.13 4.79-.33 2.17-.37 3.56.11 5.6.05 1.73-.05 4.15 1.89 5.61-.26-1.61-.37-2.91-.14-4.37-.58-1.17-.36-2.43-.92-3.6-1.21-3.42-.86-6.77.75-10.08 1.37-1.37-.39-3.39.78-4.76 1a33.49 33.49 0 0 1-5.1.3c-1 0-6.18-1.06-6.25.91 1.59.45 3.71.24 5.29.53 1.14.2 2.29.92 3.21.89 1.74 0 2.76.68 4.62-.2.41-.27 2.88-1.78 2.88-2.17zM204.45 216.43c-1.43.9-4.45-1-4.78 1.27 1.4.93 4.56-1 6.31-.54 1.12-.66 4.61-.07 5.3 1a15.44 15.44 0 0 0 7.11-1.75c.9 0 7.63.21 7.4-.61-1.28-1-6.59-.58-8.17-.74a19.71 19.71 0 0 0-3.84-.09 4.73 4.73 0 0 1-2.9.83c-2.02.93-4.33.2-6.43.63z"></path>
    <path d="M326 218.59c-2-1.29-3.79-1.49-6-2.16-.66-.2-7-.46-4.84 1.27 1.21-2.15 8.83 1.46 10.15 2.34 2.73 1.81 7.77 5.81 11.19 5.38a4.15 4.15 0 0 1-.29-.6c-2.13-.67-6.7-3.95-10.21-6.23zM307.77 219.14c1 1 5.56 1.61 6.26.91 2.18-.62 4.71.5 6.78.86.56.09-2.19-1.57-2.77-1.68-2.09-.41-4.55.47-6.46-.54-1.47-.78-3-2.15-4.49-.51-.94-.26-6.71-.08-6.71.84 2.47.54 4.88-.37 7.39.12zM368.93 218.94c.9-.47 2.15.93 3.06 0-2.86-1-6.62.47-7.4-.31-1.41-1.42-5.77.13-6.77 1.2a38 38 0 0 0 6.45-.17c1.36-.39 3.51-.13 4.66-.72zM294.22 219c-2.67.91-12.36.78-16.51 4.95 1.89.2 20.38-4.21 20.22-4.95-.77-1.09-2.68.21-3.71 0zM223.35 220.59c-2.5-.36-3.72.63-5.53 1.17-1.41.41-4.91.24-5.85 1.31 4.23 1.71 8.91-1.36 13-.76 1.76.26 3.47-.54 4.88-.53 2.43 0 4.92.54 7.38-1.19a10.73 10.73 0 0 0-3.65.44c-2.14.54-2.37.06-4.36-.26a15.27 15.27 0 0 0-5.87-.18zM286.31 225.65c-1.82-.11-8 2.14-7.91 3.09 3.87.2 8.22-2.48 10.56-4 .57-.36 3.46.22 4.51-.16 2.61-.95 5.21-2.16 8-2.2 1.16 0 5.6 0 6 1a16.45 16.45 0 0 1 4.81 1.16c1.13.76 3.28-.09 4.75.07.84.09 5.29 2 5.87 1.24-2-.83-3.89-2.16-6.05-2.81a14.47 14.47 0 0 0-4.3-.39c-2.22 0-3-.61-5-1.14a17.89 17.89 0 0 0-11.43.14c-2.68.91-7.7 2.06-9.81 4zM361.85 223.07c.23-1.09 2.53-.88 1.77-1.45-2.83-.12-5.43 1.15-8.2 1.45-1.69-1.15-6.53-.53-7.35 1.44 1.43.32 3-.22 4.4 0 .79.1 2.58.69 3.12-.08 1.21.77 2.79.37 4.1.31.9-.14 1.31-1.87 2.16-1.67zM242.87 222.22c-.06.3-.42.27-.28.55.86.17.91-.77.28-.55zM342 233.37c.44-.17-4.48-2-5.07-2.29-2.07-1-3.94-1.58-5.66-3.23-3.19-3.09-7.29-4.39-11.51-5.63 0 .51 5.15 3.36 5.74 3 .41.8 2.06 1.29 2.06 1.45 2.07.93 2.72 5.09 5.75 4.22 1.22.74 7.41 3.02 8.69 2.48zM241.79 222.65c-.06-.24-1.08-.18-.57.29.23.13.4-.17.57-.29zM397.27 229.58a30.66 30.66 0 0 0-8.19-2.25 29.8 29.8 0 0 1-6.89-2c-1.55-.6-4.4-.66-5.7-1.56-1.08-2-4.3.59-5.34.88-.46.14-8.49 2.4-7.24 3.15a37.13 37.13 0 0 1 6.6-2c3.3-.63 5.14.57 8.31 1 2.3 1 2.34 1.53 4.42.54a22.27 22.27 0 0 1 3.53.63c1.82.25 4 2.13 5.57 3.06.66.45 4.9-.6 4.93-1.45z"></path>
    <path d="M309.82 226.56c.63 0 1.31 1.08 1.76.42-2.83-2.28-9.55-2.67-12.93-2-1.38.28-10.54 2.14-10.86 3.87 3.64 0 7-1.56 10.52-2.3 3.13-.66 6.44.8 9.46-.91-.28 1.54 1.31.66 2.05.92zM247.77 226.39c-1.71-.36-7.08-1.46-10.48-1.28-1.83.09-8.47 0-9.73 1.58 2.48 1.46 5.16-.07 7.75-.16a15.51 15.51 0 0 1 7 1.78c1.34.1 11.09-1.5 11.51-2.89-2.06-.14-4.05.67-6.05.97zM261 231.63a52.94 52.94 0 0 0-13.7 2.34c-4.07 1.34-8.67 3.71-12.94 4-.16.44 2.63 2.09 3.16 2 .11 0 4.71.23 4.54-.36s-1.26-.44-1.35-1c-.06-.41 10-5 11.14-5.16 3.48-.54 6.88.43 10.33-.15 1.75-.29 4-2.88 6.14-4 2.89-1.53 8.72-1.37 10.85-3.61a32.5 32.5 0 0 0-10 1.84c-2.88 1.04-5.17 3.01-8.17 4.1zM350.24 226.27c-.63.12-3.75-1.3-5.46 0 1.94 2.49 5.42.93 7.79.12-.27-1.58-1.51.1-2.33-.12zM205.3 226.56c-.85.13-4.66.57-4.78 1.75a2.45 2.45 0 0 0 2.33-.49c1.28.57 2.71.44 4 .93a6 6 0 0 0 4.33.3c.83-.34 5.12-2.43 5.72-1.33.28-1.55 4.68-.54 6.15-1-2.25-1-5.94-.38-8.24 0-3.16.41-6.36-.87-9.51-.16zM357.75 226.39c-2 .42-6.52.84-6.08 1.62.58 1.06 7.13-.3 6.08-1.62zM196.82 227.11a3.65 3.65 0 0 0 1.65-.13c.11-.84-1.54-.29-1.65.13zM325.21 232.63a13.75 13.75 0 0 0 2.21-.27 10.37 10.37 0 0 0 4 1c-.29-1.09-1.55-1-2.34-1.45-2.45.06-6.57-2.4-9.1-4s-7.32-.34-2 .94c1.24.3 3.61 1.07 4.64 2.26a5.85 5.85 0 0 0 2.59 1.52zM334.93 227.11c-.17-.18-1.08-.55-.51.18.16-.06.45.12.51-.18zM263.08 227c-3.47 1.94-13.08-.64-14.91 3.21.69-.54 4 0 5 0 2-.08 4.43.39 6.22-.56a33.49 33.49 0 0 0 3.28-1.3c.02-.1 3.16-1.65.41-1.35zM378.93 228.44a3.33 3.33 0 0 0 2.05.3c-1.1-.88-12.65-2.58-12.57-.61 1-.28 3.1.66 4.27.75 2.05.12 3.95-.98 6.25-.44zM336.75 227.72l-.09-.05a2.21 2.21 0 0 0-1-.31c-.91.2 1.98 1.37 1.09.36z"></path>
    <path d="M278.11 236.39c.34-1.62 1.78.72 1.93-1 4 3.16 8.63-2.61 11.3-3.63 1.83-.71 7.25-.64 8.11-1.86a14.16 14.16 0 0 1 3.1-1.3c1.75-.35 3.69.51 5.51.57-3.59-4.48-16.83 1.45-21 2.76-3.34 1.06-7.09 1.34-10.23 3a11.14 11.14 0 0 0-3.52 2.84c-1.92 1-3.87 1.87-5.75 2.9 2.44.45 3.26-.5 5.5-1.65 1.34-.68 2.68-1.34 3.95-2.15-.23-1.24.78-.14 1.1-.48zM286.88 229.46c.7 0 .79-.35.23-.41.02 0-.74.01-.23.41zM388.9 232.48a20.86 20.86 0 0 0-4.9-2c-.33-1.16 1.28-.26 1.08-.9-1.9-.27-2.53 1.26-4.85.47-.76-.26-4.34-1.61-4.72.14 3.06 1.05 4.88 1.39 7.52 3.31.63-.31 4.1.83 5.87-1.02zM226.59 232.05c1.25 1.63 3.22-.08 4.78.31.67 1.23 3.44.89 4.27.3.42.34 3.34-.17 3.9-.25 2.07-.31 4.64-.27 6.35-1.68a209 209 0 0 1-24-.95c-4.58-.34-8.22 1.94-12.5 2.7-1.12.2-9.17-1.06-9.17.42 1.32.43 2.84-.88 3.81.6 1.77-.57 4.65 0 6.62-.29 2.68-.41 5.2-1.53 7.9-1.88 1.69.37 6.58 1.45 8.04.72zM391.11 231.75c-.73-.66-5-3.29-4.94-1.44.72-.06 5.11 2.53 4.94 1.44zM311.87 231.75c1.31 1.09 3.36.3 4.11.45s3 1.28 3.62 1c.84-.35-2-2-2.66-1.77a12.12 12.12 0 0 0-7.8-1.69c.27 1.46 2.18.73 2.73 2.01zM280.56 231.21c-.28-.18-2.09-.54-2.85.12.85 1.37 1.84-.12 2.85-.12zM263.88 238a8.84 8.84 0 0 0 5.56-2.33c1.86-1.8 5.57-2 7.7-3.7-.74-1.89-7.19 1.5-8.19 2.31s-7.09 3.87-6.67 4.33a4 4 0 0 0 1.6-.61zM320.46 236.09c-3.54-1.47-7.3-2.35-10.77-3.76-3.82-1.57-8.27.5-11.95 1.45s-7.55 2.05-10.63 4.49c-.55-.29-5.28 1.1-5.6 1.64s4-.46 4.5-.54a11.54 11.54 0 0 0 5.26-1.72c.65-.4 2.75-1.6 3.21-1.42 1.45.57 3-1.56 4.49-2a14.23 14.23 0 0 1 9.49.15c2.39.91 8.09-.24 10.07 1.58a7.44 7.44 0 0 0 1.93.13zM262.8 235.55c1.37-.36.95-1.3 1.68-1.83s2.8-.44 3.1-1.55c-1.22-.86-6.43 1.94-7.81 2.46-.79.29-6.51 1.5-6.14 2.06s4.84.16 5.59 0c.57-.1 3.16-1.3 3.58-1.14zM334.13 240.32c1.14.91 3-.2 4.1.84 2-.28 3.9 1.85 5.86 1 0-1.17-8.29-2.43-9.6-3.16-4.44-2.49-8.91-4.17-13.23-6.86-.77.64 5.87 4.79 6.76 5.7s4.85 4.67 6.11 2.48zM232.46 235.79c3.58.37 6.21-1.69 9.44-2.17 0-1.42-3.93.32-4.32.42a19.45 19.45 0 0 1-8.25-.12c-.8 2.14 2.51.52 3.13 1.87z"></path>
    <path d="M214.9 233.41c-1.44.21-6 2.34-1.88 2.27 2.26 0 4.25-1.25 6.46-1.57.55.54 4 .12 4.66-.3a.54.54 0 0 0-.39-.62c-4.16.19-5.92-.19-8.85.22zM310.79 237.54c.79 1.09 5 .82 5.69.42-1.49-2.15-5.68-.53-7.82-.91-1.33-.24-7.9-2.14-7.32 1.4 1.98-1.16 8.49.82 9.45-.91zM322.24 239.6c1.75.05 6.43 1.46 7.39 2.29 0-1.72-7.52-4.18-7.39-2.29zM301.46 240.44c0 1.28 7.51.08 8.08-.84-2.66-1.09-5.54-.08-8.08.84zM369.54 220.47c-1.71-.42-5.4.4-5.35 1 .08.86 7.24-.72 8.2-.56-.6-.59-2.15-1.43-2.85-.44zM323.2 226.14c.21 1.32 1.72 1 2.62 1.36a4.54 4.54 0 0 0-2.62-1.36zM428.83 166.66a18.09 18.09 0 0 0-10.6 3c-3.84 2.57-5.62 6-5.62 9.71a11.07 11.07 0 0 0 4.25 8.53c3.43 2.87 7.26 3.69 11.37 3.69 4.34 0 8.63-.88 12.16-4.1a11 11 0 0 0 3.84-8.46c0-6.95-5.86-12.37-15.4-12.37zm6.66 19.94c-1.55 3.68-4.38 4.06-6.85 4.06-3 0-5.75-.62-7.21-3.93-.87-1.83-1.05-5.35-1.05-8.26 0-5.41.68-10.92 8-10.92s8 4.46 8 11.4c.03 4.26-.21 6.05-.89 7.65zm-33.19-8.3c-1.26-.2-2.57-.31-3.94-.42 1.21-.1 2.42-.24 3.57-.45 3.66-.73 6.18-2.49 6.18-5.16 0-1.77-.94-3.6-4.26-4.88-2.9-1.08-6.28-1.16-9.33-1.19H378a.61.61 0 1 0 0 1.21h3.86v22H378a.61.61 0 0 0-.61.61.61.61 0 0 0 .61.61h16.56c5.36 0 11.52-.19 14.23-3.53a4.55 4.55 0 0 0 1.05-2.93c-.02-3.52-3.91-5.24-7.54-5.87zm-12.68-10.89h7.25c2.25.46 3.39 1.75 3.39 5 0 4.06-2.21 5-6.32 5h-4.32zm10.53 20.66a4.84 4.84 0 0 1-2.35 1.35h-8.18v-11h4.9c1.52 0 3.73.11 5.26 1.35 1.26 1 1.47 2.62 1.47 4.38a5.53 5.53 0 0 1-1.1 3.92zM479.3 190a.71.71 0 0 1-.7.7h-16a.71.71 0 0 1 0-1.41h3.5l-7.62-8.43-7.26 6.88c-.65.67-1 1.12-1 1.38a.29.29 0 0 0 0 .17h4.09a.71.71 0 0 1 0 1.41h-11a.71.71 0 0 1 0-1.41h3.57a7.86 7.86 0 0 0 2.63-2l8-7.48-10.45-11.7h-3.72a.7.7 0 1 1 0-1.4h15.39a.7.7 0 1 1 0 1.4h-2.61l6.22 7 6.07-5.73c.27-.24.87-.82.87-1.22v-.07h-4.19a.7.7 0 0 1-.7-.7.68.68 0 0 1 .62-.68h11.08a.7.7 0 0 1 0 1.4h-3.9a6.64 6.64 0 0 0-1.81 1.25l-7.1 6.86 11.9 13h3.42a.7.7 0 0 1 .7.78zm23.7-72a11.26 11.26 0 0 1-.83 1.93 12.17 12.17 0 0 1-10.9 6.07c-6.59 0-11.93-4.58-11.93-10.22s5.34-10.22 11.93-10.22a13.58 13.58 0 0 1 3.28.4c.58-.26.82-.93-2.3-2.68a22.62 22.62 0 0 0-22.6 3.48c-1.22 1-8.7 5.74-8.7 25.71l.28 21.24a2.74 2.74 0 0 0 2.37 2.92H476a2.07 2.07 0 1 1 0 4.13h-48.1a2.07 2.07 0 1 1 0-4.13h6.43c1-.3 2.18-1.2 2.11-3.91v-42.98a3.14 3.14 0 0 0-1.07-2.39h-8.93a2.2 2.2 0 0 1-2.2-2.21V105a2.2 2.2 0 0 1 2.2-2.21H458c2.62 0 2.26 2.62 2.26 2.84v7.92a25.12 25.12 0 0 1 5.88-7.69 26.2 26.2 0 0 1 22.78-7.33S507.44 101.67 503 118zm-76 25.9a3 3 0 0 0 .18-.46 2.57 2.57 0 0 0 .1-.67 2.48 2.48 0 0 0-2.47-2.47 2.59 2.59 0 0 0-2.25 1.47.43.43 0 0 0 0 .07c-5.26 11.67-17.55 17.34-33.09 17.34-10.76 0-16.77-3-16.77-11.59V126.2h45.32c3.32 0 9.73.82 9.73-3.15 0-17.22-19.66-28.64-40.15-28.64-23.58 0-48.42 12.42-48.42 34.93s23.18 34.1 48.84 34.1c18.19 0 32.71-6.04 39.05-19.58zm-54.34-37.53c0-4.47 3.73-7.61 12.63-7.61 9.93 0 14.48 2.65 14.48 7v16.22h-27.04zM286.49 147a1.19 1.19 0 0 1-.05.32c-1.22 6-5.65 13.81-20.16 14.39-20.18.79-23.71-10.76-23.71-16.62l.34-38.91h-6.71a2.21 2.21 0 0 1-2.21-2.21v-.64a2.21 2.21 0 0 1 2.21-2.21h4.87c6.79-.41 18.08-2.91 23.11-21.14a1.3 1.3 0 0 1 1.25-.84 1.27 1.27 0 0 1 1.32 1.43v20.55h13.83a2.21 2.21 0 0 1 2.21 2.21v.64a2.21 2.21 0 0 1-2.21 2.21h-13.73v38c0 6.26 3.09 9.92 7.94 9.92 4 0 7.11-2.43 9.56-7.5a1.11 1.11 0 0 1 2.14.44zm51.44 0a1.19 1.19 0 0 1-.05.32c-1.23 6-5.65 13.81-20.17 14.39C297.54 162.45 294 150.9 294 145l.33-38.91h-6.72a2.22 2.22 0 0 1-2.21-2.21v-.64a2.22 2.22 0 0 1 2.21-2.21h4.88c6.79-.41 18.07-2.91 23.11-21.14a1.33 1.33 0 0 1 2.57.59v20.55H332a2.21 2.21 0 0 1 2.21 2.21v.64a2.21 2.21 0 0 1-2.21 2.21h-13.71v38c0 6.26 3.08 9.92 7.93 9.92 4 0 7.12-2.43 9.57-7.5a1.12 1.12 0 0 1 2.15.44zM176.24 67.83c-29.1 0-55 23.92-55 49.9 0 12 5.61 22.85 14.51 31a3.16 3.16 0 0 1 1.12-.25 2.46 2.46 0 0 1 1 .62c.19 0 .46-.07.69-.11a11.34 11.34 0 0 1 2.24-.27 7 7 0 0 1 2 .29 5.66 5.66 0 0 1 .6 0 4.63 4.63 0 0 1 1.11.14l.32.08.3.14a4.38 4.38 0 0 1 2.24 2.23 5.17 5.17 0 0 1 1.87 2.61 23.51 23.51 0 0 0 5.06 2.54 11.08 11.08 0 0 1 5.31 3.17 5.08 5.08 0 0 1 3 2.69 62.25 62.25 0 0 0 13.91 1.58c29.1 0 55.6-21.15 55.6-47.14s-26.79-49.22-55.88-49.22zm.48 91.93c-21.54-.19-28.16-19.34-28.16-43s7.93-43.34 29-43.34c19.91 0 27 20 27 43.68s-8.74 42.83-27.84 42.66z"></path>
</svg>