<svg
    xmlns="http://www.w3.org/2000/svg"
    version="1.1"
    viewBox="0 30 340 50"
>
    <g
        transform="translate(0,-952.36218)"
    >
        <path
            style="fill:#fff;fill-opacity:0;stroke:none"
            d="m 0.00279005,952.42859 350.10048995,0 0,99.98061 -350.10048995,0 z"
        />
        <g
            transform="matrix(1.9535735,0,0,-1.9535735,-286.35335,2260.0359)"
        >
            <g transform="translate(148.5039,654.32266)">
                <path
                    d="m 18.8623,-20.6524 c 0,0 1.3935,0 1.3935,0 0,0 0,-2.4785 0,-2.4785 0,0 -14.02627,0 -14.02627,0 0,0 0,2.4785 0,2.4785 0,0 1.79,0 1.79,0 1.6182,0 2.27147,1.0156 2.27147,2.4434 0,0 0,14.7148 0,14.7148 0,0 -3.87207,0 -3.87207,0 -1.6006,0 -3.7344,-0.1025 -3.4424,-3.2695 0,0 -2.97653,0 -2.97653,0 0,0 0,6.7637 0,6.7637 0,0 26.6748,0 26.6748,0 0,0 0,-6.7637 0,-6.7637 0,0 -2.9766,0 -2.9766,0 0.1377,2.9082 -1.498,3.2695 -2.9951,3.2695 0,0 -4.4912,0 -4.4912,0 0,0 0,-14.4043 0,-14.4043 0,-2.1689 0.7568,-2.7539 2.6504,-2.7539 z"
                />
            </g>
        </g>
        <g transform="matrix(1.9535735,0,0,-1.9535735,-286.35335,2260.0359)">
            <g transform="translate(172.75193,648.07456)">
                <path
                    d="m 6.4024,-10.2051 c 0,0 14.6455,0 14.6455,0 0.1728,0.5508 0.2929,1.1182 0.2929,1.6866 C 21.3408,-3.7685 17.9336,0 10.6875,0 3.4082,0 0,-3.7685 0,-8.5185 c 0,-4.7666 2.8233,-8.6743 10.6875,-8.6743 6.4024,0 9.5176,2.5991 10.1367,6.1616 0,0 -4.6464,0 -4.6464,0 -0.3614,-2.1856 -2.2374,-3.4932 -5.1114,-3.4932 -3.2529,0 -4.3369,1.8408 -4.664,4.3193 z"
                />
            </g>
        </g>
        <g transform="matrix(1.9535735,0,0,-1.9535735,-286.35335,2260.0359)">
            <g transform="translate(195.50393,648.09216)">
                <path
                    d="m 18.415,-1.2734 c 0,0 0,-5.3008 0,-5.3008 0,0 -2.9775,0 -2.9775,0 0,0 0,0.792 0,0.792 0,2.2197 -2.2891,2.8047 -3.8721,2.8222 -4.7324,0.0342 -5.1807,-3.5283 -5.1113,-6.1611 0.0517,-2.3232 0.8261,-5.2666 4.457,-5.3525 1.9277,-0.0518 3.9932,1.6181 4.3027,3.4765 0,0 3.5625,0 3.5625,0 -0.3613,-2.5644 -2.4267,-6.2993 -8.8632,-6.1433 C 2.4443,-16.9684 0,-12.9248 0.0176,-8.5537 0.1035,-1.291 6.8496,0 11.6689,-0.0342 c 2.7012,-0.0176 4.75,-0.7226 6.7461,-1.2392 z"
                />
            </g>
        </g>
        <g transform="matrix(1.9535735,0,0,-1.9535735,-286.35335,2260.0359)">
            <g transform="translate(279.23023,648.09216)">
                <path
                    d="m 18.432,-1.2734 c 0,0 0,-5.3008 0,-5.3008 0,0 -2.977,0 -2.977,0 0,0 0,0.792 0,0.792 0,2.2197 -2.306,2.8047 -3.889,2.8222 -4.716,0.0342 -5.163,-3.5283 -5.094,-6.1611 0.068,-2.3232 0.809,-5.2666 4.457,-5.3525 1.91,-0.0518 3.992,1.6181 4.303,3.4765 0,0 3.545,0 3.545,0 -0.345,-2.5644 -2.41,-6.2993 -8.864,-6.1433 C 2.445,-16.9684 0,-12.9248 0.035,-8.5537 0.12,-1.291 6.85,0 11.669,-0.0342 c 2.702,-0.0176 4.767,-0.6543 6.763,-1.2392 z"
                />
            </g>
        </g>
        <g transform="matrix(1.9535735,0,0,-1.9535735,-286.35335,2260.0359)">
            <g transform="translate(267.71723,647.45546)">
                <path
                    d="m 10.756,-13.8711 c 0,0 0.913,0 0.913,0 0,0 0,-2.3406 0,-2.3406 0,0 -11.669,0 -11.669,0 0,0 0,2.4099 0,2.4099 0,0 1.428,0 1.428,0 0.844,0 1.549,0.791 1.549,2.0303 0,0 0,7.1074 0,7.1074 0,1.6182 -0.447,2.2715 -1.549,2.2715 0,0 -1.359,0 -1.359,0 0,0 0,2.3926 0,2.3926 0,0 8.743,0 8.743,0 0,0 0,-11.5821 0,-11.5821 0,-0.9814 0.309,-2.289 1.944,-2.289 z"
                />
            </g>
        </g>
        <g transform="matrix(1.9535735,0,0,-1.9535735,-286.35335,2260.0359)">
            <g transform="translate(241.28223,648.16146)">
                <path
                    d="m 10.739,-14.5771 c 0,0 0.93,0 0.93,0 0,0 0,-2.3406 0,-2.3406 0,0 -11.669,0 -11.669,0 0,0 0,2.4099 0,2.4099 0,0 1.429,0 1.429,0 0.843,0 1.549,0.791 1.549,2.0303 0,0 0,7.2285 0,7.2285 0,1.6514 -0.878,2.2881 -1.98,2.2881 0,0 -0.929,0 -0.929,0 0,0 0,2.4101 0,2.4101 0,0 8.003,0 8.003,0 0,0 0,-1.4111 0,-1.4111 2.116,1.5664 4.939,1.9619 7.038,1.9102 2.961,-0.0518 6.696,-1.4629 6.696,-5.9375 0,0 0,-5.7998 0,-5.7998 0,-1.1016 0.086,-2.7539 1.79,-2.7539 0,0 1.066,0 1.066,0 0,0 0,-2.3578 0,-2.3578 0,0 -11.616,0 -11.616,0 0,0 0,2.306 0,2.306 0,0 1.377,0 1.377,0 1.359,0 1.635,1.4805 1.635,2.4785 0,0 0,5.9893 0,5.9893 0,1.5146 -0.896,3.0634 -3.443,3.0459 -1.497,0 -2.788,-0.5684 -3.803,-1.9278 0,0 0,-7.2793 0,-7.2793 0,-0.998 0.292,-2.289 1.927,-2.289 z"
                />
            </g>
        </g>
        <g transform="matrix(1.9535735,0,0,-1.9535735,-286.35335,2260.0359)">
            <g transform="translate(214.45213,654.27086)">
                <path
                    d="m 8.8115,-8.4668 c 1.8594,2.0127 4.1651,2.3574 6.4883,2.3057 2.9434,-0.0694 6.6602,-1.4629 6.6602,-5.9375 0,0 0,-5.7998 0,-5.7998 0,-1.1016 0.0859,-2.7539 1.7724,-2.7539 0,0 1.085,0 1.085,0 0,0 0,-2.3578 0,-2.3578 0,0 -11.583,0 -11.583,0 0,0 0,2.306 0,2.306 0,0 1.3769,0 1.3769,0 1.3594,0 1.6348,1.4805 1.6348,2.4785 0,0 0,5.9893 0,5.9893 0,1.5146 -0.9805,2.9599 -3.4248,3.0459 -1.6172,0.0693 -2.9766,-0.6192 -4.0098,-2.1856 0,0 0,-7.0215 0,-7.0215 0,-0.998 0.293,-2.289 1.9444,-2.289 0,0 0.8955,0 0.8955,0 0,0 0,-2.3406 0,-2.3406 0,0 -11.6514,0 -11.6514,0 0,0 0,2.4099 0,2.4099 0,0 1.4287,0 1.4287,0 0.8262,0 1.5489,0.791 1.5489,2.0303 0,0 0,13.9053 0,13.9053 0,1.6357 -0.4473,2.2724 -1.5665,2.2724 0,0 -1.3593,0 -1.3593,0 0,0 0,2.4092 0,2.4092 0,0 8.7597,0 8.7597,0 0,0 0,-8.4668 0,-8.4668 z"
                />
            </g>
        </g>
        <g transform="matrix(1.9535735,0,0,-1.9535735,-286.35335,2260.0359)">
            <g transform="translate(269.74823,654.97596)">
                <path
                    d="m 3.786,0 c 2.1,0 3.786,-1.2901 3.786,-2.874 0,-1.6006 -1.686,-2.8907 -3.786,-2.8907 C 1.686,-5.7647 0,-4.4746 0,-2.874 0,-1.2901 1.686,0 3.786,0 z"
                />
            </g>
        </g>
        <g transform="matrix(1.9535735,0,0,-1.9535735,-286.35335,2260.0359)">
            <g transform="translate(299.57323,648.05796)">
                <path
                    d="m 0.533,-15.7642 c 0,0 0,4.7837 0,4.7837 0,0 2.788,0 2.788,0 -0.293,-3.6826 2.926,-3.5625 4.457,-3.5791 1.463,-0.0175 3.993,0.4649 3.942,1.9961 -0.086,2.1514 -3.322,2.3057 -5.714,2.9776 C 3.648,-8.8975 0,-7.6933 0.138,-5.1279 0.326,-1.6182 4.577,-0.0342 9.361,0 c 2.702,0 5.542,-0.5166 8.021,-1.2568 0,0 0,-5.0078 0,-5.0078 0,0 -2.685,0 -2.685,0 0.138,3.5459 -2.426,3.6142 -4.887,3.5966 -1.429,-0.0166 -3.976,-0.413 -3.856,-1.8242 0.138,-1.4795 3.734,-1.9785 5.955,-2.7187 2.409,-0.8262 5.834,-1.7217 5.817,-4.9229 -0.051,-3.6134 -5.886,-4.8524 -9.603,-4.9204 -2.564,-0.052 -5.06,0.601 -7.59,1.29 z"
                />
            </g>
        </g>
        <g 
            transform="matrix(1.9535735,0,0,-1.9535735,-286.35335,2260.0359)"
            style="fill:#fff"
        >
            <g transform="translate(179.06833,645.08046)">
                <path
                    d="m 9.1905,-4.0791 c 0,0 -9.1905,0 -9.1905,0 C 0.4649,-1.7383 2.0137,0 4.75,0 7.4864,0 9.0352,-1.5489 9.1905,-4.0791 z"
                />
            </g>
        </g>
    </g>
</svg>
