<svg version="1.1"
	 xmlns="http://www.w3.org/2000/svg" 
	 x="0px" 
	 y="0px" 
	 width="273.274px"
	 height="50px" 
	 viewBox="0 0 273.274 50" 
	 xml:space="preserve"
>
<polyline id="polyline236" fill="#49166D" points="140.39,12.462 140.39,7.616 123.104,7.616 123.104,32.549 140.39,32.549 
	140.39,27.492 130.103,27.492 130.103,21.965 138.66,21.965 138.66,17.125 130.103,17.125 130.103,12.462 140.39,12.462 "/>
<polyline id="polyline238" fill="#49166D" points="170.875,27.629 160.075,27.629 160.075,7.616 152.99,7.616 152.99,32.549 
	170.875,32.549 170.875,27.629 "/>
<path id="path240" fill="#49166D" d="M227.938,17.118c-4.78-1.077-6.453-1.202-6.453-3.104
	c0-1.765,2.369-2.314,3.731-2.314c2.204,0,4.808,0.514,7.46,1.874l1.928-4.588c-2.719-1.482-6.205-2.099-9.561-2.099
	c-6.593,0-11.016,2.675-11.203,7.89c-0.189,4.756,3.68,6.535,7.233,7.269c3.426,0.708,6.901,1.314,6.972,3.349
	c0.063,1.877-1.625,2.681-4.811,2.681c-2.949,0-5.692-0.948-8.494-2.122l-1.637,4.987c3.221,1.37,6.492,2.125,9.862,2.125
	c4.683,0,8.101-0.731,10.618-3.093c1.744-1.622,2.314-3.58,2.314-5.449C235.901,20.583,233.446,18.363,227.938,17.118"/>
<polyline id="polyline242" fill="#49166D" points="113.053,12.538 113.053,7.616 91.309,7.616 91.309,12.538 98.655,12.538 
	98.655,32.549 105.698,32.549 105.698,12.538 113.053,12.538 "/>
<path id="path244" fill="#49166D" d="M195.047,7.616v15.841c0,1.241,0,1.584-0.073,2.067
	c-0.229,1.51-1.691,2.386-4.025,2.417c-1.729-0.028-2.994-0.539-3.583-1.442c-0.296-0.464-0.441-1.298-0.441-2.63V7.616h-7.348
	v17.183c0,2.381,0.317,3.456,1.394,4.815c1.773,2.217,5.231,3.383,9.992,3.383c0.053,0,0.1,0,0.157,0c0.024,0,0.067,0,0.103,0
	c6.377,0,9.668-2.486,10.62-4.812c0.476-1.128,0.511-1.662,0.511-3.938V7.616H195.047"/>
<path id="path246" fill="#49166D" d="M94.628,0.789L53.421,8.993v2.874l0.131-0.034
	C80.774,5.216,94.627,1.236,94.739,1.208c0.154-0.04,0.208-0.16,0.187-0.261C94.903,0.841,94.792,0.753,94.628,0.789"/>
<path id="path248" fill="#66CC00" d="M59.716,2.569V2.565V2.569 M61.125,0.005
	c-2.003,0.114-5.712,3.081-7.748,4.843c-8.107,7.014-14.135,13.461-18.518,20.213c-9.137,4.894-20.788,9.927-32.354,13.855
	L2.226,39.01L0,45.005l1.271-0.492c7.358-2.804,19.639-8.07,30.772-13.924C31.416,32.261,31.1,33.798,31.1,35.2
	c0,1.044,0.175,2.016,0.524,2.9c0.7,1.764,2.08,3.1,3.993,3.86c2.849,1.136,6.736,1.157,11.171-0.185
	c11.33-3.435,24.769-13.979,27.695-16.076l0.112-0.079c0.115-0.083,0.123-0.208,0.075-0.293c-0.064-0.097-0.199-0.123-0.31-0.055
	h-0.001h0.001l-0.144,0.087c-3.14,1.885-18.398,10.944-28.316,13.603c-5.052,1.355-8.902,0.616-10.354-1.416
	c-0.504-0.694-0.747-1.572-0.747-2.596c0-1.999,0.941-4.544,2.753-7.373c1.668-0.949,3.226-1.877,4.63-2.759
	c9.676-5.438,20.824-16.011,21.3-22.465c0.002-0.044,0.002-0.095,0.002-0.143c0-0.557-0.241-1.13-0.664-1.553
	C62.366,0.194,61.768-0.037,61.125,0.005L61.125,0.005z M60.046,3.081c0.635-0.411,0.818-0.154,0.631,0.31
	c-0.302,0.741-1.699,5.199-12.072,13.715c-2.707,2.217-4.632,3.462-8.53,5.77C46.458,13.931,55.777,5.853,60.046,3.081z"/>
<polyline id="polyline250" fill="#49166D" points="53.286,9.02 9.932,18.339 8.26,22.848 53.421,11.866 54.818,11.077 54.779,9.025 
	53.286,9.02 "/>
</svg>
