<svg 
	 xmlns="http://www.w3.org/2000/svg"
	 width="282.108" height="61.424" viewBox="0 0 282.108 61.424" overflow="visible" enable-background="new 0 0 282.108 61.424"
	 xml:space="preserve">
		<switch>
			<g>
				<g>
					<g>
						<g>
							<path fill="#000000" d="M30.71,0C13.75,0,0,13.749,0,30.712c0,16.96,13.75,30.712,30.71,30.712
								c16.961,0,30.712-13.752,30.712-30.712C61.422,13.749,47.672,0,30.71,0z M30.71,57.957
								c-15.047,0-27.247-12.199-27.247-27.245c0-15.049,12.199-27.247,27.247-27.247s27.247,12.198,27.247,27.247
								C57.957,45.758,45.758,57.957,30.71,57.957z"/>
							<path fill="#000000" d="M53.032,43.08l-4.459-5.207c-0.055-0.063-0.12-0.117-0.195-0.161
								c-0.228-0.13-0.496-0.133-0.717-0.026l0,0c-0.681,0.322-1.504,0.316-2.206-0.089c-0.625-0.358-1.023-0.962-1.147-1.618h0.001
								c-0.314-1.671-1.326-3.199-2.913-4.114l-1.997-1.152l11.353-6.554l-1.405-2.435l-12.758,7.365l-1.533-0.884v-1.771
								l12.757-7.366l-1.405-2.434l-11.352,6.555v-2.305c0-1.833-0.818-3.474-2.107-4.58l0,0c-0.507-0.434-0.829-1.08-0.829-1.801
								c0-0.811,0.406-1.529,1.027-1.957c0.203-0.138,0.334-0.372,0.334-0.635c0-0.087-0.014-0.171-0.04-0.249l-2.279-6.464
								c-0.063-0.189-0.241-0.324-0.45-0.324c-0.208,0-0.386,0.135-0.449,0.324l-2.278,6.464c-0.027,0.078-0.041,0.162-0.041,0.249
								c0,0.263,0.132,0.497,0.333,0.635h0.001c0.62,0.428,1.027,1.146,1.027,1.957c0,0.721-0.321,1.367-0.83,1.801
								c-1.29,1.106-2.106,2.748-2.106,4.58v2.305l-11.353-6.555l-1.405,2.434l12.758,7.366v1.772l-1.533,0.883l-12.758-7.365
								l-1.404,2.435l11.353,6.554l-1.998,1.152c-1.587,0.915-2.599,2.443-2.912,4.114h0c-0.124,0.656-0.521,1.26-1.146,1.618
								c-0.703,0.405-1.525,0.411-2.207,0.089l0,0c-0.222-0.106-0.489-0.104-0.716,0.026c-0.076,0.044-0.142,0.099-0.195,0.161
								l-4.46,5.205c-0.131,0.149-0.159,0.369-0.055,0.553c0.104,0.179,0.31,0.266,0.504,0.229l6.738-1.262
								c0.081-0.016,0.162-0.045,0.236-0.088c0.229-0.133,0.363-0.362,0.383-0.608c0.061-0.75,0.479-1.462,1.181-1.867
								c0.623-0.358,1.344-0.404,1.975-0.183c1.603,0.564,3.432,0.451,5.019-0.467l1.997-1.15v13.108h2.81V36.611l1.534-0.885
								l1.533,0.885v14.731h2.811V38.234l1.996,1.15c1.587,0.918,3.417,1.031,5.02,0.467c0.629-0.222,1.351-0.176,1.975,0.183
								c0.702,0.405,1.119,1.117,1.18,1.867c0.019,0.246,0.154,0.476,0.381,0.608c0.075,0.043,0.156,0.072,0.237,0.088l6.737,1.262
								c0.195,0.037,0.4-0.05,0.505-0.229C53.191,43.447,53.162,43.228,53.032,43.08z M26.368,34.99l-3.747,2.162
								c-0.734,0.424-1.671,0.172-2.094-0.561c-0.423-0.735-0.172-1.672,0.562-2.096l3.747-2.163l1.533,0.886V34.99z M29.178,20.486
								c0-0.848,0.686-1.535,1.533-1.535c0.847,0,1.534,0.687,1.534,1.535v4.325l-1.533,0.884l-1.534-0.884V20.486z M32.475,31.73
								l-1.763,1.017l-1.765-1.018v-2.037l1.765-1.019l1.763,1.019V31.73z M40.896,36.592c-0.424,0.732-1.363,0.984-2.096,0.561
								l-3.746-2.164v-1.77l1.533-0.886l3.746,2.163C41.067,34.92,41.318,35.856,40.896,36.592z"/>
						</g>
						<g>
							<polygon fill="#000000" points="235.19,24.473 224.94,24.473 224.94,3.981 215.577,3.981 215.577,57.442 
								224.94,57.442 224.94,33.965 235.19,33.965 235.19,57.442 244.757,57.442 244.757,3.981 235.19,3.981 "/>
							<polygon fill="#000000" points="91.069,3.981 83.998,24.809 77.597,3.981 68.258,3.981 78.649,36.762 
								78.649,57.442 89.05,57.442 89.05,35.7 99.822,3.981 "/>
							<polygon fill="#000000" points="154.075,29.412 148.874,3.981 134.257,3.981 134.257,57.442 
								142.639,57.442 142.639,17.143 149.792,52.176 157.62,52.176 163.964,16.574 163.964,57.442 173.792,57.442 173.792,3.981 
								158.56,3.981 "/>
							<path fill="#000000" d="M273.286,3.981h-14.479l-9.77,53.461h8.664l2.072-12.44h10.777l2.01,12.44h9.547
								L273.286,3.981z M261.259,36.09l3.984-23.91l3.867,23.91H261.259z"/>
							<path fill="#000000" d="M187.843,3.981l-9.773,53.461h8.666l2.074-12.44h10.777l2.01,12.44h9.545
								l-8.822-53.461H187.843z M190.294,36.09l3.984-23.91l3.867,23.91H190.294z"/>
							<path fill="#000000" d="M106.521,3.981l-9.773,53.461h8.667l2.074-12.44h10.776l2.011,12.44h9.543
								l-8.821-53.461H106.521z M108.973,36.09l3.984-23.91l3.866,23.91H108.973z"/>
						</g>
					</g>
				</g>
			</g>
		</switch>
	</svg>
